<mxfile host="app.diagrams.net" agent="Mozilla/5.0 (Windows NT 10.0; Win64; x64) AppleWebKit/537.36 (KHTML, like Gecko) Chrome/136.0.0.0 Safari/537.36" version="27.0.1">
  <diagram id="F8c1LrYgMz87cWAGoEty" name="Page-1">
    <mxGraphModel dx="5678" dy="2844" grid="1" gridSize="10" guides="1" tooltips="1" connect="1" arrows="1" fold="1" page="1" pageScale="1" pageWidth="826" pageHeight="1169" background="#ffffff" math="1" shadow="0">
      <root>
        <mxCell id="0" />
        <mxCell id="1" parent="0" />
        <mxCell id="aIKme_46oC3QXbZHdEw_-2" value="" style="shape=image;verticalLabelPosition=bottom;labelBackgroundColor=default;verticalAlign=top;aspect=fixed;imageAspect=0;image=data:image/png,iVBORw0KGgoAAAANSUhEUgAACkAAAAZTCAYAAACuVGxVAAAAOnRFWHRTb2Z0d2FyZQBNYXRwbG90bGliIHZlcnNpb24zLjEwLjEsIGh0dHBzOi8vbWF0cGxvdGxpYi5vcmcvc2/+5QAAAAlwSFlzAAAuIwAALiMBeKU/dgABAABJREFUeJzs/QuQZUd9GP733juzs6vV6oGEwEIS4hEklEos45iAMA+FMhhQeBgM2GAbA4UdXPxJQhxs/AAZCOZREP/CIzjYuDCBFDhYwCJcIGIwsQgIgUMKKdhCgIyQ0YvVY7U7j3v3XzMqNhpppr+zt6fnnL7z+VSp4E5v9+lzTr9O3++9d8fhw4cPJwAAAAAAAAAAAICGDLquAAAAAAAAAAAAAMDREgAJAAAAAAAAAAAANEcAJAAAAAAAAAAAANAcAZAAAAAAAAAAAABAcwRAAgAAAAAAAAAAAM0RAAkAAAAAAAAAAAA0RwAkAAAAAAAAAAAA0BwBkAAAAAAAAAAAAEBzBEACAAAAAAAAAAAAzREACQAAAAAAAAAAADRHACQAAAAAAAAAAADQHAGQAAAAAAAAAAAAQHMEQAIAAAAAAAAAAADNEQAJAAAAAAAAAAAANEcAJAAAAAAAAAAAANAcAZAAAAAAAAAAAABAcwRAAgAAAAAAAAAAAM0RAAkAAAAAAAAAAAA0RwAkAAAAAAAAAAAA0BwBkAAAAAAAAAAAAEBzBEACAAAAAAAAAAAAzREACQAAAAAAAAAAADRHACQAAAAAAAAAAADQHAGQAAAAAAAAAAAAQHMEQAIAAAAAAAAAAADNEQAJAAAAAAAAAAAANGem6wrAdrN///70uc997sjr008/Pc3NzXVaJwAAAAAAAAAAoDvz8/Pp7//+74+8fuxjH5tOOOGETuvUAgGQsMWWgx+f/vSnd10NAAAAAAAAAACgpy666KL0tKc9retq9J6fwAYAAAAAAAAAAACaIwASAAAAAAAAAAAAaI6fwIYtdvrpp696/fKL/n/pPg++T2f1AQAAAAAAAAAAuvX9q76f/uDp/9+6MUasTQAkbLG5ublVr5eDH0/7x/frrD4AAAAAAAAAAEC/Y4xYm5/ABgAAAAAAAAAAAJojABIAAAAAAAAAAABojgBIAAAAAAAAAAAAoDkCIAEAAAAAAAAAAIDmzHRdAWDrjdOwKP8gjVKL59XXegPbW+mYzNEzH0BdxrXNZ9wCmA7myDrMkwB0yfy++fN37fd63DMAoC/saWwe3wAJAAAAAAAAAAAANEcAJAAAAAAAAAAAANAcAZAAAAAAAAAAAABAcwRAAgAAAAAAAAAAAM0RAAkAAAAAAAAAAAA0RwAkAAAAAAAAAAAA0JyZrisArG2chhPnHaRRUXqrpvW8gO07nlOHewJM27hlHQzQD9aZ3XDdAeiz7fq8Fs3PJfO3uR8AgLvzDZAAAAAAAAAAAABAcwRAAgAAAAAAAAAAAM0RAAkAAAAAAAAAAAA0RwAkAAAAAAAAAAAA0BwBkAAAAAAAAAAAAEBzBEACAAAAAAAAAAAAzREACQAAAAAAAAAAADRnpusKAGsbpFG1ssdp2Nu6AUybaMwsHZM5euYxqMu4tvmMWwBtsPbvhnkSgC5F87v5/+jn7+ialc797gkAwPTxDZAAAAAAAAAAAABAcwRAAgAAAAAAAAAAAM0RAAkAAAAAAAAAAAA0RwAkAAAAAAAAAAAA0BwBkAAAAAAAAAAAAEBzBEACAAAAAAAAAAAAzREACQAAAAAAAAAAADRnpusKAGsbp+HEeQdpVJQOQD/Gc+pwT4BpG7es7wH6wTqzG647AC2b1ue5aH4umb/N/QAA3J1vgAQAAAAAAAAAAACaIwASAAAAAAAAAAAAaI4ASAAAAAAAAAAAAKA5AiABAAAAAAAAAACA5giABAAAAAAAAAAAAJojABIAAAAAAAAAAABojgBIAAAAAAAAAAAAoDkzXVcAWNsgjaqVPU7D3tYNYNpEY2bpmMzmMsdBzLi19YxNAG2w9u8fcygAtZXO79t1fZCbo6NrUjq/b9drDgAwzXwDJAAAAAAAAAAAANAcAZAAAAAAAAAAAABAcwRAAgAAAAAAAAAAAM0RAAkAAAAAAAAAAAA0RwAkAAAAAAAAAAAA0BwBkAAAAAAAAAAAAEBzZrquALC2cRpOnHeQRkXpAPRjPGfruV9Ai2OT9T1AP1hL9o97AkDLWn7Wi+bgkjna/A4A3N244vf/DdK4WtlsHt8ACQAAAAAAAAAAADRHACQAAAAAAAAAAADQHAGQAAAAAAAAAAAAQHMEQAIAAAAAAAAAAADNEQAJAAAAAAAAAAAANEcAJAAAAAAAAAAAANAcAZAAAAAAAAAAAABAc2a6rgCwtkEaVSt7nIa9rRvAtInGzNIxma1lDgTjVheMPQBtsPbvH3ModKvlcc/4QR/6Sct9qM/903UFgPaMO/x+v+jYgzTesrqwPt8ACQAAAAAAAAAAADRHACQAAAAAAAAAAADQHAGQAAAAAAAAAAAAQHMEQAIAAAAAAAAAAADNEQAJAAAAAAAAAAAANEcAJAAAAAAAAAAAANAcAZAAAAAAAAAAAABAc2a6rgCwtnEaTpx3kEZF6QD0Yzynf9zPzdfyuqTL9hBdN211ukT3s+V+BDBNzL/b757k5uA+rxX7TD+arnvaar1r087ZDn2oZjvXhwBg+ox9fx+FtCAAAAAAAAAAAACgOQIgAQAAAAAAAAAAgOYIgAQAAAAAAAAAAACaIwASAAAAAAAAAAAAaI4ASAAAAAAAAAAAAKA5AiABAAAAAAAAAACA5giABAAAAAAAAAAAAJoz03UFgLUN0mjivOM07OzYALRjXPBZmEEab2pdmO75Obc2KV23dHnNa96T6Lr0+boBAGwXJWuyLtf3La8lW30uKr3mLd8zNredR22h1T6ynbW6Z9JnUT/IXdeSvAAAdMc3QAIAAAAAAAAAAADNEQAJAAAAAAAAAAAANEcAJAAAAAAAAAAAANAcAZAAAAAAAAAAAABAcwRAAgAAAAAAAAAAAM0RAAkAAAAAAAAAAAA0Z6brCgBrG6fhxHkHabSpdQFg+xmkcZpW5smt55pP1zUrWaf22Tj4fGCX42Kf2wMAGx+vu5xD+zzP1WQOXZvrsvVcc/rSlqb1eY72xp6abbGkbH0EANjMPZdp3W/pI98ACQAAAAAAAAAAADRHACQAAAAAAAAAAADQHAGQAAAAAAAAAAAAQHMEQAIAAAAAAAAAAADNEQAJAAAAAAAAAAAANEcAJAAAAAAAAAAAANAcAZAAAAAAAAAAAABAc2a6rgCwtkEaTZx3nIadHRuArTOu+FmW0rIHaZz6qnSeBPprWsfFaNyyfgfYHuvMaZ3narL2Bzg6ni3aEs1z23UejNpx7rqU5AUAutnTKD12X/c0ODq+ARIAAAAAAAAAAABojgBIAAAAAAAAAAAAoDkCIAEAAAAAAAAAAIDmCIAEAAAAAAAAAAAAmiMAEgAAAAAAAAAAAGiOAEgAAAAAAAAAAACgOQIgAQAAAAAAAAAAgObMdF0BYG3jNFw3bZBG2bxROsC0GaZxNn00pZ/5GATnPa543tGxazLPQbvr2NqmdVysOe5Fc2ifTev8DtNgu44t0XhdOkfm5pqac1x07K55PgCY/mc9tn5t0uX8WtrWSvJr5wDQppJ9kShvn/dE+H+8WwAAAAAAAAAAAAA0RwAkAAAAAAAAAAAA0BwBkAAAAAAAAAAAAEBzBEACAAAAAAAAAAAAzREACQAAAAAAAAAAADRHACQAAAAAAAAAAADQnJmuKwCsbZBGE+cdp2FnxwaoYZjGqa9Kx9x82f39rEpp3QYF97TmNQf6bVrHxWhMrLm+H/X4mjKZkvZS81mwz8+pfa5bq6Z5bLH+39q1/0Z4PgCYDtZUmz8HlsyR5lcAoE/6vGdCP2ghAAAAAAAAAAAAQHMEQAIAAAAAAAAAAADNEQAJAAAAAAAAAAAANEcAJAAAAAAAAAAAANAcAZAAAAAAAAAAAABAcwRAAgAAAAAAAAAAAM0RAAkAAAAAAAAAAAA0Z6brCgBrG6fhummDNMrmjdJzZQN0ZZjGnZU9KvhMSM0xdxDUe9zhZ1miutU9dv6aA/1Wc1yMjz1oclysOe7VnH+7VjK/t6yv82Rf69X3uvXZtI4f0dhR0l6iObBkLqn9bGD9D0CXvKexvebfeM3kPTAAAFbbnu8GAAAAAAAAAAAAAE0TAAkAAAAAAAAAAAA0RwAkAAAAAAAAAAAA0BwBkAAAAAAAAAAAAEBzBEACAAAAAAAAAAAAzREACQAAAAAAAAAAADRHACQAAAAAAAAAAADQnJmuKwCsbZBG66aN07Ba2aWiutU8NsB6RhU/81E6Jo8b/TxKzXoP0rjqNQf6q8sxsdXxeCNya/Cac2Sf1Z5Lunzmol9qPwPXbA9R3Y0fk+St+VwyqLwGt/4HoL+87zCZ3Bzb5/m3y7pFba3P1w0AapvWPfbovKJ9DbbGdLY+AAAAAAAAAAAAYKoJgAQAAAAAAAAAAACaIwASAAAAAAAAAAAAaI4ASAAAAAAAAAAAAKA5AiABAAAAAAAAAACA5giABAAAAAAAAAAAAJojABIAAAAAAAAAAABozkzXFQDWNk7DddMGaVSt7NLyS+sGTK9hGvf22KOCz4RE41485q5ft3GPP6uSq3d52eYSoI7cuFpzXCstv+a42OX8zGTMk9yV8WHzRc8GXfbBVuexuGzjGgB1Rftz9Gt+L30Pq+b91pYAAPqpv++qAwAAAAAAAAAAAKxDACQAAAAAAAAAAADQHAGQAAAAAAAAAAAAQHMEQAIAAAAAAAAAAADNEQAJAAAAAAAAAAAANEcAJAAAAAAAAAAAANCcma4rABy9cRpm0wdpVJTeZd0AahhV/MxHNO7F+Qed5I0M0rizYwPbV+2xxdi19YbBfNLV/F17fu/yuae07iXnVfPYJXWrXa9W73dU75p9sGRs6Pv6Pl92Wb3NYwDQP9v1PY9ozVR3TdXP546u6wYALbPnQSktCAAAAAAAAAAAAGiOAEgAAAAAAAAAAACgOQIgAQAAAAAAAAAAgOYIgAQAAAAAAAAAAACaIwASAAAAAAAAAAAAaI4ASAAAAAAAAAAAAKA5AiABAAAAAAAAAACA5sx0XQFgbYM0qlb2OA2rHbtmvaO61z42kDdM49Rq3UYdfiZkkKnbOKhXLm/XatbNeA9Mm9Ixs2RcLJ2/+zwXtap03dLlPNnXObrLetVeh3bZ/7sd9yZfQ9cU77fkz7vP63/rewC2q2h+j9Lp33tgfS0bAIDJ+QZIAAAAAAAAAAAAoDkCIAEAAAAAAAAAAIDmCIAEAAAAAAAAAAAAmiMAEgAAAAAAAAAAAGiOAEgAAAAAAAAAAACgOQIgAQAAAAAAAAAAgOYIgAQAAAAAAAAAAACaM9N1BYC1jdNw4ryDNCpKr1nv0mPXrDswvUYFn/koGY/vzF/v8yY1yx6kcdW6lZRfek+AdpWOezXHTaZr/u9Sq/WmvftZWrdh0Xpu0NvzKllrmqcmW/tb3wOwnbX6nkf5nqn5HwBaM637FkwHAZBsyDe/+c30pS99KX33u99NCwsL6cQTT0xnn312Ou+889KuXbs6q9f+/fvTZZddlr71rW+t/P/xeJyOP/74dNppp6Wf+ImfSPe97307qxsAAAAAAAAAAAD1CIAk66KLLkqvfe1r01e+8pU104899tj0ghe8IL361a9OJ5988pbV6yMf+Uh6+9vfnj772c+mw4cPr/vvfuzHfiz96q/+anrhC1+YZmY0dwAAAAAAAAAAgGnh+0lZ0/z8fHr+85+fnvGMZ6wb/Ljs9ttvXwlEPOecc9Jf/dVfVa/XTTfdlJ7ylKekZz7zmekv//Ivs8GPy7761a+mX/mVX0mPeMQj0lVXXVW9fgAAAAAAAAAAAGwNAZDcw/LPSD/nOc9J//W//tdVfx8Oh+kBD3hAOvfcc1d+ZvqubrjhhvSkJz0pfeELX6hWr1tvvTU94QlPSBdffPE90u5973unhz3sYenHf/zH1/zZ68svvzydf/756dvf/na1+gEAAAAAAAAAALB1BEByD29+85vTRz/60VV/W/4Z6WuuuSZdffXVK9+qePPNN6/8DPUZZ5xx5N/ccccd6dnPfna65ZZbqtTrVa961T2+jfKpT33qyt+uv/76lSDHL3/5y+m6665LV1xxRXre85636t9+97vfTS95yUuq1A0AAAAAAAAAAICtJQCSe/zE9Otf//pVf3vDG96Q3vWud6VTTz31yN8Gg8HKz2Nfeuml6cwzz1wVZPjWt7510+u1HOD4n//zf171t3/1r/7VSqDmj/3Yj93j3z/0oQ9N73//+9Pv/d7vrfr7pz/96arfUgkAAAAAAAAAAMDWEADJKm9605vSbbfdduT1Yx7zmPTKV75y3X9/v/vdL73nPe9Z9be3ve1tK4GUm2nfvn1pNBqt+snrt7zlLWG+3/qt31oJhryrj3/845taNwAAAAAAAAAAALbeTAfHpKfG43F673vfu+pvr3nNa9KOHTuy+R7/+MenRz/60enzn//8yuvlAMoPfehDK9/QuFm+8Y1vrHr9xCc+MR1zzDFhvh9+U+WVV1555G9XXXVVasEg/b+Az6M1TsPOjl2SF+i3YRqnaa37KPOZkGhci8bcQXDssc+j9Ip5DMqVrkVrjqlR/pKyIyXHLslbOraVzv+5uteeA3N1z839QPfr/5LxvmTtX7r+rz1PlYybpXNJ1+Xnj20ND9O49q/N2EFf+knL/aiW8v3Y7t5fAwCgG3b8OWL556xvuOGGI68f+MAHpsc97nEbyvuiF71o1euLLrpoU+t28803r3p9+umnbzjvGWecser1/v37N61eAAAAAAAAAAAAdEMAJEd84hOfWPX6p37qp8Jvf7zrv72rz372s+nAgQObVrfjjz9+1euDBw9uOO/d/+3JJ5+8afUCAAAAAAAAAACgGwIgOeJv/uZvVr0+77zzNpz31FNPTWeeeeaR1wsLC+mKK67YtLqde+65q15fdtllG877pS99adXrhz/84ZtWLwAAAAAAAAAAALohAJIjrrzyylWvzznnnKPKf/d/f/fySlxwwQVpz549R17/9V//dfrCF74Q5rvqqqvSf//v//3I6127dqWf//mf37R6AQAAAAAAAAAA0A0BkBz5mehrrrlm1d9OP/30oyrj7v/+G9/4RtosJ5xwQnrVq1616m/PfOYzs98EuRyA+eQnP3nl2yh/6HWve1065ZRTNq1eAAAAAAAAAAAAdGOmo+PSMzfeeGM6fPjwkdezs7NHHSh4v/vdb9Xr66+/Pm2m3/iN30hf//rX0wc+8IGV19ddd1165CMfmZ7ylKekJzzhCen+979/2rFjR7r22mvT//gf/yN95CMfSYuLi6vyv+IVr9jUOi2f4w033HBUeZa/lRIAAAAAAAAAAIAyAiBZcfvtt696fcwxx6wEEx6Nu/5E9VpllhoMBun9739/Ou+889KFF164Eng4Go3Sxz72sZX/1vOoRz1q5d8//vGPT5vtne9850rZNYzTcOK8gzTa1LoALBsFXxw9TOM0jUrG4zvzDzrJuxGDivesbtnmOWDz1R5zOfq5ouY9idYt0boHpkGX6/eaa0UmG1PdE2ASns+nbx+LtrTcB3NttXw/Vj8AgL6x/05tWhhrBivu2rXrqMvYvXt3tszNsByU+Wu/9mvpK1/5SrrgggvCf78c/Lj8rY/nn3/+ptcFAAAAAAAAAACA7giAZMWhQ4dWvd65c+dRlzE3N7fq9cGDB9NmO3DgQPq3//bfpoc85CFp37594b//67/+6/QzP/Mz6R//43+c/tf/+l+bXh8AAAAAAAAAAAC64SewWfMbHxcWFo66jPn5+WyZpb73ve+t/Iz1//2///fI384666z08pe/PP2Lf/Ev0mmnnbbyM9nXXXdd+vznP5/+03/6T+nyyy9f+XfLeR796EenD3/4w+npT3/6ptXppS99afrZn/3Zo8pz1VVXbWodAAAAAAAAAAAAtiMBkKw49thjs98IuRF3/8bHu5dZYrk+T3jCE1YFP774xS9O73jHO+7xbZUPfOADV/77xV/8xfQ7v/M76fWvf/3K35eWltLP/dzPrfx89kMf+tBNqdcpp5yy8h8AAAAAAAAAAABby09gs2aw4h133JEOHz581D9PnSuzxBvf+Mb09a9//cjr5W98fPe73539qe4dO3ak173udekXfuEXVgVSvuIVr9i0egEAAAAAAAAAANANAZCsOPnkk1cCBn9ocXExXX/99UdVxrXXXrvq9WZ9M+JoNEpvf/vbV/1tObBx+eeuN2L5GyDv+m//4i/+Iv393//9ptQNAAAAAAAAAACAbgiAZMXu3bvTGWecsepv11xzzVGVcfd/f/bZZ29K3b72ta+lG2+8cVWw5iMe8YgN5z/99NPTj/7ojx55vfzNlv/zf/7PTakbAAAAAAAAAAAA3Zjp6Lj00HLA4ne+850jr6+44or0Ez/xExvOf+WVV96jvM3wrW99a9XrM888c9W3VW7EAx7wgPTVr3513W+r7KNBGq2bNk7DbN4oPVc2sL0N0zhNo1GPP/Mx7rBuJcceBG2lbtn5eQ6YXqVjZqtjbk3Rs0E0h0Zrh76ed5/XBrBVSvt3iZpjQ2n/jvdcJi+/r2PiRupWsv6P8pbyfACwNbyvsPVK3wvarkraaun7a+4JAEA3+rvrxpY799xzV72+9NJLN5z3uuuuS9/+9rePvJ6dnU3nnHPOptRrfn5+1euZmaOP212uz91/VhsAAAAAAAAAAIB2CYDkiAsuuGDV60suuWTl56I34lOf+tSq1+eff3469thjN6VeJ5100qrX3/ve9466jLt/4+O9733v4noBAAAAAAAAAADQHQGQHHHeeeelk08++cjrq6++On32s5/dUN4/+qM/WvX6aU972qbVa/knr+/qmmuuSd/85jc3nP+2225Ll1122aq/PehBD9q0+gEAAAAAAAAAALD1BEByxGAwSC94wQtW/e3CCy8MvwXyM5/5TPr85z9/5PXevXvTs5/97E2r10Me8pB02mmnrfrbW97ylg3nf+tb37rqZ7SPOeaY9IhHPGLT6gcAAAAAAAAAAMDWEwDJKq985StX/XT15z73ufTGN74x+9PSL37xi1f97eUvf/mqb5Jcy44dO1b9F33T5POf//xVr9/97nen973vfcHZpPTxj388ve51r1v1t+c+97lpbm4uzAsAAAAAAAAAAEB/CYBkleXAxVe96lWr/vabv/mb6aUvfWn63ve+d+Rv4/E4XXTRRSs/m/3tb3/7yN9PPfXU9IpXvGLT6/Xv//2/T/e6172OvF7+Vspf+qVfSr/8y7+cvv71r9/j31911VXpZS97WXr605+elpaWVn374+/+7u9uev0AAAAAAAAAAADYWjNbfDwa+RbISy+9NO3bt+/I3971rnelP/zDP0z3v//90/HHH5++9a1vpf3796/Kt3v37vShD30onXDCCZtepxNPPDH9+Z//eXrCE56w6ues/+RP/mTlv1NOOWXlZ7KXv01yOVDzuuuuW/Mnvj/wgQ+snAMAAAAAAAAAAABtEwDJmoGCH/7wh1e+XfG//bf/duTvo9EoXX311WvmOemkk9Kf/dmfpUc96lHV6vWYxzwmXXLJJSs/h/2d73xnVdr111+/8t967nOf+6Q//uM/Tk9+8pNTK8ZpuG7aII06O/ZWHB/ozijz5dDDNE6tiuqeO+/aBpm6jSvXK3fsmnnvzG8uAejDmFs6v5fWDegv/ZvNe3aw9gcgft+Bfunz/B21pZptTTsGYJrVfl8SatJ6WdOuXbvSBz/4wZWgxnPPPXfdf7dnz56Vn8e+4oor0uMe97jq9frJn/zJ9H/+z/9Jb3vb29LZZ58d/vszzzwzve51r1v5meyWgh8BAAAAAAAAAADI8w2QZD3zmc9c+e+qq65KX/ziF9O1116bFhYWVn7m+qEPfejKNz4uB0sercOHD09cp71796Z//a//9cp///AP/5Auu+yylZ+9Xv5J7uVyl3+ie/kbH//ZP/tn6Ywzzpj4OAAAAAAAAAAAAPSXAEg25MEPfvDKf31z3/veN/3Lf/kvu64GAAAAAAAAAAAAW8xPYAMAAAAAAAAAAADNEQAJAAAAAAAAAAAANEcAJAAAAAAAAAAAANCcma4rAKxtkEbrpo3TsFrZG0nPHT/KC/TbMI3TNBoFn/koGVfHYdmTf96kdLzvs5LrMpjSdgqUjQ21y685Jsfr70HRuJjLPw7yRnWL5ti+ri2ietdsD10+M03z2qKmVu/ZND+fl/Th6JqWzRXdjS39bsdl8xgAlJrmdVG9PU/PDpv9/hkATLva+/uQo/UBAAAAAAAAAAAAzREACQAAAAAAAAAAADRHACQAAAAAAAAAAADQHAGQAAAAAAAAAAAAQHMEQAIAAAAAAAAAAADNEQAJAAAAAAAAAAAANEcAJAAAAAAAAAAAANCcma4rABy9QRoV5R+nYafHB6bTII07O/a48DMduXGtfMwcT1z32uNtyT0rvd/mEqCLdW5u7IrmkpLxfCP5S0Rll1zXYVj2uFrZkVHB/F96P0vr3pVW672d1bxnNcel2v27ZDyPRGNm6fNBvWeH0vW59T0A21fN+Z3NXzt0eb+0FQDYfrp8D5yN8w2QAAAAAAAAAAAAQHMEQAIAAAAAAAAAAADNEQAJAAAAAAAAAAAANEcAJAAAAAAAAAAAANAcAZAAAAAAAAAAAABAcwRAAgAAAAAAAAAAAM0RAAkAAAAAAAAAAAA0Z6brCgBrG6fhxHkHaVSUDkyvYRqnvhoXfC5jVPiZjtyYW1Kv0vwlcwHANGp5TK65vo/Oa5BJHxSuDaI5OLf2KL2fNZWuLWC7q92/S/poNB5Hde/r+j4qu3wuGU+cv3SuAYCWtfp+TO19SfueALC99tehNq0TAAAAAAAAAAAAaI4ASAAAAAAAAAAAAKA5AiABAAAAAAAAAACA5giABAAAAAAAAAAAAJojABIAAAAAAAAAAABojgBIAAAAAAAAAAAAoDkCIAEAAAAAAAAAAIDmzHRdAWBtgzSaOO84DauVDWxfgzTurPxx8JmNYVC3UcFnPqLzjupWosvxuvR+12wv5jGYXvE6tu5c1Fc1x+TSMTWag7frPZtW0Zoqag9d1a3LevXZtPbPqJ1u17Wk9T0AdPMcG6UDAFDXtO6BsZpvgAQAAAAAAAAAAACaIwASAAAAAAAAAAAAaI4ASAAAAAAAAAAAAKA5AiABAAAAAAAAAACA5giABAAAAAAAAAAAAJojABIAAAAAAAAAAABozkzXFQDWNk7DddMGaZTNG6Vvx2u2na8LtGJc8LmMUcXPdET1Kqn3RsaumuPaII07yRuXbbyGaVYy7m1X0VwTjcklc1XpmJw7ds25pM9K1y3DitettG65/KX1LqlblLfP17Rm3fqsdI1dMg+VHLtmvaeZ/RyAjfM8BQBAznbdm+hyr3m77nP3zfZs+QAAAAAAAAAAAEDTBEACAAAAAAAAAAAAzREACQAAAAAAAAAAADRHACQAAAAAAAAAAADQHAGQAAAAAAAAAAAAQHMEQAIAAAAAAAAAAADNEQAJAAAAAAAAAAAANGem6woAaxukUddVaI5rBikN07go/6Awf61jjws/szFOwyC93mdComP3teyoLZRes/z9rndewHQrGZtqzzXbVW5tEl3zmuuS0vs96vDzpF0ee1rrPa11i54NprUPlq79y+aSYW/3RErvd7ftxRwLsB30dX/fPAQAbBc13y9tWZfvn7NxWi8AAAAAAAAAAADQHAGQAAAAAAAAAAAAQHMEQAIAAAAAAAAAAADNEQAJAAAAAAAAAAAANEcAJAAAAAAAAAAAANAcAZAAAAAAAAAAAABAcwRAAgAAAAAAAAAAAM2Z6boCwNrGabhu2iCNqpW9GeUDsPExteZ4P0jjTvK2PJcMC8+7xMhnk5prD+7ZtI25+fs97vH9jupeNh+MivpJ7thdjrmlxx4UtIc+tyX6p6T/dtnHWp5jW50Pas4FLa/vt6s+9zHW5lmU7SB6XyJKh43q63qNOkrXubn2Ulo2AJuny/c8aYMVIAAAAAAAAAAAANAcAZAAAAAAAAAAAABAcwRAAgAAAAAAAAAAAM0RAAkAAAAAAAAAAAA0RwAkAAAAAAAAAAAA0BwBkAAAAAAAAAAAAEBzBEACAAAAAAAAAAAAzZnpugLA0RunYTZ9kEZF6UB/DdO4KP+gMH9N48znMkbBZzaicTFXdkm9NnLsSHRuXc4XZcceNNkWS9tSdF65/H29JttZaf9m85WM56X5+zzeR+uDkvF+EM6Dkx87yhspGTdL21KX95vtJWpLuf5f2s677GMl6/94/V46lww76/v5+1137R/NB/m81rlbzTq2PUtpduJ+1OrzN1Cu9nMNm6/Ve9bnuaTmNW31frV+T4HU2XueLTOuMb2tGwAAAAAAAAAAAJhaAiABAAAAAAAAAACA5giABAAAAAAAAAAAAJojABIAAAAAAAAAAABojgBIAAAAAAAAAAAAoDkCIAEAAAAAAAAAAIDmzHRdAWBtgzSaOO84DTs7NkANwzSuWv644DMh0ZgZjckl51Y6Xg8yx86lbee5pPyaT+d1ga1S2odK1snjYFyM5pIu+3+X4/2w4Ng15//Sskfh/R5XWXew/ZT00dpr6JJjR32oy2ta89mgy/Oyvod+K+lj+iebqfS9hVb1dY3e13q1bru28z5fM3PZ0Std37c6vpSeN9BfXfZv89B0aHNmAwAAAAAAAAAAALY1AZAAAAAAAAAAAABAcwRAAgAAAAAAAAAAAM0RAAkAAAAAAAAAAAA0RwAkAAAAAAAAAAAA0BwBkAAAAAAAAAAAAEBzBEACAAAAAAAAAAAAzZnpugLA2sZpuG7aII2yeaN0oN+GaTxx3kFB3j4bBZ/ZyI2Zd6YPJk6PyqZ/1y2aB93T6eJ+czSi+aBW3j63xei8Wl5b5NZU0dqiVGl7ySmpe8k6cyNqX9euzq3La17SR0vvR1T3kvKj8ypZ/5es/Vte59Ycd+Do2mI/1zxMrq97zdra1mt5rmm17i238y6fDWhPn59z+7vn2d8+VnMvqcvzbnmPjLaU71v0d3zoqg/29ZmGzTWdLR8AAAAAAAAAAACYagIgAQAAAAAAAAAAgOYIgAQAAAAAAAAAAACaIwASAAAAAAAAAAAAaI4ASAAAAAAAAAAAAKA5AiABAAAAAAAAAACA5giABAAAAAAAAAAAAJoz03UFgLUN0mjdtHEaTpwX6N4wjSfOOyjIW3rsyMjnKjb9ukT3q+Z8MA7qXdoWa4quC9PF/WYa2mLpHFoyX/T52aF0LrI2OfprUnOt2GfayuZfl6j/9pnxHGLW4NuL+92WtufgwVS28y7Xmi23h+72RNsd87brerC0nfd1n7v2s0VNfX4fu+R+93lM7Ws7pj2l82C3/XvU2Zhpb7Ef3AUAAAAAAAAAAACgOQIgAQAAAAAAAAAAgOYIgAQAAAAAAAAAAACaIwASAAAAAAAAAAAAaI4ASAAAAAAAAAAAAKA5AiABAAAAAAAAAACA5sx0XQHg6A3SKJs+TsOi/EBdo+DzB8M0XjdtHOQdZPKWHjvKG4nqnis/GteisruUu6aR0vE6ag9R+rTOJSXtvOR+Rkr7GP2739N6T6Pr0ufzzo1d8Ro6f97jMH1QbX0fyZVfMhfUFtUtaos156rontRcUw2K2lrd+50rv3S9VrPuJdd0I/lbXUtGSsamLtfvpfcrd961x6Vc3UvPa7uu71tWMj6UroOn+bp2peSau191lK7Ba6k9h5aUX/OajbbpeXepz/ut01z3kjXdtLbF2uvYVttL6XtBbL2aewd9bsdd7j2WXJc+369W1y1dtoWa7+1F5RuPt44rDQAAAAAAAAAAADRHACQAAAAAAAAAAADQHAGQAAAAAAAAAAAAQHMEQAIAAAAAAAAAAADNEQAJAAAAAAAAAAAANEcAJAAAAAAAAAAAANAcAZAAAAAAAAAAAABAc2a6rgCwtnEaTpx3kEbNHhumwTCNi/IPCvKXHntajYPPfOTGvVGPPy8SjbnReZeIyi5px7WVzHMleaf5mvZZX+93y1q+LiXjYslcEqk91+TKL1+35OeiQebY4+DYs2mxcNzs5xwe1btme+jzuqblupfUreb6vfY1KxlTF9NsUdm59NJ5qss+GLWH3LnF4/F4ateiLa9NStR9Ntme17SmqI8tFZRdkre0f5eOHTX3LbpUdz+mbv8smQdbPu++tsU+r4H7rOU98pptsc/rub6OD31+z7Ov4xb91GX/365ttcvzbnVcjNppdOyS+b+0j+Tud1Qv673N40oCAAAAAAAAAAAAzREACQAAAAAAAAAAADRHACQAAAAAAAAAAADQHAGQAAAAAAAAAAAAQHMEQAIAAAAAAAAAAADNEQAJAAAAAAAAAAAANEcAJAAAAAAAAAAAANCcma4rAKxtkEYT5x2nYVHZJccuVVp36INR8PmCYRpvWV0oF92vmvc7Hq/L2lJJfuPx5nNNodt+Fq9D82PmOEwfTNz/o7qV6HKuKT12zTm2VO6eRfUeFH5WNdfWIqX3u1a9prlupc8GNdtyNPbk6h6tkWvWOx6vu/s8eOl558fU/rYlYHr7WOk6ts/ze82yS9b3o+JjT56/9Lmk5Nil5x2p+cw1rWqOa33eP685bm3v+WA650m2fo6O+mjt+aS/fbDL5+A2x80ur1mXx55Wtdthrnz3c+u40gAAAAAAAAAAAEBzBEACAAAAAAAAAAAAzREACQAAAAAAAAAAADRHACQAAAAAAAAAAADQHAGQAAAAAAAAAAAAQHMEQAIAAAAAAAAAAADNEQAJAAAAAAAAAAAANGem6woAaxun4bppgzTK5o3Sc2VvJH9NXR6btgzTuCj/qOJnAErr1qWS6zIO8kZl58amqOw4fdhZe4jKbrW99HkuaVXpNY3y1+R+0xc1+0E015SV3d081aV4XCs779wc2+WY2e+22N+21mrdBpXXel225dzYVHq/Stf/rY65JWuq6JpEbbG0LVkP0gctz+/bVZ/XNSXtadThPFZ63vn5fbht13slaq8Hu5qfu9zTrHlN+7ymiddzg97Wrct+sF1N65ja5XmXtmP7e1uvr2NPl+vULq95PFeMitYeJfe7z3EHbJy7AAAAAAAAAAAAADRHACQAAAAAAAAAAADQHAGQAAAAAAAAAAAAQHMEQAIAAAAAAAAAAADNEQAJAAAAAAAAAAAANEcAJAAAAAAAAAAAANCcma4rAGy9QRp1XQUoNuowhn+YxkX5B0H+0vJL5I7d5TVnbePgnkRtLZc/yhsZp2FRftq6pn2uG2zWmFo7f1e6nN+X0mzwLxarHbvL9RZMy/iQG/eivFH/j8bUkrVHy881Jev30meHiPUg1NXXtWb5Grq78byk7lG9S69L7txKx9uabanLdlo6j3VVdu33a0qee/p83rXrVqKve/vU0edniz73k77q63qr9bbY5VxSck/Ln5HrrTU5eubI7WF7joQAAAAAAAAAAABA0wRAAgAAAAAAAAAAAM0RAAkAAAAAAAAAAAA0RwAkAAAAAAAAAAAA0BwBkAAAAAAAAAAAAEBzBEACAAAAAAAAAAAAzREACQAAAAAAAAAAADRnpusKAGsbpNHEecdp2NmxYTMN03jivCMx/r27btHYNM4cO5e2kbL73I5zY+6goA9sJL/xfmvHpdr9M6qbcbFf97Pre5I799K2FulrWywdE0vmudK61ZwHS69Lbi6K5ql4Dp08f+05MFe3qC2U3u++9rFpVrOtRe28ZGzp0rjjObiW2vc7P6ZO79q+5t5An9fQfX72YOvl+njtPZHcXFN7nippi6V7Sbn8Ub1K70nJHtm0qr1Hls876mw8Lz/vUWfH7nrPJWea101srmg873M7b1WX69DScW+7qnnPoj5WsuaK99+6e7+05jXvctyKrnnNveBI6X5s7tjbdf3eBVcaAAAAAAAAAAAAaI4ASAAAAAAAAAAAAKA5AiABAAAAAAAAAACA5giABAAAAAAAAAAAAJojABIAAAAAAAAAAABojgBIAAAAAAAAAAAAoDkCIAEAAAAAAAAAAIDmzHRdAWBt4zRcN22QRtm8UXqubNguhmlcrexBUHbNY9c0Dj43MQrSxwXp0bgVHTsS1a3kfpfWreTYJedFe3Non+vWV9v5mpWc+3a9bqVjarvz3KCzdc1imi187hn38rxK+1DpmovpUtKeSttSLn9Ur5Jng6j82n0ktwYfdTq2DIqeHfqs5tqjz+uaPtdtu+rrHFu+Tq23Fi0Zz6P88Xhfdy6qlbf2XlKkZK6K5ppB1bJHHZ5X/tgl5dfeRy6tey19Xrf0uW7Tqsv5t/R+93Xt0Od1bO1xr8s5lq2/X7n21OXzVp/bYRyHUm+9V1P5ek38TQv627MAAAAAAAAAAAAA1iEAEgAAAAAAAAAAAGiOAEgAAAAAAAAAAACgOQIgAQAAAAAAAAAAgOYIgAQAAAAAAAAAAACaIwASAAAAAAAAAAAAaI4ASAAAAAAAAAAAAKA5M11XADh64zTMpg/SqCgdtsowjSfOOyqM4Y/yl9Stpqj/RuMDR29Q2BaitpS7p6XHLs3P1jI/929cm+Z7kruu2/W8Wx5To3VNl3Wv2Ye7bKslx+5zHxtX/JxsaTvsc91y673a9ztXfpdzaHS/4vSaY0e9MbFk7X9n+ri343mfx64u99haZe9gMrk+WDpPleSP7ueo4pgc5Y2Pna97rvzSuaZ0b7FmHysZe0r3NHPtvHSeis4rv6aqO8dOWq+NHLtE7bnf2mK69PU9jY3Ijcl9bivxWrLePan5jNyy6J502U9y7TyqV811S5dK2/Ggx9etyz7a133seE017u2ajDZM50gJAAAAAAAAAAAATDUBkAAAAAAAAAAAAEBzBEACAAAAAAAAAAAAzREACQAAAAAAAAAAADRHACQAAAAAAAAAAADQHAGQAAAAAAAAAAAAQHNmuq4AsLZBGq2bNk7DbN4oPVc2bKZhGjdZdmQQHLtm3aL+HRkFn30YZ9LjvNHYVJa/RHTsaW2LcX7zAf2nndaxXa9rzfOO1+DdzRc50fxe85pH16TLa1baVvpa95rrrT6vmUrrVtIeareF3Do3qnfN/l//vIe9bKvRNa857m3Xub3Udr1u03reXc5ztfclcudWstcTlb1sMfM2UvleUHf7VH3ug7m5qHQuidNHBWumsjVVLn/pWrJ0jq6Vt3RMbnlfcrvq8p7Vfv5vtT2VzNE172d0v7rc46p5P0vXTNGxa75XFF23kvZS2tb63P+7UrMt1F6LRv2/5NzK90Sn81mTNhjpAAAAAAAAAAAAgOYIgAQAAAAAAAAAAACaIwASAAAAAAAAAAAAaI4ASAAAAAAAAAAAAKA5AiABAAAAAAAAAACA5giABAAAAAAAAAAAAJojABIAAAAAAAAAAABozkzXFQCO3iCNqpY/TsNOj8/0GAVx9sM0LspfUnZkkMlfXvaoWv+sKTr2uOLnKqK2UPPYpWWXtpeSuuXacdftCWDalMwXUd5ovC5ZM5XOc/FcNJh4jozWTLmy76zb+uXPpsVs3sU0m02P6p67Z10+z7W8puqz3D0t72OTr9dK73fUD3L5a49r09yeYLvr81xUc44t2XMpGa9L00uPHelyvM/tqUT7LdF6L1pLzqSlaseezZQd5Y+OXb6+n3wPrfS6dLXPXPvYEe/1sB1Ec3RJH60p3tuvN0fWfO+udFwqfU8jd137/JxZet4155OS9tDX/rcZ17zbdWyb83vpWrKvYypbx10EAAAAAAAAAAAAmiMAEgAAAAAAAAAAAGiOAEgAAAAAAAAAAACgOQIgAQAAAAAAAAAAgOYIgAQAAAAAAAAAAACaIwASAAAAAAAAAAAAaI4ASAAAAAAAAAAAAKA5M11XAFjbOA0nzjtIo6Jjl+YvOa+ax2bzDdO46ypwN6PCzzaU5p9Gg6CdR/0gGtei8mvlrS0679x8UJK39rEBWpSb3/s8l7QsN5/0+ZpH65pW14qlzy0113Nd7h20rMtrnmtPpW2l7NnAOpbNs13Hlui8c/PgOJgjl9LsxGVH+aNjLwZvA0XnnSs/OnbNtUO8H1Oavv64OpuWisqeSYvZ9Fz50Xgf123yuarkmtVes5WuDcqOPZrKdc006/K5Jho3a+rzerHm2qPLdl6zrfV5b6FV5e9LjHvb/2v2v2ndS4r09X722TSPW9PazlvjLgAAAAAAAAAAAADNEQAJAAAAAAAAAAAANEcAJAAAAAAAAAAAANAcAZAAAAAAAAAAAABAcwRAAgAAAAAAAAAAAM0RAAkAAAAAAAAAAAA0Z6brCgBrG6TRxHnHadjZsbssm+kzTONqZQ+CskuOXdrOS/twvuzBxMeO805e9rJRJn9Udu320N2YOZ7aMbekbqXn1efrAnQnmvtz81TLY0t0XrTYFuutobtsa12uz0uuaen9ZOtF9yzXnqK2EqfXm0u0RY5G1BZL9i1Kn+9z+Uv2HaKyly2l2YnLzuW9Mz3/Vk2u/Kjs6Ly67P/xmDueeEydTYvZ9Jm0NPGx47Lz6bPhsbuba3L3pHSdOa3ruVJ9Xb/XVnu/t69K7vc0X7Mu91Rqvh9Tc/zocv6uOW5F7bzLa9rq3l/XfWha+8F2tX3XLfXmCjaPEQEAAAAAAAAAAABojgBIAAAAAAAAAAAAoDkCIAEAAAAAAAAAAIDmCIAEAAAAAAAAAAAAmiMAEgAAAAAAAAAAAGiOAEgAAAAAAAAAAACgOQIgAQAAAAAAAAAAgObMdF0BYG3jNFw3bZBG2bxReq5suLthGlcrexTE4ZccexDkLSs738f6LLrmOeMgbzS2RMeOyi85djwuDiZuS6XHnrRem1E3APoxZsZzbL05uGT+LZ0H43mubK1YMgfHa4f8sWcnPnL5PemyH9Rsa5Fce6i5VozU7mOLma29eP2dL3sp2DbM5a+59o+O3fLzWk2eDbaX2mNuzef3kvFjKZiBo7Kj/LlxcbEgb2ndSvZ6SkXrsZm0WLSvkcs/m5aCvPn02aBuJceO5qKZgvzxGrhsTzR37KjsSM293jj/9lwf9Pk5t0SX415tXT4P9lXN/ffNyN9VH6z53l2XfbR0vC/pY6XXNDrv7ToX1exD0T2b5vmCo2N+3R7cZQAAAAAAAAAAAKA5AiABAAAAAAAAAACA5giABAAAAAAAAAAAAJojABIAAAAAAAAAAABojgBIAAAAAAAAAAAAoDkCIAEAAAAAAAAAAIDmCIAEAAAAAAAAAAAAmjPTdQWAozdOw2z6II2K0tlehmm8LY8d6Ws/GQWfXRiH6cOi/NN6vwaZthi103jMjfL3tx/0VXTNS+dJgBpyY1PpXDEO8w8mHjOjtUeJlufAmnXv8rrEba27tWLJmqzPba30mubOrWb/7bqtldzvmuv72m3NOnZ7iebovo7nUb0Xg7ckSvIvpdls3qXg2IsF+aMxN6pb6X5PTvm4uH76XJrP5p1Ji9n02bSUTd+ZKT/KGx87nz6TKT8aj6O61VzXlNzPSHTepXu9fV2zlY6ZNddkJXNFXHZ/15Jd2q7XpWZbm+a6bVfRfNDls2rJXBP1/5J5MLompc+CJfuS8fN5d/P3tPb/QcV9i5prxdpqvvdXukee6yd93p+bNq40AAAAAAAAAAAA0BwBkAAAAAAAAAAAAEBzBEACAAAAAAAAAAAAzREACQAAAAAAAAAAADRHACQAAAAAAAAAAADQHAGQAAAAAAAAAAAAQHMEQAIAAAAAAAAAAADNmem6AsDaBmk0cd5xGlYrG/pikMbZ9GGQ3mU/iProKPP5hHHw2YVc3o3kz6WX1Htjx86XX3I/o/ZSs+yax2Zts2lx4rYajR2RqB/kyo/yUueedXW/N5K/pOxWlV7TPtfdmL71SubgPutzP+iyD+Tud5/nipb7UMn6vfTYNZ8FS9b3XY71fR4bpnl+76vo+TuylGar7VtEZS8G6UuZtzTm09zEeTdy7MVM/pL9lvK9g3ze2bSUTZ9L89n0mcwz9lxaqFZ2lH8mOK9ob6BkbzEa76NrHimZa+J5sF5ba3ncK8lfOleUrKlKz3ta58ia16XmGnia7wlMg9J5MDc2dflMFMcV1Ktb6Rq5yzG55nUp3bcoWcfGeyJla9GaStpD6XvcOZ/Yt++o89zynVsmPt52ZiUEAAAAAAAAAAAANEcAJAAAAAAAAAAAANAcAZAAAAAAAAAAAABAcwRAAgAAAAAAAAAAAM0RAAkAAAAAAAAAAAA0RwAkAAAAAAAAAAAA0JyZrisAbL5BGlUtf5yGnR2bexqmcZpWg8y51T7v3LEj4w4/X5Drn6X5R8F5ReddWreaZefud816U0fJPYvylvbvpdSdknGtz/rcR/s87rVq+5532Rycs5hmq5Vdvx/knz1ya5doLRk910TnNZsWM2Xnr2lUt+i8a473Xa73+ix3XaJrUrrGzvXhpWDbr2bdareFXB+NrlnUB3P9Nyo/Krtu/2y3/9WdK8ruSc3n+5pzbNR/lwrn/5KxZzFIX0hzEx87Kns+KLvmmitqa1F6bmyaDZ4059J8UfrOtFCt7JlgzJ0pOO/S9V7unkTHjsqO6zb5fFE613S5lqyVdyP5o3Gz7n5svbmm7Lzq7nF3uXYpuS6lunzvADZL6Rq6y33q/PPceFv2727jCkrbUndxCSXzWMk6tHSdO1N5Hdul3Pz+iX37Js7bcv/ebtwlAAAAAAAAAAAAoDkCIAEAAAAAAAAAAIDmCIAEAAAAAAAAAAAAmiMAEgAAAAAAAAAAAGiOAEgAAAAAAAAAAACgOQIgAQAAAAAAAAAAgOYIgAQAAAAAAAAAAACaM9N1BYC1jdNw4ryDNNrUumx1+dCHdjou+IxASf+Njj0K6hXVu+S8Wr6fgzTOps+mxYnzlh6bttqTORDoo2iuyc3/uTlwI+uaaG3S5XkPC+bgqOyS+WBYWHbJeZe0lajsZaMO1z0173eXa+jo2Ln2MgifDYbVrmltuXtWu4+VrO+tJdtTcr9Lx46SOXgpzWbzLgZvC0T5lzL559NcNm+UHtdt/fTFoN6l9yTXHkr2HZbNpYUgfX7dtN3pYDbvzkzejeTPHXsmOK/ZtBSkL1Yc78vmg1zda+8VdTlflOxr1tyXjPKWPpfUPO+SutWeS7p81mt1nzrS5TMy06X0eSxqiyXll49N/ewnfa3XZsjd79rjVm5dU/p+apdK9xZySvc1ZrLr2Hze0jV2Sdn79u1LfX1/nTa4iwAAAAAAAAAAAEBzBEACAAAAAAAAAAAAzfET2GzYN7/5zfSlL30pffe7300LCwvpxBNPTGeffXY677zz0q5du7quXhqNRunyyy9PV1xxRbr++uvT4uJiOvbYY9Npp52WHvrQh67UdTAQ8wsAAAAAAAAAADANBEASuuiii9JrX/va9JWvfGXN9OUgwxe84AXp1a9+dTr55JO3vH7f+ta30pvf/Ob0wQ9+MO3fv3/df3fcccel888/P73kJS9JT37yk7e0jgAAAAAAAAAAAGwuX4fHuubn59Pzn//89IxnPGPd4Mdlt99+e3r729+ezjnnnPRXf/VXW1a/8Xic3vCGN6x8u+O73vWubPDjsltvvTV99KMfTe973/u2rI4AAAAAAAAAAADU4RsgWTe48DnPec5KwOBdDYfDdMYZZ6Tjjz9+5ZsXb7nlliNpN9xwQ3rSk56ULrnkkvTIRz6yav2Wf976ec97Xvrwhz98j7Tluv3Ij/zIyjc+3nbbbek73/lOuuOOO6rWBwAAAAAAAAAAgK3lGyBZ0/JPSt89+PFXf/VX0zXXXJOuvvrq9NWvfjXdfPPN6SMf+chKQOQPLQcaPvvZz14VGFnDi170olXBjzMzM+nXfu3X0pe+9KX0gx/8IF155ZXpi1/8YrriiitWgiCXX//H//gf03nnnZd27NhRtW4AAAAAAAAAAADU5xsguYebbropvf71r1/1t+Wfmv6N3/iNVX8bDAYrP4/98Ic/PP3kT/5k+va3v73y9+9+97vprW99a7rwwgur1O/9739/+tM//dMjr0899dT0yU9+Mv3Tf/pP1/z3y/U8++yzV/57+ctfvhIg2bpBGhXlH6dh1fLZfMM0TtNoEJxX7rxL22l07Jxx4ecHRkH+XHrUf6O6Rfnzxy4ru69tqfax4/z9HHOnddwBaFE0Jkdri5J5bBzOB7OpRX2dfzejPZSsTWbSYuGz5LjJ+13zvEqfHfp8XbpsC7l+ELXjmut3a+jpU/IMXvoMvRhs3efyz6e5bN6loOwo/3zaWe3Yi8HaInddozVR6Rw6l+YzaQvZvLvTwWrpu1P+1492Zuq9bFdQ99y4OpuWiuaaknsS3a84ffK6dbnmicaWqB/UHdfq1q3k2JGSZ6qae6Yl9ep6rVq77jDtaveh7dpHp/WZreR+1r4mrba10vVeyXvcNde50f3+5L6PFR27RM31XJ/359g87jL38KY3vWnlWxN/6DGPeUx65Stfue6/v9/97pfe8573rPrb2972tpVAys124403pn/zb/7Nqp+7/tznPrdu8ONaTjzxxE2vFwAAAAAAAAAAAFtLACSrjMfj9N73vnfV317zmteEPxv9+Mc/Pj360Y8+8no5gPJDH/rQptdv+Zspl4Mgf+g//If/kB784Adv+nEAAAAAAAAAAADoNwGQrHLppZemG2644cjrBz7wgelxj3vchvK+6EUvWvX6oosu2tS6zc/Pp/e9731HXt/3vvdNv/Irv7KpxwAAAAAAAAAAAKANAiBZ5ROf+MSq1z/1Uz8VfvvjXf/tXX32s59NBw4c2LS6/fmf/3m6+eabj7x+7nOfm4bD4aaVDwAAAAAAAAAAQDsEQLLK3/zN36x6fd55520476mnnprOPPPMI68XFhbSFVdcUS048/zzz9+0sgEAAAAAAAAAAGiLAEhWufLKK1e9Puecc44q/93//d3LK3HZZZetev2jP/qjK/87Go3SJz/5yZVvhDzrrLPSnj170gknnJD+0T/6R+nZz352eu9735vuuOOOTasHAAAAAAAAAAAA3ZvpugL0x8GDB9M111yz6m+nn376UZVx93//jW98Y1Pqdsstt6S//du/PfJ6+aev73//+6err746Pf/5z09f+MIX1sxz1VVXpQ9/+MPpt3/7t9Pv//7vp1/4hV/YlPoAAAAAAAAAAADQLQGQHHHjjTemw4cPH3k9OzubTjnllKMq4373u9+q19dff/2m1G050PGuddu7d+/Kz2sv/0T3cqBj5Hvf+176xV/8xfT1r399JRBysyyf3w033HBUeZaDMjdikEYT1iqlcRpWK5s6hmmcptEgOK/ovEvaanTsLo0LvoA5yhv1/1GYfzBx2aV1z92z0mOX9LGS+9Wy2vcboIv5vcuxqaTupfUuW3vk54PFYFuhZD4pPe/cNY/WmdH9WkqzQf71y19MS9m8s2mx2vNe3A5nmn2uya9zy86rZA0e9ZHFoC0tFfSxkrV/VPZG8tcdz0ueFcv2RAaZ816a4nmsSzXPu+YzdDRXlPb/+TSXSds5cd7SY8fnNVt0zXNzTdS/h2m+aA6eSwvrpu1OB7N596QD2fTdKf8LRrny54LzitJng9ErN3ZF1ywa90rS4/tdduwux7VcPyidn6P+XfPYkaj/1zx2yXPLqPjYg86ODUzv/nzN95lLj11SfunznHFz669JaXuqpfYeVsn+3MX7PpZNj9bg+WemaI3czzXwZpTP9BMAyRG33377qtfHHHNM2rFjx1GVsfzz07kyJ7V///5Vr5frdcEFFxwJflyu68///M+nxzzmMemkk05KN910U/rc5z6XPvCBD6x8s+UPvfGNb1wJ0nzZy162KfV65zvfmS688MJNKQsAAAAAAAAAAICNEwDJusGKu3btOuoydu/enS1zswIgf/CDH6z8t+zHf/zH00c+8pF0xhlnrPo3yz93vfzT10972tPS1772tSN///Vf//X0xCc+MT3kIQ/ZlLoBAAAAAAAAAACw9XwHKEccOnRo1eudO/M/lbKWubnVP39y129fLLFeIOVpp52WPv3pT98j+PGHzjzzzPSZz3wm3fe+9z3yt/n5+fSWt7xlU+oFAAAAAAAAAABAN3wDJOt+4+PCwsJRl7EcXJgrc1LrlfPmN785nXjiidm8J598cvr93//99IIXvODI3/70T/80/cEf/ME9vrHyaL30pS9NP/uzP3tUea666qr09Kc/vei4AAAAAAAAAAAA250ASI449thjs98IuRF3/8bHu5c5qbXKude97pWe+cxnbij/c57znPTyl7883XLLLUfO7Utf+lJ67GMfW1SvU045ZeU/AAAAAAAAAAAAtpafwGbdIMM77rgjHT58+KjKOHDgQLbMzarbskc+8pFpdnZ2w98g+fCHP3zV37785S9vSt0AAAAAAAAAAADYer4BklU/Fb1jx44jQY+Li4vp+uuvT/e5z302XMa111676vVmfTviWnV4yEMeclRlnHXWWenTn/70kdfL59Zn4zScOO8gjTa1LrCeQRpn04dBeklbjY5dapz5jEDUP0fB5wui9Fz5uXr13aCgPdRua7nya7e1adXqdTOHwnRrtY/XrHe0rhkXzrG58uM1Ub11T7dri8nzluaPz6vs2FH5NeXaU9zOa7a1QeH97O/6v+bzXEkfjNtxvefU2vpctxJRH43uWf75vawPRfmX0vofzl7MpC1bSDuz6fNpbuL0+YplR+cdze9R/55Ni9n0uTQ/UdqyPWn1h/fv7tggPZd/dzoY5L09mx7VfS4tTHzNZtJStXGxfG1R79h9XlvU3BtcCt7263JfsmT9X/J+SemxS8uuqfS6TOvaoqbSsafL9kJbuuyfpccuHZu6KrvL61r7vLrcW8znLZufa163i/d9rCj/TGaNPgzux2zxnkl3+3O5e9blXjDbgxbEEbt3705nnHHGqr9dc801R1XG3f/92WefvSl1e9CDHpR27ly9cXfccccdVRl3//c/+MEPNqVuAAAAAAAAAAAAbD0BkGQDFq+44oqjyn/llVdmy5vUcDi8xzc+zs/nPxV7d4cOHVr1+phjjtmUugEAAAAAAAAAALD1BECyyrnnnrvq9aWXXrrhvNddd1369re/feT17OxsOuecczatbg972MNWvf7+979/VPnv/pPXJ5100qbUCwAAAAAAAAAAgK0nAJJVLrjgglWvL7nkknT48OEN5f3Upz616vX555+fjj322E2r21Of+tRVry+//PKjyn/3f3/WWWdtSr0AAAAAAAAAAADYegIgWeW8885LJ5988pHXV199dfrsZz+7obx/9Ed/tOr10572tE2t20//9E+nXbt2HXn9ta99Lf3d3/3dhvJ+/etfv8fPcz/ucY/b1PoBAAAAAAAAAACwdQRAsspgMEgveMELVv3twgsvDL8F8jOf+Uz6/Oc/f+T13r1707Of/exNrduePXvS85///FV/e93rXrehvL/3e7+36vVjH/vYdMopp2xq/QAAAAAAAAAAANg6AiC5h1e+8pWrfrr6c5/7XHrjG9+47r+/9tpr04tf/OJVf3v5y1++6psk17Jjx45V/23kmyZf/epXr/oWyPe9733pj//4j7N53vnOd6YPfehDq/72m7/5m+GxAAAAAAAAAAAA6K+ZritA/ywHLr7qVa9a+e+uAYPXXHNN+u3f/u106qmnrvxtPB6nj33sYyvBjstpP7Sc/opXvKJK3U477bSVAM3lb6X8oeXgy6985Ssrfz/99NOP/H25Tm94wxvSu9/97lVl/NzP/Vx64hOfmFo2SKOuqzCVhmmcTR8VxIxHZffZIFP36LxK22ru2KXGwf0cp+HEbWExmF5zZS9byuRfTLPVzisSld3l/Sw9dknduhyTWx5bauqyrXWptI9Oq1bbQ+372ep1YfPbU+kaOFpbjLPl59c1Lc+hJWvo0rrl8sdrovy6ZjYtBfknP3bpuDjIpC+m/vaxcXF6m8+p0bFngruWb2tl6/P4OXc659Caa49oLonuWdlz7LDo+X0pmKvm01wmbWc270Imb1T2sjvS7omPHZ1XdN1y9zTqQzvToWz6XFrIph+bDqybtifdns17XLotmx7l35M59jHpYDbv7iB9JphjZzPjYpQ36mMlY3LpmFiSP94DGxT1g5KyS8eWXPnRsaMxNzp2Ln/pvmP8bDGosjdfOpd0Keq/3itqT5/3c0v7GTD5XBTveYx7Ow+WrslK6r1v376Jyy7dI4vy59bvtfcdcnUvbQsla1HvYVGbAEjWtBxMeOmll66aNN71rnelP/zDP0z3v//90/HHH5++9a1vpf3796/Kt3v37pVvWzzhhBOq1e13fud30uWXX36kbss/z/2Od7xj5ZseH/CAB6STTjop3XTTTenqq6++R96HPexhK+cAAAAAAAAAAABA24TYsqbBYJA+/OEPp+c+97mr/j4ajVYCC7/61a/eI/hxOfDw4osvTo961KOq1m04HKY/+7M/S7/0S7+06u/LgZDLdbvsssvWDH586lOfuvJz3nf9eW8AAAAAAAAAAADaJACSde3atSt98IMfXAk2PPfcc9f9d3v27EkvfelL0xVXXJEe97jHbUnd5ubm0p/8yZ+kT37yk9mAyx07dqR//s//efr4xz+ePvrRjwp+BAAAAAAAAAAAmBJ+ApvQM5/5zJX/rrrqqvTFL34xXXvttWlhYWHlZ64f+tCHrgQgLgdLHq3lb2ws9dM//dMr/y3X6Qtf+EL6zne+kw4dOpROPPHE9CM/8iMrdTvllFOKjwMAAAAAAAAAAEC/CIBkwx784Aev/NdH97vf/dKznvWsrqsBAAAAAAAAAADAFvET2AAAAAAAAAAAAEBzBEACAAAAAAAAAAAAzfET2NBTgzSqVvY4DXtbty6NCmLCh2m8qXXZLgaNXrdx4ecHovylfbTLc+urmufV5TVb6uzItNheWh1zgb6va4YTr7GX0myz65JoTJ1Ji+umLaS5ifNu5NizmfyzweohOnZ0v3PPiqXPTNHzWq5ui8H2V9QWo/yLmfxRO46OPSrI33Ifis47155K9yy265qp5nwQ99+yZ+RcH4362HzamU2Pxuz5TPodaXc278EgPVf2St0W108fj/LXdBSkD4fBPDe7/nwyO7wjmzeai45NB7Lpx6Vb103bm27L5t2Tbs+m704Hs+nHZNLn0nzR2NLlfmvJuBf136jspWCO7XJ+z+WP6l0yf0f5S8fM0jG5rOzhVO6ZRP231fcOSt4voY6W70mX73mUmNb3Q/t8P6Nr3mpbKp3nStdcNefYj+37ZGfHLpm/oz2wYdAWo2Pn9y3qPhvk+kl0P0rnmj7vRTH9tD4AAAAAAAAAAACgOQIgAQAAAAAAAAAAgOYIgAQAAAAAAAAAAACaIwASAAAAAAAAAAAAaI4ASAAAAAAAAAAAAKA5AiABAAAAAAAAAACA5sx0XQFg6w3SKLVqmMYT5x1t05jvQcE1i6551JZKj11iHNzvcRpm0xczU2TUlpbSbFHdcuWXnlek5j0raS+zaXHivBtJh62Sa4stz8/A9IrWFuNwDh5MvLaP1lw110Wl69ySNXTNus0Ea6rZtBSk5/PPZPKXrsei+71UcYsraou5exLVu3z+X+zw2WFUpY9EZUflx88G07nmKr2fNY0qPp8vW0hz66bNZ9LuTN+ZTT+Ydgf556rkXba0mN9bWFyYfNyb3Zkf73fPHsynpzvWTTsu3ZbNe0Lan03fG+Tfm27NHHv9tGXHpPx57UwLE8+DuTlwI2NPNC7m5vDSPZFhxXFxMdwjm7z/R/tvYR8LxpbcseM18uR7f1H++JqWHbvLuabLfcla70n03XZ9z2Rar1mf14Otck23XsvXPJqDa/rYvosnzlu6rqn5nWulz/cl7zvG+xbd7T2U3LPS/VboM60XAAAAAAAAAAAAaI4ASAAAAAAAAAAAAKA5AiABAAAAAAAAAACA5giABAAAAAAAAAAAAJojABIAAAAAAAAAAABojgBIAAAAAAAAAAAAoDkCIAEAAAAAAAAAAIDmzHRdAWBt4zScOO8gjdK0GlWM2x6mcdqOovPOtadBkLfmNY3aQtSHovy59KjscVD2YpqdOH/psWuK2kOf+2DNcXNax5bS+92qLu9nzTmQOu1hu96zVvvJtI7X9ddcg2plLxWsmUqfqUrXDiXz5ExazKbPpqUgfXHivHNpPqjb0sTXpbSPRe0ld81L1y0119hRO4/qPih4dlg+eomSZ8WonZe0lz4/p9Y0rrwuKRlz47xl88F8msuk7czmPZD2ZNPvSLuz6Qtp1/rHHq1fr2Xjcdk9mdu1sH7aMD+e7053ZNOPS7dl009I+9dNOz6TtmxvujWbfnxw7D3pwMTz2M4gPZonc2NXNPbk5ufNyF9SdtQHc+NH1D9rji2LwdtbXe6Rla6hc3uHpfuOkZrXrWRN1uV7Hl3O77XX0NOq5rNgl+Ln0O76ybRe8+0qmgu263sDkX379k183Urn35rvHUZzSc3n93jvYPL9uWjtH6k55pbez/x73NtzbcD2oHUDAAAAAAAAAAAAzREACQAAAAAAAAAAADRHACQAAAAAAAAAAADQHAGQAAAAAAAAAAAAQHMEQAIAAAAAAAAAAADNEQAJAAAAAAAAAAAANEcAJAAAAAAAAAAAANCcma4rABy9QRqlVg3TOJs+Epd91AbBNY2uedSeovJryrWHcWFbKckf5R2nYbX8pedd0seittSlLttDZKkgb5f9r8trtl31+Zr2uS3CdlDaB7scX3LHjtZMi8GWRemaq6/3cyYtZtNng/SZzOpjMc0XXfPZYGWTq1vtdryYZic+r/k0V5S+lCk/V68788422Y6jexo9Z84G593n59Run1uGEz/rlT7HRv1oIdNP4j62M5t+MO2eOP1gOiafdzFf9vzBoP8fytR9lL+maZhv5zO7FrLpu/ccXDdtZzqUzXtcui2bfkLan00/Md2cKfvWomPvTuuf17K5zFxWe66puZcUifpRybGjuaqsf08+h95Zt5lqa8GStWaUNx6TJ697l2uD2vNvyfseNfctW37Posv3Y6J2vl21/P7etJ63trr1432Xc9m+ffs6u24l5x3tHXT53mB03rn+H+WN9sBK6lZ7XCp5r7f0+R62Kz0DAAAAAAAAAAAAaI4ASAAAAAAAAAAAAKA5AiABAAAAAAAAAACA5giABAAAAAAAAAAAAJojABIAAAAAAAAAAABojgBIAAAAAAAAAAAAoDkCIAEAAAAAAAAAAIDmzHRdAWBtgzTqugpTZ5jGqVWDTN2j84raUq7sjZSfMyqMsx9n8o/TMJt3MZjiorotpdmJ0jZSdpfi9jLurC3lyo/KjtI5+j7G1tPOYfsqXftH66Iux4/csZeCvPkV1/Kaa1xtLdnys16u/JafiWoqfaYq2V7r87N/yfq/9nNqX9dF0fo6qneUP/esGeWNnmMXg/SFtDObPp/m1k07mHZn894RpB9Ie7LpB0fHrF+vQ/l6Lxxav94rRpM/Mw12zWfT53bn0/fuujWbfkLan0m7JZv3XunmIP2mbPpx6bZ10/akA9m8u9PBbPpsWsymz2TSoz4WlR3lzx279hyb66O5/rdsIUiP8uf6cDQ2RGNLtH9Xsp6L9ufKxtxhUdkl80XtObLm2qTVtWhpvUv2isv317t77ulSn9fY06rLa16znU/reXXt4n0fm8r3NOL5f1hlXdLl+4bRGvnO8tfvR7PB7mC87ulvH83d09J1KrA2PQcAAAAAAAAAAABojgBIAAAAAAAAAAAAoDkCIAEAAAAAAAAAAIDmCIAEAAAAAAAAAAAAmiMAEgAAAAAAAAAAAGiOAEgAAAAAAAAAAACgOTNdVwDYXkaFcdfDNE7TaFBwXoM0Kiq75jWNyo7awzgNJ84bpS+l2YnTF4PpM1fvO9PL6t7Xthjd75K2Oigsu8S0jjul97vPpvmeTSNrA7aLmnNVtPboql6l67nSNVPu2FHZcfpw4usar2vy6bNpMZs+l+YzeZeyeWeCsqP8Jeu5SHRP8sceVV3H5vLPBNesZlssfVYsWYPH17S759Saa5Oa41ZkMXjGLa17VP58msuk7czmPZh2T1z2sqXF9Z/Rlxby9R4MgrY6m+/Du/ccXDdtz/D2bN4T0v5s+knp5mz6yenGicuO0vem27Lpu9MdE81Dy3YG6SXjRzRHxvPgUrV1U7QPFfWTkj5SOtfUFN3vcaNjcjTPRWuunNI5tqY+73nWVNJWaq6BS9V+VpxWNdvDtO5L9Nm0nteyffv2pT7qcl0Safm9v9w6OBobojV2vI81+bFL9wZKrnm0fq+5dwBMRs8CAAAAAAAAAAAAmiMAEgAAAAAAAAAAAGiOAEgAAAAAAAAAAACgOQIgAQAAAAAAAAAAgOYIgAQAAAAAAAAAAACaM9PFQYfDYReHbdJ/+S//Jb3whS/suhoAAAAAAAAAAADQK50EQB4+fLiLwzZnx44dXVcBAAAAAAAAAAAAeqmTAMhlgvvyBIkyTpN/U+ogjTa1LpQbpHE2fRik5+5pVHaXRmmQTR8H6bn8Ud6oD5UcOxKVPa1Krlmp6JqX9JOS8Xia9XmumXfPtnxs6vNcRFv9v8sxt8/jWstK7mnpuLWUZidet+Ty1m5rs2mp2jo2eu6Ijj2TFrPpUfk15c47up+LwfZYSXspPXbNcbH0fpY8p/Z57RA/a66fvhjc76jsqL3Mp7lM2s5s3oNpd9X029Ox66YdOpTPO39w/fNaNj6UT0+jgn3mnflxb273gWz6nuHt66adlG7O5j053Rik35BNz5V/fNqfzXtsyp/XrnQwmz6bGT/Kx5ZorlqsNrYshfPBzon77x1BHzqQ9mTTD6ZjMmn5sheC8SE3tkRzVem4F+XP3ZNojizdp8q11Wg9F8+DNZ+pys67bE+0bN3S6p5qzXVN7bbU5fq97H0Fe3+T6PK61dy/77OSce3ifR/r7TVtdbyO+kHN9w1Lla6hc2v03Pp6I8fucq+oZL4ovd8t9wOYVp0FQC4T5Lc2waEAAAAAAAAAAACQJywZAAAAAAAAAAAAaE6n3wB5d9v5mw99GyYAAAAAAAAAAAA0GgApCBAAAAAAAAAAAABoIgBy+VsflwMfl//3ggsuSA972MPSdnThhRceuRYAAAAAAAAAAABAzwMg7+ppT3taeuELX5i2awAkAAAAAAAAAAAAsDGDDf47AAAAAAAAAAAAgN7o1TdAAhszSKPUqmEap2k0CM4rOu/onubK7/KajoI4+nGQvphmg/T1p6lxGmbzLgVTXHTsXN2jY3cpbmv59Jm02Ek7jpTkrS1q59Mq6mNMl6gPttoP+lxv497Wa/m8araXPl+XkrqVnlfN6zIK72d+HZszDsqO1vfDYP7vcuzK3ZP4uWVYdL+XMvek9rFLlJZdsjcRHbusf5c9r40K7nfuGXbZQprLps+H6TvXTTuYdmfzRum3p2Oz6YcOBeXfuieTGDw7rP8YujG5YfHYhWzWvSfclk2/1/CmbPq9043rpp2cSbsz/YZs+olpfzb9+HTLumm70x3ZvLvTwYn3BpbNpqWJ9w6iskv2NUqfW3J9bNkdmX50IOhDt6XjsukH0p6Jx4eo3iX7b9G4t1RYdsk8GK9b6rXFkv21jdStRHRdaorWBtH97vNzcM33a/r6nknpOram8nVsP6/5NGv1mu/bt6+37bz0mtZ81iyp27jyM3RubCsd10rmg9z6emNri9HE5Uf3a7b4gW1yNfdUSt/jBvpHrwUAAAAAAAAAAACaIwASAAAAAAAAAAAAaI4ASAAAAAAAAAAAAKA5AiABAAAAAAAAAACA5nQaALljx45V/4trAgAAAAAAAAAAABsxkzpy+PDhrg7dW64JAAAAAAAAAAAA9DgA8i//8i/X/PtZZ52VtivXBAAAAAAAAAAAAHoeAPnYxz62i8P2mmvC3Q3SqOsq9NIgjddNG6dBmsbzWjbMpEd5S5Vc13EaFpWdy78UTGGLaTabvhSk5+o2Kmxr0XWpOTZE+fNtLZ83aotxej/Hvdw1oU21x83t2BZLx8Xtqq/3tMv72ddrwuRK5vdozRS11ZL1XMl6LTp26Zoo6icl81xpH+xyPZe7Z/mV/2as7+cnLrv0manmmmc2LXbW1kr6d/QsGF3TQcGxh8VtKZ9/Ps1NlLaR9KVR/rotLkQ9KWNn8Ks3u4NnzdmlbPreE29dN+2EtD+b997pxmz6Ken72fT7ZNJPDsqO6rYnHcimH5MOrps2E/Tf2ZS/pmH+xfXzD0b5/j2bLzrtCKaSw5lhczFopgd37S4akxcy/ehg2l3UB+M9skG1MTe4JUVK94pKzitqxyX9JF6Pla2Jcm0xmiOja9ryHnqJ0vV9iZI1du3nlpriNde4yb29qH/3+Z7UVPNZ8GP7Ppm2YzsvPXaXSt77i/J2OS6W7tfk1h6lz9/R+j5X99J9ppJ7VronUrJ3AEwfPR4AAAAAAAAAAABojgBIAAAAAAAAAAAAoDkCIAEAAAAAAAAAAIDmCIAEAAAAAAAAAAAAmiMAEgAAAAAAAAAAAGiOAEgAAAAAAAAAAACgOTNdVwCYLsM0rlr+uGLc9iCoe+7cBmlUrewur8myUab8pTQ7cd6NpOfObZyGE+fdiKhu+WPn69ZnufOO2nnXbbVE7txK2kLrY25fRWNqq6I+0uc+1Kqu21LZXDOYyuvW5zG3z+N5zetWWreSdVGfz6tLpWvsnMWJc9LHMbd0/V6zD46LnxXXH1sW0lw272KwHTof5M+VH+U9mHZn029Pe7LpBzLpBxaPzR/79vyxx4fydU+jHWliO5eyybuPO5BN37vr1mz6vdLN66bdO92YzXtK+n42/T5B+r3SD9ZNOyGTtmxPyp/3XJrPps+m9a/rTDCizy7m78nMQrCPlUneUTb0pKX8VlM6uGfnRH1k2a3puGz6bUF6ro8eCvr3fOHYtJjZg4vyRvt3UXpUfs090Vxbjtp5VHbd/dphZ8+CpfN3q/ua8f785INTvA9d75qV7oHXfH6vec1rK7lnrfaRjdyT3Lnt27cv9VXpHlnZM9e4Wt2ittZlHysdm3JzVZd9bDZYW0Rrj6g95MrPre03cr9L1z1dPb+XrDPvLHt77iUDazMiAAAAAAAAAAAAAM0RAAkAAAAAAAAAAAA0RwAkAAAAAAAAAAAA0BwBkAAAAAAAAAAAAEBzBEACAAAAAAAAAAAAzREACQAAAAAAAAAAADRnJm0jhw4dSn/7t3+brrnmmnTDDTekW265Jc3Pz6eFhYV0+PDhLavH7/7u727ZsQAAAAAAAAAAAGAaTXUA5IEDB9LFF1+c/uIv/iJdeuml6e/+7u+2NNBxPQIg2YhxGk6cd5BGRccepnHqyqjgi2mjeg+C9Dj/qGLZk1/zceGX+S4GU0GuLUZ5F9NsUd2XMvlL6r2RY9dU0kdn01JR2VFbm02LqStd3pMuj10i3xq2r1bv5zQrmeda1u1csz2v+bRe09K2VFL30meLkueaae2/UdnjNFftman0vFq9n6XtuKQPlTxnltat/H4PqrWVqB2XPCvOB31oPu3Mph9MuydOvz3tCfIek00/cCCff+FApm4Hg23eQ/nksCnmL1tKuzJZ9xzMZt2769Zs+r3Tjdn0U9L1mbR/yOa9bybvsuPT/mz6cWn9uu9OB3u7/zYY1Tv2QqYtLJvflW9MB4J+dGs6bt202zJpUd478+/NpufGl0NBJ8mNWxtJzx072iOLyi4Z72eCnYm5NJ9NHwbpJaK5Jkqfz8xltZ/1utwr7uszU7RmKh1Tc+0hOna8Dz2cymteU6vPHbWve3Rd9u3bl/oqGpvK9i3q9YNW30faiFx7is47fp6r9/5cdL+j65Z7j20meH8sev8smoty5dd8HzkS3Y/S93pz7cV7OcBmmsoAyCuvvDK99a1vTR/84AfTwYN3bjT1IfBx2Y4dO7quAgAAAAAAAAAAADRvqgIgb7311vTv/t2/S+9973vTeDxeFfTYh8DDvgRhAgAAAAAAAAAAQOumJgDyy1/+cvqZn/mZdO211x4JNFwr6LGrIMQ+BGACAAAAAAAAAADAtJiKAMhLLrkkPeMZz0gHDhy4R7Chb10EAAAAAAAAAACA6dN8AOT//t//+0jwYy7w0TcwAgAAAAAAAAAAwPRoOgByYWEhPe95z1sV/JgLfPRtkAAAAAAAAAAAADAdmg6AfPvb356uuOKKNYMf7/63448/Pj3lKU9JD3vYw9I555yTHvzgB6e9e/emY489Nu3Zs6ejMwAAAAAAAAAAAAC2VQDkaDRKb3nLW8Lgx3/yT/5Jeu1rX5ue9KQnpdnZ2c7qC2zMMI0nzjsI8kZlD9Jo4vLjsic/r1KjNKiWPyp7HKQvpfy4vJiZpqK8cd2Gqa9y7Slqp7NpqVo7L23H0bH7qs9thf6NuV1qtY9Nc/+eSYtVy2dr15pdrslmK7al2mPmuGL5JXUvbQsl9zO3xt3IOndQcZ0bHTta35c+e3T3LDmq9iwZtdNorqj5rFl6P3PtJWqHpc+K82kuk7Yzm/dg2l2Ufms6bt20A6Nj82UfyJe9FKSnhf/3Szf3EC0FdwXpO/O/nDOz52A2/YTj9q+bdq90UzbvfdL12fRT0veD/Ounn5xuzOY9Ia1f72XHpgPZ9Lk0v27aTPB8PjvK9//BOBg/FtZPn4mWDlF6MJwfznSz+V35Pnhbpg8tuzXtnbwPpqAPBh0hmqNz42LpuBcdO5c/GjMjYVvNNJidmT4Q9ZGNzGO5OTaaI0v3BnPXPLqfNcXXrOb6u3TNlE8vua4116Gl/TtScs9K94Jy51a6ZxLVbVr3XPft25dalWvLpf23y/3aLsfsmkrHpprrmhJRW4n2yKJn7Fz+6P21ms/vpX2s5v2O1qnbtQ8C/dNsAOQll1yS/uEf/mEl2PGHwY93DXxc/v9vetOb0ite8YpVP4MNAAAAAAAAAAAAtK/ZAMhPfepTa/79h8GP73nPe9Iv//Ivb3m9AAAAAAAAAAAAgPqa/b7Zyy+/fNXrH34T5PL/PutZzxL8CAAAAAAAAAAAAFOs2QDIb37zm+v+tPXyT18DAAAAAAAAAAAA06vZAMgf/OAH9/j2x2Xnnntuuv/9799hzQAAAAAAAAAAAIDamg2AXFhYuMfflgMhH/OYx3RSHwAAAAAAAAAAAGDrzKRG7d27N+3fv/8ef7/vfe/bSX1gsw3SqLNjjyrGRg/TuCj/IJM/Kju6prmyo/KjvKXGmXsS3a9c3mWLaTZIX3+qWAryLhWUHeWPz3sYpNdr56XtoXZ7YmvH49Jxbzvarn2gy7ZSc+7vt6Wi3Pr3dI3Z0dqhVH5V1N9ngy6VrM+j/KXXtGStGa2B54PzitbvSz0d70v7WM1+ELW16Ngzmas+mxazeWeDuaj0Obbms2LJPY3yzqe5IH3numkH0+5s3gNpTzb9jiB/rvz5Q+vXa9lSkJ5GO/Lpucu2O9+Wdu45mE0/bs9t2fR7pZuy6fdON66bdkr6/sR5l50cpt+wbtpx6dZs3j3pQDZ97tA9P4R/VzsPZRKjYWuxMH1ccWFyTD759r3rt+X96YRs3ij9tnTc5H0wMzZsZGwpmd+jMbV8Hlz/hu9JtxfNNTNBY5tL8xOXXWpUcM2jtWKUnj923X3HknVsn59To+vS12temrfmPnSf1X7Gztm3b1/qq2HQh0eZ69bntjSt/aD0vEr6QbR3EKm5romfofPpuefkaF1SUna0ronm0Nyzf6n4+Xym2v0ufZ8ZoC+aHa1OOGHtjZLjjz9+y+sCAAAAAAAAAAAAbK1mAyAf9KAHpcOHD9/j7zfdlP80MgAAAAAAAAAAANC+ZgMgzz333DX//v3v539SBQAAAAAAAAAAAGhfswGQ55133pp/v/LKK7e8LgAAAAAAAAAAAMDWajYA8klPelLau3fvkdc7duxY+Unsz3/+8+n222/vtG4AAAAAAAAAAABAXc0GQM7NzaVnPetZK0GPd7W4uJguvvjizuoFAAAAAAAAAAAA1NdsAOSy3/qt30ozMzOr/rYcEPma17wmjcfjzuoFAAAAAAAAAAAA1LU6erAxD3zgA9NLXvKS9M53vnPlJ7B/+DPY3/jGN9I73vGO9LKXvazrKkIVw1Q3wHfUYWz0IDi33LnPpMWJ827k2DWNg2ueuydLaXbivMsWg6kgV3507KjscRpOXPcob01RWxmkUWFbHDXZTqO6dXnPaorud5djaqtzVdTWplXpeU9rW6u97imxXdtqqZpzWUk/KL2fXc7RNUXXtKSPRnNoy0rWsdE1XwrW2PNpbqK0jazvo36SW/+XrgWj9jKbljJ58+10puCZaNlcmk+15I9cdl2jtha1l4Np90Rpyw6kPROXHeW/PR2bzzvKpx88kD/20qGd6ycuBFutpcPe7vXb+Z4Tb8tmPX72B9n0k1I+/ZT0/Wz6fTLp9043ZvOeHKTfK92UTT82HVg3bc/i+mnL5g7lx4cdC9nk5YFvsrSNpEdy3T/ffdPCCfn0m3edmE2/KZ20btotKV/4bWlvNv2OoP/nxqaSPa6o7Ch/6R5YNM/l5ppoHtqdDk5c9p11G0+8NojOO7puNfcGS9aiUd7SZ4tc/ujYpc8luWMvhiuTMiXXrebzefS+Q3l7mc4903379qW+Gmbuyajy/SjpRzX7d828mzEPlr0vMXndS5+Ro2eu3HWJ59h6+1gzmefr0ufzaFydDcbcqOwof3RuJUruWbwXVPZe8KT1AmhJ86PZm9/85nTWWWcdef3DIMhf//VfT5dcckmndQMAAAAAAACA/z97/wJl2VUXCNy769atR1d3p7vTSSDIQ0SFqKw4imIYNSowPBegAg6yhqeCLBUfSxBFeYwMiggyg6A8hhFRlIcgduCTh/IyDD7A8RMQhYCRGJNOOp1+VdW9dW++dStft91J3/+/cnefvnW6f7+1akHdf//33uecffbZ59TOuQAANKP1CyAXFxfLH/3RH5UdO3actAiy1+uVxzzmMeUjH/nIVNsHAAAAAAAAAAAAnH6tXwA5ct/73re8733vK9u2bTtpEeSRI0fKAx/4wPK85z2v9Pu13ykCAAAAAAAAAAAAbBZnxQLIkfvf//7lQx/6ULn44ovXvwL72CLIwWBQXvayl5VLLrmk/M//+T/LwYMHp91UAAAAAAAAAAAAoNJZswBy5Fu/9VvLpz/96fK93/u9Jy2CHP3/L37xi+Wnf/qny13ucpfyiEc8orzkJS9ZXzD5+c9/vlx//fXeEAkAAAAAAAAAAAAtMlvOMnv27Ckf/OAHyxvf+Mby8z//82X//v3riyBHRgshR1+LPfq67NHPNIzasra2NpW6AQAAAAAAAAAA4GxxVr0B8kSXX355edjDHnb8TZDHFh8eeyPkNH8AAAAAAAAAAACAOmfdGyCvuuqq8rM/+7PlT//0T9cXGx5b8HjbRZDTYPEjp8sgWbvcKcOq8mvzIzNJ2VndM2VQkTt52Zlh6ZQmj+kwiGe5/WSoXyvdieO1Zefb3Zlon5wOUX/J+krWF2dLf+K6uxW5G1Gbfy6qPf+b1PR5EvG+a06XYYvHpWmeg8bzM69mLpmJr/6b+xzdrH2x9vzM5rE1c+hemQ/jq0l8uWwNyp4Lc/vpvcHsxPm1+zzrS9E8OcudL6thfC2Z2dTcr2X7JTsmNWVn92t5X1scGztSlsLcg2V7Et8Rxo8Mto2PHYzrHh5ZCONlJQ6Hw312a5AczpkdceXbdx0cG9td9oe55yfxC8t1YfyCckMY3xPE95R9Ye7OciCM7yiHwvjiyvLY2Fx2PLP4sOIinU0NKvvLLcFpdGB7fB7cWHaH8RvKBWH85nLe2Njh5Pw/GowdtdfB2nEtu85lY3pkvvTCePa8J7pWLZblpOy6O/Rov9Vex7L8KF77PCabv8fPBpudA9fMm2rnXDXzuSbne03v8xrZs+CasSNTex7s3bu3TEsnOAcHldvVZF/N/8bV3LOB+u1u7jl2PqZOPuY2vd1RfpPXsWx8qP1b7Wxy/Y+OSTZ3yP7Glc1rovKz3JrtytT0lY0876n5m2ftswWAc8FZtQDyV3/1V8uLX/zisrq6Onax4bQWIU5r0SUAAAAAAAAAAACcjc6KBZC9Xq886UlPKm9729uOL3A8tuDQWxcBAAAAAAAAAADg7HNWLIAcLX78oz/6o9u9afFUix+9iREAAAAAAAAAAADar/ULIF/ykpesL36MFj7edtGjt0ICAAAAAAAAAABAu7V6AeQXv/jF8iu/8itjv+76VJ/v2LGj3Oc+9ylf8zVfU7Zv3162bdtWlpaWvBkSAAAAAAAAAAAAWqTVCyB/8Rd/sayurq4vXjzV4sdjn33rt35refzjH18e85jHlHve855Tai0AAAAAAAAAAABQzvUFkDfccEN517vedbs3N5741sfRWx5f/vKXl0c96lFTaiUAAAAAAAAAAADQhNYugHznO99Z+v3+SW96PPb/R/97v/vdr7zvfe8ru3fvnnZT4YwblJmq/E4ZTpw7k+R2S78qP2pblpsZlk5Vflz2TFW8X7pBLB7K14LcjcSj8vPcbtV21+TW9oeac2S2sp9H50mW2+R20z5Zf6g5B9l8nP+bzzSPyUwZTK3us1XNHLnNaubnWV+sL3vY2nuuzdruteTeomZ+X7vPsvyo7vmyWrVdWV+L2pbdMzU59mT7rFfmw/hyWZw4frBsD3MPlh1h/MhgWxg/dCAo//BcmJvcro12XCw6pNvWwtSlXYfC+Hndm8L4BeWGsbE9QezW+L4wfmGSv6vsD+M7y4GJYiPbBkfC+NZD8X4tR4PYSmm2P0SPkrLTPz4FS29nHN+/sGtsbF+5IM4t8TPzm0tc+dHg/M/GjtVkw7NxMyq/9jqWzaG7ZXxfXCzLYW4Wn0uuVdG1LHvemsn2S3TMsn0+TbVzj+j6X9NXNvI8Jmp79gy79hl31Lamn0tG+7X23iB7hl6z32r72t69e8tm1En6+SDti9N79j/de8W6/dLk36mafFZU+xw6imf7pPb8jq5lTd/7R2PbbHItqb0WRX/HyuYWWdnZPXjNNbZWNNes+Vtt/fW9nc+ZADaTzXt3mvjEJz5x0u8nvgnyoosuKh/4wAfKjh3xw1QAAAAAAAAAAACgnVq7lPxTn/rU7T479vbHX//1X7f4EQAAAAAAAAAAAM5irV0AuW/fvuNvfTzx7Y+jhY8/9EM/NMWWAQAAAAAAAAAAAE1r7QLIm2666ZRvf/wv/+W/lE6nM7V2AQAAAAAAAAAAAM1r7QLIcYsc73Wve53xtgAAAAAAAAAAAABnVmsXQG7fvv2Un1900UVnvC0AAAAAAAAAAADAmTVbWurCCy8s119//frXXt/2q7DhbDAszX2V+0wZVOV3y9rEZUe5t+YPy2Y1DNaMD5L15GulG8az/H4wXGdlZ/Go7Cy/n5Qd7bONxGtkZWd9rfY8iXQ2cT9vcrtpX384F23m69DZ2peya2CbtfWYtFmT17Ha8aHJeU+Tbc/n74OJz4N8Pja9cyifS06+3ZlBWa26V1wr/Yr5ed19aHR/kB3PJufvtXP/Jvti7dgQ5Wf3gstlsbH4apkPc9P72H58nzozM/6YDBfjcSvZrDLTjfMXty2PjZ3XvSnMPb/E8QvLdWF8T9kX5N4Q5u4q+8P4znKgKr5tcGRsbOuh5JgcisPlaBJfCWLjh8RbZVOHuKuWshDETv3f7x/X2xnHb1jYE8b3lfHx/eX8MPdQ0rijyYkSneO1z6my8aNm3Fwsy1Xx7eXg2Ni2cjjMnS+9xuaxtc/+MvE1tu46Ns3nc9m8J6o7myNnc8F8rjg7cbuHDR6TbjKo1s73atSW/Z69753afUmnYh6bjZmZqPxBZV/L2h5tdybLrW37Zv3b3mZ+tp9di7J9Hj0frL3OTfPvrdn1YjYYV2tyb82P4/PBs4fauuueidQ9t1hL+kNNX6t9jj3NZ4MA54LWjrKXXHLJKT+/7rr4QSEAAAAAAAAAAADQfq1dAHnppZee8vNrr732jLcFAAAAAAAAAAAAOLNauwDyYQ972Em/j74Ke/T11x/5yEem1iYAAAAAAAAAAADgzGjtAsj73ve+5Z73vOftPv/yl79cPvOZz0ylTQAAAAAAAAAAAMCZ0doFkCM/9VM/tf7Wx9t63eteN5X2AAAAAAAAAAAAAGdGqxdAPu1pTyt3vetdb/c12L/9279dPv/5z0+1bQAAAAAAAAAAAEBzWr0AcnFxsbz2ta+93Vsg+/1+efrTn15WV1en1jYAAAAAAAAAAACgObOl5R72sIeVn/mZnymveMUr1t8AeewtkFdeeWV57GMfW971rneVTqcz7WbCGTVTBmG8U4ZJ/nDi8rtlrbGyaw1LPBYMkzXhgyC+Vrphbj8ZbvtJ/lqQn+d2q7Y7Kj/Lnaa8rw0nPk9mS7+q7CZt5mNSo8mxoVY2pk7TNPtim/dbjWlex9qqzX1hM49NZ6smx7WsL0Zzwc3e9qju2nuH2cr5/2adM+XxzsT9JetLTY7305wr1tZdkx/P3utFbcvux2rKzu41s7pXy3wYXy4LYfxoWRwb6yW5q4O47szs3Pij2t22HOd24x6xVA6H8V3l5rGx3WV/mLun7AvjF5QbwnhU/q6k7l3lQBjfXg6G8W2HemF8y6EgGMVGVirj0aUmGzqyU3R7Et85PnTogrkwdV/ZE8ZvKueH8f1l99jYwaTh0fk70kvGh2j8yMaWrOxs3IvmFgslPv8Xk/iO7DwoRyYuO5Ntd7Rfa587ZuL5YL9qXpPNRaNnzfkceNDYfK52Lll7b3G23ue+fe+fT/w8tmbsGOkG253lZuNejUH6N426c6xG/nx9MPG21Z5j07SZnxXV3Gtm15rN/Heomr9L1j4TmS/xy5qisW2hIncjf6+N8muf19Y896i5B87KzsoftHjsAaDlb4A85uUvf3l53OMed/xNkMcWQV5xxRXlIQ95SLnmmmum3UQAAAAAAAAAAADgNDorFkCOvPWtby3PfOYzb7cI8kMf+lD5pm/6pvKGN7yh9Hrxf6kMAAAAAAAAAAAAtMNZswBytODxNa95Tfnt3/7tsnXr1uOfjRw4cKA84xnPKHe9613L85///PLXf/3XZW0tfu0zAAAAAAAAAAAAsHnNlhZ78YtffMrPH/WoR5U/+IM/WF8AeWwR5OhtkPv27SsvfelL138WFhbKN3/zN68vity1a9f6z/z8/Blp9y//8i+fkXoAAAAAAAAAAADgbNXqBZAvfOELjy9wPJUTvw77xIWQI8vLy+UTn/jE+s+ZZgEkAAAAAAAAAAAAnMMLII85tqjxjiyE3EheE6IFmwAAAAAAAAAAAMA5tADyVIsKT7W48cTPbrsY8kyYxoJLAAAAAAAAAAAAOBudFQsgJ1lYeKYXI3rzI3fUTBmMjXXKMMmN43n+oKr8thqUmTC+VrpjY/1kOO0HuSO9Mp/kz07Uro3UPUy2O4tPS9YPZ0u/6jyI8rtlreocykzzHNusx3uztmsk7g11ztbxts02c1+c5nZt5r66mdt2rqq5TmbX7ybngtNUO//vBvOa2nuHbK5ZOy+KDEsnic80Nn/P8qM5+moy98/m91n+clmY+L4jK3u1zE2837JrTXYO1pz/WT/Pz4Pm+vEg6cdrSV+LjlnWj9cGSV9biY/3Wi843sO6MXW2G8+y5xdXx8aWuofD3B3lYBjfWW4O4+eVA2Nju8v+MHdXkLuR/O1B27eVeLsXy3IYn1/phfEtR8JwKStBrJeeCLG4q5Zg2CtlKU69ZXccP7A9LuCmcl4QOz/M3V/iyg+W7Ul8x9jYclmsGu9XKvKzsrPrwXwZf35nfblTMSfayLXoaLBfothGtjsds4PrQTYnyjT5LDi/14yvc9G2ZcczKzs73tG8KdvntfcW0bbNJedIdjzzOfT4+Hv2vq9qzpTNe+aD/Kwf1s6xm3zek/fVyfdZ/gx88mNSu0/yvzvUjV1NjWtZu2ufM9Xs12yfZfepWX50ran9O1ON/H4uPt7533OGE89LsnNwIcmPyp9N2p2NLU1ev2v+npr11ZpnPRtp29n6fB+A0bUPAAAAAAAAAAAAoGXOijdAersiAAAAAAAAAAAAnFtavwDyTH+VNQAAAAAAAAAAADB9rV4AORwOp90EAAAAAAAAAAAAYApmplEpAAAAAAAAAAAAQA0LIAEAAAAAAAAAAIDWsQASAAAAAAAAAAAAaJ3ZaTcAOLVOGY6NdctamDtTBkl8OHHdmazszLB0KnLjNd2DJL5WumG8HwyZ/SR3LRlua9pWW3e232rancn6WtSfavvxbOmH8eg8qz3Has6TrO4mz7FpqumnbW5b09u9WftD7djC6ZeNqTV9qXZc28zjx2Y9x2r3e/18b/JjEs+Cp9tXaq7/zZ8H0+uLTc41s/l7lB/N7TdSdhZfLfMT190LcmvzVyvLzu49ovxsn02zn2Z9LevHw8H4tq/1k3vBQVx2byU+ZqUX7Nfelji3duiJDtliPGLPLS2H8aWlI2F8ZzkwNrYriN0a3z9x2Vl8Z7k5zN1RDobxpXI4iY/fL9uC2HruShyfize7lENJ/GhFX8tO/4Ukvnt86Oju+Bzc19kTxveX88P4gbIziJ0X5h4uS2H8SNkWxpfL4tjYShDLck/H9SKyWJLzP+nL24PzKCs7exaUXauiY5Jf52Y27T109qw52m81z5E3Mg+O9lvWT7N9nuXXzP2bPN7v3/vuqv6Qzec6wTFZSPrKSrJPs3ludo7WmC8rE+cOkgtVtM9q+0ttX0rnsVOcgzf5XCI7Jk2q+TtTlp/lZscz7w+T97fav4lE/aHmOrWR/Gh8mC+9JHe10bbVqPmbae28pl+RX3t/DsC5yxUCAAAAAAAAAAAAaB0LIAEAAAAAAAAAAIDWsQASAAAAAAAAAAAAaB0LIAEAAAAAAAAAAIDWsQASAAAAAAAAAAAAaB0LIAEAAAAAAAAAAIDWmZ12A4BTmynDIDYIc7tlbeKyN1J+jWHpJPF4XXY/GLaysqPckUFS91rpThTbSN15fnfifVYr2y+0S8353UnGDk7NObT5TLMvZ9fgGpv5HI3Gnuz6fTafv00es5rxvsl+mml6XlMj2y/Z8Zzu/H7yY1p7bxCd49nxrrk3yObYWW4/2ef90p94v80mc/+sL2X586U3NrZYlsPc1TIfxvsV+WvpPu9W9YdozM6vNXHda4Mk3h+/bavL8T4dBrnrekm85hSdS+KL4/vSyNKOI2Nj27sHw9zzy/4wvjuJ7yn7Js7N4jvLgTC+vYzftm1l/D5Zjw/i+OLReOzZcigIxkWXcrQyvlIm74vxKVTKUhLfHodvWRgfW+4sVo17WTwa2/Lr3PTmwbOVc4vtwXVwKemMO4JzaCPnYHQty66h2fx+ucT95WgQ7yV9JVMzn6udQ2d1z5fVTXkfms3nsvO3Zn7/yb1vqqo7f049fnzopNu90Nj8PmrXRvriXNCXRhaCeLbPamXbVpObzXOb/HtKk/f3WV/Kz7HBxPs0yt1Ifs29YtN/C4qOadPjfd3coe65xmwwt4iuQ6cnPv6+p5vc+2f7pUbtM5Fs/IjmsU3en7f52SAAm5srCAAAAAAAAAAAANA6FkACAAAAAAAAAAAArWMBJAAAAAAAAAAAANA6s9Oo9KMf/egpP//6r//6ctFFF5VzkX0CAAAAAAAAAAAAm3wB5OWXX162bNlyu89f//rXl6c+9anlXGSfAAAAAAAAAAAAwCZfAHnMLbfccvz/n2rx37nIPgEAAAAAAAAAAIDcTJmi0QI/i/xOZp8AAAAAAAAAAABAC94AabHfyewTzoSZMgjjnTKcuOxB5brqLH9YOmNjK2UuzF0r3ap4Pxgys9xsu7L8YcV+rcmt7Q8zSW5NvFv6Ye5sEs/qnrQfno5jErWt9ng2ud3Z2DKtftj0fsl0y1qZliaPSZP7rM3Hu8l93ma142Zb1fSHps+DzWpwls5bsrlLfd3N9bXaYxKd/2vJI4l+MkeepmxONtvg9T/rD1HbavvabHLMonnPapmv2mdZ/iC4H8zut1YHcdmrK/G9Zu/I4vjgcvLoLb5tyUVdMW52md1xNIxv33EwjJ9fbhwb21NuCHMvKtcn8evC+IVB/u6gXSM7y4EwvqN/KIwvHAzOk8NhailHkvjRivwsd6XUyaZzW4PYUpK7uy5+YPv4Cm4u28PcI2VbGF9NTqRobMquY9l1MBu7asbUudIL4/NlNYwvBZ19R4nHjh0lPsfmkrqjuUX+vCWb1ywn+ePP/7Vkn2ay51jRnK32Hjd/xrY28T4/nA4Azfmzve9urG3Dcv7Ez5FHFpO+Fh2TbGzJ7g22pRejycfETCdp20owptY+E615rtn0M42a+7l8/l472Zz8eGaivpzt8+USzL83Mv8P+lp2fc76Yu09dM39e94f1iYee2pyN3J9Xwji2bwkKzt7Ph/tt5r7743Eo+tFdh7UPlOJ2lb/LGiq7+AC4Bzl6gMAAAAAAAAAAAC0jgWQAAAAAAAAAAAAQOtYAAkAAAAAAAAAAAC0jgWQAAAAAAAAAAAAQOtYAAkAAAAAAAAAAAC0zmzZRN7znveUr3zlK9NuBgAAAAAAAAAAALDJTX0B5C233HL8f//0T/90/edcdWxfAAAAAAAAAAAAAJt8AeSJLACE02OQfLv9TOmE8WESj3Nnqtq2VrphvB8MW1luFl8t8w3WPVu1X2qOyUwZlBqdMgzKHh8bmS1rYbxb+mE8Kn82yY3afTr2S5Oy82izll07rYiOd9yTmpX18/ryp9cXs/PkbN3n09TsOViqrjVnq5p+XtsXN+s51ua+Unt9j45pXnZd3b0yV1F2XbxmXKqN94N5cjS/rr03yOruVcz9N9a27sT3Blnd2b1BdEymuc9Xg3NgpFcWwvhyfzGOHx4fHx6Myy5HSl18OYj100E3Fu+2Eu62XXHqcGmm6n5tsayMjS0lO217OZjEDyV1Hw1i0QEpZb704vhKMqauBrHxu+RW45u9sb62UtGXktOgbE3iO5P47vGhlTvFfW1/N0gupdyUVH6o7Ahi28Pcg0n8cNk2cd3LJRm3knh2jY2u//NhR82fqWT5UTybl2TP3w6XpYnj2XUs0+ScKpMdk27wZGSa9x1Hk378O3v/rmqf7yg3TzTvGFkuF0x8LRnZFgzK+Rx4tupaFJefTS5iNW3P9nk2T83O0SafmTR5T5XlZnOqJo93JjumTf69Jbo/qP17S39T97XBxON97d9b5iqu7zVzgw3NwSvmFk0+S876Ws0zkaz82n5c83xvms+wAeCsWAC5ZcuWcq6y+BMAAAAAAAAAAABaugDSIkAAAAAAAAAAAABgI7y/GAAAAAAAAAAAAGidqb4B8lz+yuuMfQMAAAAAAAAAAACbcAGkr7sGAAAAAAAAAAAAWrUAcjgcTqNaAAAAAAAAAAAA4Cwx1a/ABsYblpmxsX7phrmdMpy47FrD0gnjg6TufjIsrQXbHsVGVst8g3XHudkxqzkmWe5MGp98UXpN7kbyZ0t/bKwbxDZSdm3bN6smz++m657m2HSuysbkc7Mfb96+Ms390uSYOVMGU2tbNmfazDbr+Vu737P+UHt9j8rvVJZdOzeZ1vixmefvWdnZ/D4qf7XMTZy7kbZF+dk+ze4tBskxi/LzurPtjuNrg2Cfr8T7vHdkMYyXg8kjrJui3Dg1jS8n8fj0j8W7tJRtSbzicjDTicel+bIaxheDHRPFNlJ2zfUgmzNVz6mipvUq+0p2qYhO/6Ukd2sSvyAOr9wp3m/7unvGxm5ICj9QdobxQ2V7GL85iB8qO8LcI8lJdiTZsctlceJrTWa2rIXxbeXIxLnZORo9j8muB9m1Jpt7ZPs8OmbZNTR/DrXW2L1LNtecS8bFbK4ZecvevwzjO8uBML5Yjk48pi6WhTC+rRye+HqRzUuyfZadB5Gjwbk/0kn6yuGkn2/WZxPZ8c7O/+w8yMaemuM9n1yko/O79njUzE3S+Xfl/D26VmXbvVZ5vxbfp27eZ2BZP83H+97E414+x15J4nHdUfnZOZZdQ2vO70xtX43u7+vLnvxvg7XP/qZ5HgHANLjyAQAAAAAAAAAAAK1jASQAAAAAAAAAAADQOhZAAgAAAAAAAAAAAK1jASQAAAAAAAAAAADQOhZAAgAAAAAAAAAAAK1jASQAAAAAAAAAAADQOhZAAgAAAAAAAAAAAK0zO+0GAKc2CNYnR7GRfmnWsHSCWNy2PD6+7JF+MGytlW6SG8fXkiExantWdrbdmdr8psyUYRIfNFZ31lea3rZpbfdmrntzH9O1Vp5/Tddd01+aPF6divNvI6LraM25fybaPq3zv3a/1OZv1nGv6WvRZlW7z6PzJOsr3WSmm+VHdc8mZXemeB5k14Ps/iDqq9H8+lbZPHc4cTzvS809ssiOZ7ZdtflN5dbOH2q3O5pxDQfJmJnFe3E47E61l4psuJ+bMDayI4mfn8T33DI2dN6d94WpF5Xrkvj1YfzCIP+CckOYu7vsD+PnlQNhfFcQ314Ohrnbb0w6U9z0EjY9rrqUo6VONCQvJLlZfGscPtJdCuPLZXFsbLXMh7m95ETJ8leCxi8nGxa1eyPXyWj+MF9Wk9z4PnWpHAnjO4IOl50HWduya0n0HCyfW5TKttXMa2KLZbmx+eD7974zjG8rh8N49Nwzm2d+bbJPs752oJw38fm5mAx82fG+qewsTRkkF/hesG3Z/Lv2XjLaL1k/z/rpXLLPo3uu7Bl4J5l0zacTusll94qZqC9n+zzbL9m1aDW4DmZ/84hyN5I/rfvQTHavmPXzbFyMr9+9qnErO8eya83WIJ7VnbetN/F+r30mUtNfsr/dZedodh40+be/muvFZv27IABsVq6cAAAAAAAAAAAAQOtYAAkAAAAAAAAAAAC0jgWQAAAAAAAAAAAAQOtYAAkAAAAAAAAAAAC0jgWQAAAAAAAAAAAAQOtYAAkAAAAAAAAAAAC0jgWQAAAAAAAAAAAAQOvMTrsBwKmtle7Y2DBZuzwsnTA+SPPryo/0k2EnKztqW97umcr90pm47FozZdhYbrf0J87Pyu5UtDuTHa9a0THNtjvrDzXHMzNTBo2V3eTxrC2/yX3K5uwvm/U8qemLTe+zto49TaqZ07RddMyyvjjTYDzrS92yVln35NvdpJp56MhaMseOyo/uOzZS9mqZn3j+n+Xm89i1ievOtrtfuV+i+WBt2Vn+fOkFuXHZs8k+Xc3G+6CrDheTfj5I4ksLZWJzSXxHEs8uFwuTlz2351AY3720P4yfX8bH95Qb4rLLjUl8/8TxneVAmJvHbw7jOw4tj41tiZtdyr4kHu+WEjbtSJKbXWqybr69NCdp21xZDePzQXyxHA1zV5OT9GhZDOOzwXONbG6xWMb3pZGl5KBG271UDlfVHZU9sjXInwuuBRvRqzgm+Vyybr4XzR9WknZnbfvk3v8TxqPraC+Z11yQHM/MvrJt4tzs+n8wGVwOlvMaex6bzT2avA/N+lo0tmR/WMvm79uS62B0/mdzwexZb7bP43nsbNU5lrU9uh4M0r8bLIXx5bI1iS9WzM/jeDY+RPul9hyb7rOiyf8ukfXT7BqZzVuia3B2fY6uvxtpW1Z+tO01f8vZiKg/Zc8tsnvsrK/W3b8393fH2r9DNf23QwDgP7jqAgAAAAAAAAAAAK1jASQAAAAAAAAAAADQOhZAAgAAAAAAAAAAAK1jASQAAAAAAAAAAADQOhZAAgAAAAAAAAAAAK1jASQAAAAAAAAAAADQOhZAAgAAAAAAAAAAAK0zO+0GAKc2DNYn90s3zF1L4v3k1M/y14L8QbKuelg6STzLn3zddta2TKcMS1NmKsqeLf2qds+WtYnLz8uO2zZNWV+syZ0pgyR/prG+UlN2Vn7tdtfoTHG7azU7djS3z5vcJ7X7ZWYT79Mmj/e0j9m01J7fm/V4NX28a+LZeVA7t4jK71bk3hqf3jHN57HNzT1q8rN2Z/ceg4r8rOysbTX3HnluXTzatuh+Ksvd2P3c7MRlr5b5qnivPz6+uhznDvuVj6gWJoyNzCXxxV4YXtpxZGxse/dgmHt+2R/Gd5YDYXxXkJ/l7ihx23aUQ2F8e5AfxUa2lfH7bGTpyHIY3xJtWrzZJal61NEnt1AZ35rEd04YG9keh9eSurNnRdG4ml3H8udQk18vsrlFFl8sR8P4UtChsn4+X9XZmp1DZ9fJ6Jhkudl87iN73xrGDwWd+XBZqtov25L8feWCsbHlshjmziXHO8ufL/G1qO451eTPe7J5TTY/7ybPDqNzMCt7a1me+PytPY+ye6Ls/I/mXKvJxCU7nln+4bJt4vE4mytm/bwXtK1mXNpI3dkce1r3grXnd3adq3m2n41LWT+PxsXF5PzN4lsr8mvavbHnGs09t8jG5JrzqPY+Nr+Hnm3s74q19/8AQDu4ogMAAAAAAAAAAACtYwEkAAAAAAAAAAAA0DoWQAIAAAAAAAAAAACtYwEkAAAAAAAAAAAA0DoWQAIAAAAAAAAAAACtYwEkAAAAAAAAAAAA0Dqz024AcGrD0hkbWyvdMHe1zIfxXpmryo/i/WRYGSbrrrN4jZkybCy/k5Q9W/oTl53ld8takhvHu0nborpr92m2387G83faZc+UQYPnYHz+1/SXuBfX98WafZYZNtq25sbMps/PYeV+ba4/NDs93qzj3mAT/3dRTc4NajV5HczKzsamfG6SjayTl11zzOJZSX6OZm2r6evZNXgtaVtUdza/z8rup/cHcxW52b1FHI/uD7Kym9wvtfs0u+9Zq9jurO61irb1VpJ7veU4Puwn18nlIJ5d+rMhNTt9o9vcxV6YurTjSBjf3j0YxneU8fEd5VBcdhKPyh5ZKofHxraW5TB3vvSqrhU198iZYXbbsxDEtlZVPdqpk4tPz7xtS5PnH90en5/LncUwfrTE8SNJ4w6UXWNjN5fzwtyDZUcYP5zUHV2j58tq1fOaLD97plL3/G1u4utF1q5srvnuvX8Wxm8su8uksuvYsHzTxH3xvHJz1Rz6YNJXo3nuYjLmZvt8sewP49GYns1LdpYDYTx7thiVn82RtyfXsex6EfXz7HhuK0eq5lxRX8vmkln8QNLXojG1duxYScb75SCez2Oz/ZJdKCe/l8uO5zSfLWTnfzRmZ9ehbD6XjU1R+VluFo/mqdm4Npds92JZqfybx1pjz1uyvlrzbCG/V8zuc2cr/i45+TOPps//zfzsEAA4c8wIAAAAAAAAAAAAgNaxABIAAAAAAAAAAABoHQsgAQAAAAAAAAAAgNaZLS31hje8ofz7v/97edrTnlbufOc7T7s5AAAAAAAAAAAAwBnU2gWQ11xzTXnRi15UXvziF5eHP/zh5Ud/9EfLQx7ykLJly5ZpN+2s9cUvfrH81V/9VfnKV75Ser1e2bVrV7n3ve9dLrvssrKwsDDt5gEAAAAAAAAAAHAOae0CyGPW1tbKe97znvWfu971rutvhHzqU59a7nKXu0y7aWeNd7/73eW///f/Xj71qU+dMr5t27by5Cc/ubzgBS8oe/bsKdN29OjRct/73nd9weaJnvSkJ5X/83/+z9TaBQAAAAAAAAAAwOkzU1pu9MbHW265Zf3n6quvLi984QvLV3/1V5dHPepR5Yorrlj/nMmsrq6WJz7xieUxj3nM2MWPI4cPHy6vfvWryyWXXFI++tGPlml7/vOff7vFjwAAAAAAAAAAAJxdWv8GyJETv/Z6tOBx9FbIvXv3rv+M3gQ5eivk6OervuqrptrONhkOh+Xxj398+ZM/+ZOTPu90OuVud7tbOe+888qXvvSlcvPNNx+P7du3rzz0oQ8tH/zgB8t3fMd3TKHVZf0rul/1qleVs8EgWJ/cT07dXpkL48tlMYyvlvkkPr78fumGuVnbh6WTxMfvl5kyLDVmyiCMd8taEOtX1d2paHu23dl2zSZtj8rvVNbdVlk/3cym2fZp1l3XF5udLtWOXW2tm9MvukaezXU32c9rr7H5dXI48dwia1s0b8nmmllu7fFucuzJ2hbFs9xon42sVcyDszl0Nj9fS65VUX5Wdi+J5/cm843dO2TbHZWft3uhqm29lWC7e/F2r63E93Oll8xNekFspUyeO5KdvtGwmE0F411eylIcnlkav3Hbdx0Mc3eWA1XxHeXQ2NhSORLmLpXDYXy+rE4cn+Zcr/b8PrIQH/C1brDdO+u2ezgTj/f9TreR8Xi97AbH8yNlW9WzouXkJI3KP5qUnV1rMnPBeZCdQ7XPc6K+XnsP/Lt7r5w4d1sytmQOlIsmzs3GnsWyXDXHPi8Yk7PjeX7ZH8bn0gvh5HaU+Fq0u9wYxleDczCbp2b9IRs/DpUdE9edicoeOZJNAALXJ/34QNkZxg8HdWfnd/Z8/mCy3dGYm9Vdcy2pHdeGg7g/zHSm+Qwse/Y/fvyYTe6RF5JrTTbuRfF8Llk319wa1F3T7o1cg6P9WvtMJBPd/2fjWnYOZc8Wau7vszl2VnfN3+dqn5m0+dkiANAOZ8Vs4tgbII8thjzxrZBf+cpXyotf/OL1t0I+8pGPLH/6p3+6vriP2K//+q/fbvHjM5/5zPW3bF511VXl05/+dNm/f3/54z/+4/UFkSd+/fTjHve4kxZGnim9Xm99oeux47u0NPnDEQAAAAAAAAAAADa3s2IBZLQQ8thiyMFgUN773veWRz/60eXud797ecELXrC+mI/bu/HGG8tLXvKSkz576UtfWl772teWiy+++PhnMzMz61+PfeWVV5Z73OMexz8fLTp9xSteUc60//E//kf5h3/4h/X/P3rz5zOe8Ywz3gYAAAAAAAAAAADOjLNiAeSJix1PXAg57q2Q11xzTfmVX/mV8jVf8zXlYQ972PqbDr0V8j+87GUvK4cO/cfXN33Xd31Xee5znzv2348WG77hDW846bNXvvKV6wspz5TPfOYz64s0j3n1q19dtm/ffsbqBwAAAAAAAAAA4Mxq7QLIn/zJnywvf/nLy73vfe9TLnbc6Fsh/+zP/qx8//d/f7nrXe9afumXfqn8y7/8SzmXjRaCvulNbzrpsxe+8IUn7dNT+b7v+77ynd/5ncd/Hy2gfNvb3lbOVJtHX309+grskdFbKUdv+gQAAAAAAAAAAODs1doFkLt27So/8zM/s/7mv49+9KPliU98YllYWDi+4PGOvhXy2muvXf8K5dFbIR/ykIeUd73rXesLJM81o6+z3rdv3/Hf73nPe5bLL798Q7mjRYgneve7313OhN/8zd8sn/zkJ9f//44dO9bf/ggAAAAAAAAAAMDZrbULIE/0n//zfy5vfvOb17/a+lWvelX5pm/6ponfCjl6m+AHPvCB8oM/+IPrb4X8xV/8xfKlL32pnCuuuOKKk35/0IMelL798cR/e6IPf/jD5ciRI6VJV1111fqbO48ZfQ32xRdf3GidAAAAAAAAAAAATN9ZsQDymJ07d5af+ImfKP/v//2/8olPfKI8+clPLlu3bp34rZD//u//Xn71V3+1fO3Xfm158IMfXN75zneWtbW1cjb7u7/7u5N+v+yyyzacO1p4eI973OP476OvpP7sZz9bmvQjP/Ij5ejRo+v//zu+4zvKj/3YjzVaHwAAAAAAAAAAAJvDbDlLffu3f/v6z+iNkG95y1vKG97whvLpT396PXbbRZAn/u+4t0V+6EMfWv+54IILylOe8pTy9Kc/ff3rss82n/vc5076/ZJLLrlD+aN//+Uvf/mk8u53v/uVJoyO6Z//+Z+v//9ut1te//rXb/htlW0wDNYnD0snzO2XblV8tcwl8fmJy15L4oNkXXa0X2rNlGEYXyv9xtqV1R3Fu6VuYXbWn7K21Zhm2TXHrLbdTfbj2uPdpOz8PlvrbtI0+9I0TbMfN7nPz9Z+mulUjqn5NXQwcW7WttlgbjAyTPK7QX42p4pyb82Pb/U6FXPNaZ5jtXPFaNuyfZbPc2cnnkNnc+QodyPz917F/D0ru2a/9Cu3e22Q5K+Mb/taL84drsR1l15y77kSxJbj1OT0Hh3QyfPHD4kbi2fDQ7RbtyW5C3F4dtet//HjODt3HBgb211uDHN3l/1hfEc5FMaXyuGxscXkgGf3c9m1JsrPrhW19zXR2LWa3l/P1t3PdcaP9/1O3XOJ7HpQM6bm16nJ40fLYpi7XBnPtq1mu7Ljnffl8YPXfFmtOgez/vDmvZ8YGzs/GXuy8eFOyX47r9w80T4ZmU8uJtkxi8am7BxbKkeqxr1ojp7NFXeV8deKjey3aG6S7bNsn2fn8JGyNPH5eX25KIzvL7vC+MGyY+L52qEgN9uubL9m252Vne3zmufzq4P5ieepmeEgrns4iPviLcPJnz1smUnukeeSectcMu/pjo/PhxPsfLzPxtwovi0Zt7JxbXs5GMaj8mvavZF4NOZm18ia5zHZeVQ7Z2ryPjWbx2Zzh+w6GW1bdp3Lym7y2eS5+pwaANg8zvrZyPbt29ffCvi3f/u35a//+q/X3xi4bdu2id8Kef3115eXvexl5eu//uvLAx/4wPL2t7/9rHkr5PLycrn66qtP+mz0NeB3xG3//ec///nShGuvvbb83M/93PHfn/Oc55Rv+IZvaKQuAAAAAAAAAAAANp+z9g2Qp/It3/It5Xd+53fKK17xivLWt751/Y2Bo0WRk74V8i/+4i/Wf/bs2bP+ddujxZX3ute9SlvdcMMNx7f52FsVL7zwwjtUxl3ucpeTfh8tGG3Cs571rHLgwK3/xe7oK8qf//znl2kYbd++ffvuUM4XvvCFxtoDAAAAAAAAAABwrjinFkAes7S0tP4V1qOfv//7v19fFPkHf/AH5eabb/3akFMtdjzmVAslRwvgXv7yl6//fPd3f3d5xjOeUb7/+79/fQFhmxw+fPJXNm3duvUOf6X0aN9GZZ4Ob3vb28q73/3u47+Pjt/CQvJdWQ15zWteU170ohdNpW4AAAAAAAAAAIBz2Vn/FdiZ+973vuW3fuu3yr/927+V//2//3e57LLLTvkV2MecKnbiV2R/5CMfKU94whPW34Q4+ormf/qnfyptcdvFipMsKlxcXAzLrHXjjTeWn/iJnzj++1Oe8pTyPd/zPae1DgAAAAAAAAAAADa/c34B5IkL90ZfY/3xj3+8/MM//EP5yZ/8ybJr167jCxtPXOw4cuzz2y6GPPbZ6OukR1+1fZ/73Kdcfvnl61+53ev1yma2srJy0u9zc3N3uIz5+fmTfl9eXi6n00/91E8d/1rt0ddzj966CQAAAAAAAAAAwLnnnPwK7Mwll1xSfvM3f7P82q/9Wnn7299e3vCGN5SPfvSj6Rshj8VPjI187GMfW/8ZLar8b//tv5Uf+ZEfKfe+973LZnPbNz5OsmBzdXU1LLPG+973vvKWt7zl+O+vfOUry+7du8s0PetZzyqPfexj71DOF77whfLoRz+6sTYBAAAAAAAAAACcCyyATN5m+MQnPnH9Z/RV1q973evKm9/85vW3O47c9o2QJ/7vqWKjr28eLawc/TzgAQ8oz3jGM8oP/uAP3u6tidOybdu28I2QG3HbNz7etsxJHTp0qDzzmc88/vtDHvKQ9a8an7bRWyhHPwAAAAAAAAAAAJxZFkBu0Nd93detf93yS1/60vLHf/zH5fWvf335i7/4i5O+HvvEN0Fmb4X8y7/8y/Wf0Vshn/SkJ5Uf/dEfnfpbIW+7WPHo0aPHt2+jjhw5EpY5qZ//+Z8vV1999fr/37p1a3nta19bzmXD5Nvra+OD0kni4/PXSjfM7SfDznAQ1z0cxm2vMdvtx3UH+6WfbPdMGcZ1l7UkfxDE5iv7Q2/i/NkS77OZpO5Osl/i7Y5zMzMVdU9T1A83Zq2i7plGJx215Te136Ix73TYrNs9zXY3v8+b2y9tVTvm5eP5cOK6s/G6m16LhhNfx7Lt6lZcv7O21ezTjdQ9zXMsGj+y8z8be/oVc9FsHruazLlq8ntlrqrubI4d5a9V5N5ad3fi/bI6iMteXYn3y1ovrnu4EpS/nNznxsNDKSf/t3+3F/33hNmXLWR1Dyri2SUw3uWlLCXxHUFsT7zhu87fH8bPLzeG8d3lpiAWl31ekDuyrZz8rOO2tgYdIrvXq70WReXXXCNrryW9ynEry4/GptWkI2fjdXYtiurOn7fMNHYNzcbrbJ9mbcvmPdvLwYn7YlZ25p173z/x+TtbsV0j3x6Uv5BcLLL9Ml9WJ47PJxebbOw5kgz4UV/Nys7Ok4PhxSSuOxszv1LuEsavLxeF8eWyWCZ1oOwM49eVCxurOzueh8u2yeex/WS8Xk6eWw7i/jDTGX9MB8lcsRxJnkTV3DLVzMc2olMxn4svc6XM/cffrk5Z/NL4sWtpRzymLpXDYXxbGh9f/lIynufxuO4dwXi/mIznWd1ZfnQdzJ+/x+NeNi7WPIPL5lQ1fyuq/TtT3rbZinvc2anN92qfmTb5PBcAYNrMdO6gbrdbHv/4x5cPfvCD5Z//+Z/Lc57znPU3AEYLBU/8muwTF0uOfm666abyqle9qnzDN3zD+lsN3//+8Q/smrZnz56TtqHf75frr7/+DpVxzTXXnPT76Xg74pe+9KWTFjy+6EUvKve4xz2qywUAAAAAAAAAAKC9LICscM973rO85CUvKa985SvL+eefv/5Z9LbEY4seT3xr5ImLIT/wgQ+Uhz70oeXbvu3bynvf+95ypi0uLpa73e1uJ3127K2LG3Xbf3863mp58803n/RGzZ/7uZ87af+N+xktlDzR7/7u754U37kz/q9uAQAAAAAAAAAA2LwsgJzQF7/4xfK85z2vfNVXfVX54R/+4bJ///6T3vSYid4K+Td/8zflkY98ZPm+7/u+8o//+I/lTLrtgsXPfvazdyj/c5/7XFgeAAAAAAAAAAAAnA4WQN4Bo6+E/qM/+qPywAc+sHz91399ednLXlauu+66dOHjuDcUjnsr5LHP/+Iv/qJceuml5Td+4zfO2DaO6jvRlVdeueHca6+9tnz5y18+6evCL7nkktPaPgAAAAAAAAAAABiZtRty//RP/1Re97rXlTe/+c3lxhtvXP/sxLc3HnPbRZBZ7MTFjqcqc/R7r9crz3nOc8qnPvWp8nu/93tlZqbZNauPeMQjyq/92q8d//2DH/zg8cWZmfe///0n/f493/M9Zdu2bdVtute97rX+9eB31Oh4jfbZMQ9+8IPXvz77xAWaAAAAAAAAAAAAtJMFkGOMFh6+/e1vX1/4+PGPf/x2ixjHLW481efnn39+efKTn1ye8pSnlL/7u78rb3jDG8pHPvKRU7718cT/PfHzP/zDPyznnXdeec1rXtPodl922WVlz5495YYbblj//aqrriof/vCH1xczZt74xjee9PujHvWo09Km0SLK0Vs376hjx+2YO9/5zhOVAwAAAAAAAAAAwOZjAeRtfPazn11f9PiWt7yl3HTTTWPf9nji57eNHft8tJjwx37sx8pjH/vYMjc3t/7Z6Cuhn/CEJ5QvfvGL6wsh3/SmN5Xrr7/+pDJOXAh5bIHk6P//zu/8TnnMYx5THvSgBzW2/aM3TI4Wa7785S8//tmLXvSicvnll4dvgfzQhz5UPvaxjx3/ffv27eVxj3tcY+08F8yU4USx0xHvlEESj9o22LTDzsxMvN3TtFaxX4alU1V2v8RvQ+2W/tjYbFmr6mtR2Vn+bJIb9dON9NWZMlNxjmXnQZm47fl2bd5+3qRhcLymbdBg27Lzf5o28zGZ5jlUMz7Unv811+9u5XgflZ+VnV9rJm977Xhee0xqrxfTGluy8zsb96Lya+ctWf5qmQ9ic1V1R2WPzId1x7kLZTmM95L8fpC/VrldNfttrhPnzi8txHUvJG2bGz9fXFuIt3u4Epddusm3JCwGsezUz+LZ5T/arfEuLbM7jobxnTsOxPFy63OUU9kdxG6N7w/je8q+ML6rjG/beeXmMHepHA7ji8k5OF9WJ4qdjmtsdxDfF0UGnZmqseVo0NGPlKUwd1i2VV5LJp9r1j4zqRkza69j0TU0m5dsLwfDeHaPva0cCeN/vfd/T1x2dh70k/1yn4pjtpRsV1Z31Pb5slI1tmT96bpyp4n3eXZ+X18uDOMHy46J99mBsiuM31zOm/g8ys6hfWVP3LZB3LbhcPzY0+8l89ibtofx5BStE3fFknTFeG5Sews9UzEtmvwSuLE5VTRkx9PYdM6VXAZLWRo/tizsiMet7QtxZ9oZzJlGdpRDY2PnVeSObEvmXNGYnI3XNfO1kbkgXvMMeyN/b4kM0mf/8dwiG5Oj/Jrc2vzaZwPZXDFqW9PPRM7WZ6oAANNmFjW6/19ZKb/7u79bHvCAB5Rv+qZvKv/rf/2vsn///vVFh6d6S+NtPz+2QHH0M3pb4bOe9azy93//9+tvIPzhH/7h44sfT/Q1X/M15aUvfWn513/91/L7v//75dJLLw2/VvtYHT//8z/f+P547nOfe9JXV4/eVnni12Lf1jXXXFOe/vSnn/TZs5/97PU3SUZO3H+jn9GbJgEAAAAAAAAAAGAjzukFkKNFij/+4z++/tXIT33qU8v//b//N1zceOJixNsuiBwtYBy9ofHf/u3fyqtf/eryjd/4jRtqQ7fbLf/1v/7X8qlPfaq8613vKl/91V99vP5TvWly9BXao3Y2abRw8Rd+4RdO+ux5z3ve+sLO0fYdMxwOy7vf/e71N11++ctfPv75xRdfXH72Z3+20TYCAAAAAAAAAABwbjvnFkAePXp0/aunv/3bv7188zd/c3nta19bbr755vBtjyMnLog8FltYWFj/uujRgsTRAsYf+ZEfKUtL8Vf8RB71qEeVf/iHfyhPecpTbrcI8kRXXHFFORNvgXzEIx5x0mejfXW3u91t/e2V/+k//ady/vnnr38l99VXX3383ywuLpa3ve1tZefOnY23EQAAAAAAAAAAgHPXbDlH/O3f/m153eteV/7wD/+wHD58+KS3Ko572+K42L3vfe/yjGc8ozzpSU867Qv9Rosq3/jGN5bl5eX1th57A+WJPvnJT5amzczMlLe//e3rizFH7ThmMBiUq6666pQ5owWR73jHO9a/ShwAAAAAAAAAAACadFa/AfLQoUPlt3/7t8u3fMu3lG/7tm9bf/Pj6LPoq6xP/PzE2OzsbHnc4x5X/vzP/7x89rOfLc9+9rMbfcvhq171qjI3N3e8Pcf+d9SWf/7nfy5nwmgx5lvf+tb1RY2jr/geZ/TWy9HXY4/2y+WXX35G2gYAAAAAAAAAAMC57ax8A+ToK6lf//rXr38V8+grr2ve9nj3u9+9/OiP/mh52tOeVi688MJyplxwwQXlQQ960PrXXd/2q7APHDhQzqQf+IEfWP/5whe+sP72yWuuuab0er31BaD3uc991t/4OFoseUfddv+fbi984QvXfwAAAAAAAAAAADj7nDULIG+++eby5je/eX3h42c+85n1zzay8PG2iwtHsdHXPz/84Q8vz3zmM8tDH/rQ2/2bM+Vbv/Vb1xdA3tboLZbTcK973Wv9BwAAAAAAAAAAAKat9QsgP/7xj5fXve515Z3vfGdZWVmpetvjne50p/U3PY7e+HjXu961TNvoLZAntvHEr+Tm3DZTBmG8W/phfC059ftJfFA6QWym1Oh3uvE/GF91tU4ZhvHZYL9mxyQT7dPMMNnnWbxf4n2+WuYm3mczFfs0K3+2rFXVnZ0nUX5NuzfSX6Jtq+1r2X7J2h6XPaiqu6l21dadl113TJrc7ib3S+0+rat70GA/Hk5tbKk9h6Y5rnXTMXlQkVt3TKK6O4Mkd1jZz5PyI8NO3ZxqOBPnD4Lyh8m8JJ9bxHPJtWDusRLMO7LckdUyH8Z7QTzLzbYrKjsrPyu7ybZlc8Ga7bo1Ptdc2Z24v/SXxm/b6tJ8VV/L9vlwMPn8frYTj8nzZTWMbyuHx8Z2lpvD3PNK/I0Tu8v+MH5+EM9ys7p3JfHt5eDY2LZDvTB3S/bfma4k8SNBLD5co84Uq5lqJrfXZWsSPz/eb0sXjN/wbnfyeclG4qulN/F1qlZ0/q+UxTD3aBLPxp5INpf8673/O4xn99jZXHO2TD63mC3LYXw52W83l6WJ+8OBsjOM7y+7w/jBsmPiurPr3PUl/jaifWXPxNf3Q/3x7R45enD8Pl23PDf5mDl+uN7YuBfFa+uOh71YVvf4y/Otam49BpXblU1boilX9sVQS5XxxYq6d9TFO7uOjo0t7Ygu/qM5101JPJ7X7CiHpjJnGlkKJjbbwknP6JAsV11Lonh2nap9hhb9XaPp5+9RPL8HrruHjuY1WW7+d6bJ87O/M9U+t4jU/o2r6bkoAABn2QLID3zgA+XZz352+fznP7/++6QLH0e/f+/3fu/62x4f/ehHl9nZzbNL5ufjh2AAAAAAAAAAAABwrto8q/3uoCuvvLL84z/+48Rve9y9e3d50pOetL7w8Wu/9mvPSJsBAAAAAAAAAACAc3wB5KQLH+9///uvL3p8/OMf36o3LJ64LQAAAAAAAAAAAHCua/0CyI18/fW2bdvKD//wD5cf+7EfK/e9731L29x2YScAAAAAAAAAAACc686KBZDjFj6OFjuOFj2OFj+OFkG2zXd/93eXN73pTdNuBgAAAAAAAAAAAGw6s2fT4sfRwseFhYXy2Mc+dn3h4+jrrtvsXve61/oPAAAAAAAAAAAAcJYtgDz2tsev+7qvK894xjPKk5/85LJr165pNwsAAAAAAAAAAABoUKsXQM7OzpZHPepR6297/N7v/d5pNwdOq04Zjo11y1qYu5bE58pqaa5t/TC3X7phfFhmquJNmgm2u2mD0pkodjr2WbTdtfsk6ktZ+Vlfy9qWxaPys9zZ5BycKYOk7rVGcjeSH23bbLLPa45nnl9XdybaL7XbVRPPjleTbas/xybvazXnZ23bsnMo2+c150n12NFP8gfB8Y6bXbbEVY8uRrFhQ7kbyW+rTrLh2eW9m+QH04e1eLpWegvxbeRM1vZAt3LeUjOXHFTXHc/JpilqW9bu2utczbiXHZPaY1ZzrVlM8qPzYD65H1ssy2F8RzkUxneX/UHsxiT3piQe5+8sByZu9/YjR8L4bJxewuKz3KNJ/EhF/kqSW3ubuRDEtiW52bCVzA+iuUVy65/OmbJ4P3ik2fRzhbVg47Jx6c/3vj2MZ/lR3atlPsw9Wu5ZNe5lDpTx/0H6WvII+mDZHsavLxeF8cNlaWxsebA1zr3xvDBebkgen0fn+OE4tVyfxOMhOZaNPQcbnGPXzs87FeUfqWxbTd2lwfE8m3wkY256PTg/ie8JYhfVlb2w5+Ywft7C+LnFrmDesZ6bxHeWuO7twYmS1b2UdMao7Gw+mM0VtybxmucWtc+Cs2twdB3McrO/O2TXon7FNTa6Pt9adlx3Lyi/frvieHQ/mJWdzVuye82aOVn9/fv0/s4EAEAzWrsAcrTwcfTGxzvd6U7TbgoAAAAAAAAAAABwhrV2AeSll1467SYAAAAAAAAAAAAAU+Id3wAAAAAAAAAAAEDrWAAJAAAAAAAAAAAAtI4FkAAAAAAAAAAAAEDrWAAJAAAAAAAAAAAAtM7stBsAnNpMGUwUG5kvq1V1d8owjM8F5a+Vbpg7TNZdDyrWZQ9LZ+Lc2rZluVk8Mwi2rem6mzST9LVIJzkPsrKzeHQe5GXHbeuWtYnb1mTZI7OlPzbWqcjdSN3dIL/2eEZlZ/k1uRs7JoPGjmfNfsnGjux4dyrzmxzXon1eX/ZMY1PzbOLejy/BpTMzvj8MO0lfGkw+Xt+aPz6WVD1Vg+RwDpOpx7CTXKNnxsf7nfiAriU9op/Gx5e/Wuar6s7yo3ivIre2bdk+y+qO9mm2bbV11+y31TJXVXcen5v43iEreziIT8LhMJi/Jyf4TDI4zXbj69hiWZ54bpFd/5fKkSR+eGxsRzk0cW62XVnbs3lJNqamt3tRV15IcrNrUTwFj3Urt2trEt8ZxHbHqWtJ/Oal7WF8X9kzNnakbKs6v5fLYhg/UM4bGzua5L5n7/tKjUNlR8VzhfuE8ZWk7V8pd5l4nx4ZxMfk8PVJh/iXLXH8YMU5dG0SvymJR+UfqSy7VJzDtXUPKupeKdOT3RLFXTEfszsVY25W946KeJZ7fhLfM3m8c+HROHXHvjB+ftmfVH3D2NjuJHdHODjk8e3B3KVmTjSyNZnXRM/Yo+fjI91+8jxncEuZlrVuPPmI7kVr70Nr7qnye8Hs3mJu4vxsu7K68/3WbezZf/b3luhvKk3+LSezmf+mAQDA5mQGCQAAAAAAAAAAALSOBZAAAAAAAAAAAABA61gACQAAAAAAAAAAALSOBZAAAAAAAAAAAABA61gACQAAAAAAAAAAALSOBZAAAAAAAAAAAABA61gACQAAAAAAAAAAALTO7LQbAJzaTBmOjXXL2sS5I7OlH8aHpZPEm1s7PUjKztoWWUuGvGy7+qU7cdlR7sbqnm2s7CyeHZOmjletmTKoyu8E51F2jmXxvO7BxGXXjg/Rfov2ychsWnd8TKLyZxvcrmy/1eRuJD9qezZeZ8ekpm31fW3zHu+6uicv+9b8YSN9ZSNmOkF+Mlx3unVjapMGFfOW/BrZmfj6PLKWXKOj/Cx3tcxV1b1a5sfGVpKye0FuVnbWtjw33udZfrTPm647iqd19+PjuXx4MYwPV4Lyl7eEucmlqJTlMnl+L8ltcuiJu3kpS3XxI3uOjo0Nd8RjT3YtWkx2+nxZnfj6nY2L2dhypGwbG1ss4/fJyNzC+HaPbF2It3uxrIyPrcS5c+NTN9YXo0t0cjvVS/rSoYXtYfzGsnts7EDZGZdddoTx5bI4cd1HkpPkz/a+O4wfTNp2TbDTl4O+MDJTvm3ifjxy41cuHh9cqRwzv5LE/yWIDSvrvjaJ35DEa27/jzR4PRhUxjsV+XXT91xUd7fyOhifgqWcH8T2JLkXVZSdlX9hnLpw0c1hfNfC/jB+fhkf3x3ERvaUfXHd5UAYP6+Mb/vOJHdnuSmMLyUnYTT3mF/pN3uNzeaipeIcrHnE3a0bO9aS/N7C+AL6nbp7xZr7ntWy0FjZWX7t/XdWd/QMPCu79vl69Oyh9m8xdc/2vUMHAID2MHsFAAAAAAAAAAAAWscCSAAAAAAAAAAAAKB1LIAEAAAAAAAAAAAAWscCSAAAAAAAAAAAAKB1LIAEAAAAAAAAAAAAWscCSAAAAAAAAAAAAKB1LIAEAAAAAAAAAAAAWmd22g0ATm2mDMfG5spq2axmyqAqf1g6Fbnxmu610g3j/WRIjPL7Sdm9MpfUHeevBvndsla1XVnd0aVikOzz7JjUHO+s7s2sE5zftedYNHbUlp+1e6Yy3gnqri87js+W/sS5tW2r2eezyfnfZN01ZWf5ed1150EUr72O1e63Juue5pgaXQ8GldeKteQ6F+Vn18jVMp/U3a1qW1R+Vnc0N6idW/TKQpw7SPZLP9nu5fH5wyS39JL4ShwuvYrc5STer8ivrbsmv2afbWS7o2E1G3KzqWJ8GpSyNGFsZFcS3xOH11a2jo3dcOdk3NvVqZpjR+PHwbIjzF0qh8P4YtIZ54N71a0VuSMLaf74ztpdSDpqPOylY2o03mfj+cGyPYwfKDvD+P5y/tjYoaTs5bIYxv8/e98Vxq8u4/v5geu3hbml99g4/pU4XK4NYkeS3Lib5/k108WDlfGauvsNb3en4loyqBzvFyrG+6SrpvndirKza83OimtRcp3q3vlQXPTSDWH8grJvbGx3uSnM3V1uDOO7yoEkvn9sbGe5OczdmbRtW3IibF8ZP4DMxbu0lKNJvGZOlp3ftbehMxXztW5lPDr/40tsGl9Lrv+9heBesjP5/dbG7vfmG7tPzdoWPwOf/Pn5rfE4P3o+kJWdzZFrnj1kZU/zmUtt2wAA4GxhZgwAAAAAAAAAAAC0jgWQAAAAAAAAAAAAQOtYAAkAAAAAAAAAAAC0jgWQAAAAAAAAAAAAQOtYAAkAAAAAAAAAAAC0jgWQAAAAAAAAAAAAQOtYAAkAAAAAAAAAAAC0zuy0GwCcWrf0x8ZmynDi3I3kd5J4lt+kYbBue5Cs6V4r3TDeT4bEfpDfK/NVZa8m+fNBPCs7a1tWd1R+tE820pey/OyYhbmDOHc4nPy/ARgO4txBEm+rTqfu3J+pyJ+ZScalzmDistfzg76aj4nN1Z2V3eR4nV8rmtvuJnM3st+mJbuO1Vwjs/igdBorOxvva6/Pa/04f3V5/HVurZ/cDi3PxfGVOFx6ZfL85TK9unubuO7atjW53TXHLMtNh9xbknhUwWqSm8Uz0XmWnGNla0XZpZRdQWxPUnQWvymJHx4fGh5cCFNvuPDiML5/1+4wvrTjyNjYYudomDufHO/FpLNG8fnkJKu9j50ta2VSyyU+JgfKziR/ceLr2JGyLYz/0R98OIwPrg3228r+MLf8WxwuN35bHL+hYlwb3003do5lw0fNeJ7ZEcSy6Vy/cruiaU+nsu4Lk/hSRdvnKvbpRtoWDZt3jseGnRdGHbmU88uNcX65eWxsd4nPwT1lXxi/IDzJ4vJ3V7R7PX4ovl5sORAEjzY4X8v6ctbPs/leZlhx/ncq49H5nz0+W2gwHj9WLLckY8fqwpY43h1fwWoyuGTPPLN4dK+a507+nDnbtmHSWfK643hUfu2zgey5R03dTT9zidS2DQAAqGdWDgAAAAAAAAAAALSOBZAAAAAAAAAAAABA61gACQAAAAAAAAAAALSOBZAAAAAAAAAAAABA61gACQAAAAAAAAAAALSOBZAAAAAAAAAAAABA68xOuwHAqXXL2tjYfFkNc2dLf+Kyb82P4zNlMDbWKcNSY5Csyx6WThCLc9eSIa9fukl8fP5akrtS5sL4YpK/WuYnrjvKHeklbYvyo32ykbqzYxLXHW93pxP3xX4nrnutP778wSDpp4NOEk/y+xWX56TuMtiSxEtzmiybU0u6Q6OmebyHDba7yXjW7l5l3f2KsrP4SkV+Te5G8peDWL8idyN112xbVndt20O3VBa+WhFfruwQRyvyjza83VUH5Ry1M4lfGIdvujiI3TnOvXZLVdXl2iC2K8ndEYeHOxbC+KGl8fFDC+fHhS/G4bKUxKOmLd5SN0890uDc46Y4fMVv7p389I5vt0o5mMSv21omtq2y7oMVxzvrK0canM9l+3yhcr8tNVh3Nj5Ep/B5dUPqwkU3h/FdC/vD+PllfHx3EBvZU/aF8YvKdUn+DWNjFyRl704GgPMOJBO6aLcdiFPLocr4SsU8tN/gmNqpjHcr4t3KczCLR+VvbbjuIL6W1N1biHf6aid+frcaDG7Zs78snj3f61U8l8yemdbkZ8+hs7KjZ9xZ+VndNc/XM1ndmaxtNWrbBgAAtJs7AgAAAAAAAAAAAKB1LIAEAAAAAAAAAAAAWscCSAAAAAAAAAAAAKB1LIAEAAAAAAAAAAAAWscCSAAAAAAAAAAAAKB1LIAEAAAAAAAAAAAAWscCSAAAAAAAAAAAAKB1ZqfdAODUZsogiA3D3PnSS+KrYXy2rIXxbulP3LZaw2Dd9iBZ071WumG8nwyJUf5akrtYWfdqmZ84txfkZmVn253lrpa5qrb1y8rEZWdtS/dbd2FsbLab9JV+crx7WV8bb9hPLt2DLXG8l55kk+cOKuP9BsseVGx3llsabFtNu5uue5r7vNdgX2uy7Kz8LHe5wbqzslcqyk5lhWeNW63IP1q5YbX5yw1tF5wtDlTGb5wwVko5fOckfn4c/5dgTrYUp5ZtSTzL3xHExk9xbxVPsfP8TlR2Mk89GIeveOneyevO2l17qVqasF0b0ak43t2K3I3Elxrc54tJPDoFdyW5F8XhzoXx9X37jvGddVcyLu0u+8P4heX6MH5B2Tc2tqfcEObuCXKzskd2r8TbNrd/8iG33JzEDyXxow3OY7M5dmTY8KsLOhXnf3aOZvlbK8rOrmPx45y4/Mqy15K2Ly91K55xTf7sL4v3kwNW27bo2WCWO0wuZNkz1SafBUdlZ7K6s+3ONNm2abULAACgSe5WAAAAAAAAAAAAgNaxABIAAAAAAAAAAABoHQsgAQAAAAAAAAAAgNaxABIAAAAAAAAAAABoHQsgAQAAAAAAAAAAgNaxABIAAAAAAAAAAABoHQsgAQAAAAAAAAAAgNaZnXYDgDtupgyS+LAq3i39MD4bxGvrrjFM1nQPy2oS74TxfjBkrpXuxLkbyV8ry0HZce5qmUvaluXPB+2anTh3I/Fov2Tb1UvKrtlv6XZ1k+3qJnUvBPu8n+zz5bju4Vxy6e9VTA16STweuupy+5Vt61WUPaisu99Qu7Oys/ym9/lKRW6Tx3ul6X5+SxAbP9bf6mhl445W1L1a2bblirKXGxxcgLPbasW4daCu6sG28bGD8XytHNwSx4Oi1x0JYgtJbnxLVJIpeLni9/ZOXncmy19ssOyvqqh7ULnPz0/iu4LYUpJ7Xl3dWy+6aXzR3fgc2pWcYxeW68P4ReXfg1icu6fcEMZ3lxvD+I5yaGxs56F4bNmSDS37k/ihCWMbiUdjx0ambIOK+XupPE9mKs7v+PY8P4+i8pPhPm1bTXxrZdlJ/lqQ31uID9hqJ3tWFF9somcyNc+4NvZ8bnbiurNnaFl+9NwzeyaaPZfMnonW1J0ZpM9zswGgTK1tTaptOwAAwLnGXRQAAAAAAAAAAADQOhZAAgAAAAAAAAAAAK1jASQAAAAAAAAAAADQOhZAAgAAAAAAAAAAAK1jASQAAAAAAAAAAADQOhZAAgAAAAAAAAAAAK1jASQAAAAAAAAAAADQOrPTbgBwasPSmSg2spac2jNlkMSHE8ez3Eynsm01hsma8LnwmMS5WXytdMN4P4hnxzvKHemVuYnz+0ndq2U+KTvO7wX5WdnZPs3yV4P90mTZI/3O+PJXO3Fub2EhrnuQ7Lf++GOyuhznDoPcdctJfCWI9crkuSPddPCZLDbST+KDyniNmrqzfVp7THpTrHu5VFhL4kcr4r3Khmd19ypys7pXK/MBTmUxiV+YxPcEsfMqckdmJ296NreIp3Ol7IjDV/zF3snrLnV1l/9UUXa/su4dFft0VxK/cxzesmP85GNxW3wNPK97IIzfqVwXxveUG8bGdpcbw9wLgtxb6/73JH/f2NjOQbxdW69LJqrji77V/iB2KMk9UjmXjPrqsHJ+PmzwP3PvVN4zba3Iz87Bhcq6FypylyrKTsrvJbmrC9nzmuzZwnyDz2smb1tWd+1zzahttc/natpeW3dmEORn+zRT27ZJ2920JrcLAACAzcUdIAAAAAAAAAAAANA6FkACAAAAAAAAAAAArWMBJAAAAAAAAAAAANA6FkACAAAAAAAAAAAArWMBJAAAAAAAAAAAANA6FkACAAAAAAAAAAAArTM77QYApzYI1if3k1N3pgyS+LA0ZZisq54t/aryo7bXbldN24al0+h+65fuxLlrQe5G+lOUX5M7slrmJs5fLfNhbta2LL+m7rzsydtWs8/W8ztx/monqHsh2+dx3b1+st+Wx8fX+smUZTnerrISh0uvInc5ifcr8mvavZH8zVr3YkXuSNIdykJNu7Pp844kvjWIHa3csJodF7VrI21brai7JncknvcATbtzEr84iF2Y5O6qG/YWKobryvgVH947+bCV3VocSeLfEcTi6Vq+T7NDdtH4CUJ3IR7vl5biDbtTuS5p2vVjY3vKvjD3oqTsPeWGML6zHBgb21EOhrm7V8bnjsztD8Ol3BjEDie5ByrjRyvmVNkcud/gf+6dnWPdirElip2O+NYplV2bn+SuLG0J46vd7B58rsH784WJnz00+Twmy8+eU2XbnT1rip5bZnVnZWfxSdt1Jp7f1cja3qQmtwsAAADOBHe2AAAAAAAAAAAAQOtYAAkAAAAAAAAAAAC0jgWQAAAAAAAAAAAAQOtYAAkAAAAAAAAAAAC0jgWQAAAAAAAAAAAAQOtYAAkAAAAAAAAAAAC0jgWQAAAAAAAAAAAAQOvMTrsBwKkNg/XJa6Ub5nbKsLG6b413xsbWkmFlrqLsrG3d0g9zZ5L9MlMGE+/XbJ9ndWfmy+rEuYNkn2f9Kdrn/SQ3K7uf9JcovyZ3ZLXMTZy/WubD3KxtWX4Uz7crLruXbHd0TLN9ltW91k32S3e+kX22Xnc/2W/LwT5fibe79JLp1EocLssVub3SXN39itzNXnevIrf2mCwH/WVlR1J2Ek+tBbGjlRuWxVcr6s6uoasV8UHldg0q42sNll0bZ3NJrkXlwiR+URC7c1J1MvYk6WVPEFtKcnfUxa94397JT4FOZfwRQSyelpStF90Uxnd3bwzjO8qhsbHt5WCYe1G5PozfpXxl4vzzyoEw94JyQxg/79+Ti/B1QWx/nBrsslsdSeIrFZep/iYerrN+HvXlhSR3Z0XZI1sr6l6qKDsrvyZ3NDNI8nsL4w/Kaie7Z6q7n8vu/2vuY7NnSf2K/Cw3fwY2M/H9f80zro3Ea54FZW3L1LSttu3T1OR2AwAAAJNzxw4AAAAAAAAAAAC0jgWQAAAAAAAAAAAAQOtYAAkAAAAAAAAAAAC0jgWQAAAAAAAAAAAAQOtYAAkAAAAAAAAAAAC0jgWQAAAAAAAAAAAAQOtYAAkAAAAAAAAAAAC0zuy0GwDccYNk7fJqma/KH5ZOGO8HQ8daMqz0SzeMd0s/jM+V1aDuuOzZpOxhsl9my9rY2EwZlBozZRjGuw3WPSy9iXPzvjRTlR8d06zsrK9l/SXq573kHMvrnp34HO5X5G4kP9q2rOxsn2b5q2WuubK748se6XfHl7+6I87tlYW47kGy3/rjj8nqcpw7XInjpbcljq8EseUyee563RX5tWVnbe9v0u3Ocvu12x2c/70dcW7WtvgyFudnl7G6y1ylWyrzaxo//tq/sZ2+VtG2rN1ZhziaxFcryu5VlJ2J58ClJOdJOS+JXzg+NBdfS8pFkxe9bk/FZt05iX9VEt81/jy64h1XhKmdHXFf2rNjXxj/mscfHp9bbghz71KuCeMXJPlL5cjY2M5yIMy9qFwXxnf394fxhQPB2BVXXZLNyvMPTRjbyNBRew2uOf3jqejoRnXy3G1JfKEivrWy7KUkPl+Rm9WdtL0X5C8vJPPz8IBt5L4nmL8nG5bdj9Xcp9bkbuRZUHYfG92j1z6Hyu7/a+rOZG2Lc5t990DtttVoetsAAAAA7ghPKgAAAAAAAAAAAIDWsQASAAAAAAAAAAAAaB0LIAEAAAAAAAAAAIDWsQASAAAAAAAAAAAAaB0LIAEAAAAAAAAAAIDWsQASAAAAAAAAAAAAaJ3ZaTcAOLVBo+uTu2F0mNQ9U4ZBbifM7SfDzloS7wdt75Z+mDtb1sJ4nj8+Pl9WJ95nWdm3itse1z2oqruTtH2zngdZP476UpaftWstKTurOzoPmix7ZLXMT5yb1b1a5ibOj9q1kbZl+fF2123XWifJ74yvu79Qu11J22r2eT/ZruUsP9i25bjdpReH0yF1uSK3tu5eg2XHw31cfpabXQqy/KZyG7elLn0w21xudkx6FfGmz4PlBvtiJhq6lpLcPUn8wiR+cRC7c5w6c+eVML5n174wvlSOjI29c+8Hwtw79a4L43e96l/D+AVlfNt+6qsPxXWXa8P43crVYXz7vqAzxrssj9+cxKNDFh/OUg41fD2oOcey6Xl0OxhPHfL4tiS+UHF+b03iWf58RW7U7g207ZYgf3lrZ+J56EbmktF8MZtLZvcOvTR/8numJu8Vs/uS7F4ye6YS1Z1tV6a2bXHuTIufoU132wAAAADIeUIDAAAAAAAAAAAAtI4FkAAAAAAAAAAAAEDrWAAJAAAAAAAAAAAAtI4FkAAAAAAAAAAAAEDrWAAJAAAAAAAAAAAAtI4FkAAAAAAAAAAAAEDrWAAJAAAAAAAAAAAAtM7stBsA3HGDyrXLwyR/Jol3yrCi7PG5I2ulG8ZnSz/Ina2qOyp7ZL70Gmn3rfE4fy3Iz8rulrUkHudP2hc2ss+z+FwZlM1oWDqV+TMTx7PzP+uLWX4/OI+ysrPt6qf9vDtRuzbStpr8bGzJtmu1zE2cX7vdNfslze0mdXdnm6u7cr9E50F2vAfJ+d/k+d302NOkbLyPc+uuBdm1qkk1x7R2TO315+P8XnAO9pLxvp/cRvayeJlcPKSWMhfPe+aWlsfGdiwdCnMvKteF8TuVa8P4nrJvbOwv9/5+mHvnq+KyL0zatqOM37bvO7IS5s7GRZdgs251IIgdTXL3V5Q9Em1a7dAwU9FXa3JHtibxhSC2lOTGQ0eev7WhdlfWvbK0JUxd7c5XzedWgx0XxU7HvKcXlJ9dK/JrzeRzrpo50eloe01uzTOXac7Xap8VNWma81AAAAAAzn6ePgEAAAAAAAAAAACtYwEkAAAAAAAAAAAA0DoWQAIAAAAAAAAAAACtYwEkAAAAAAAAAAAA0DoWQAIAAAAAAAAAAACtYwEkAAAAAAAAAAAA0DoWQAIAAAAAAAAAAACtMzvtBgCn36Dhtc3DoPyZpO5OGSZlDybetrXSDXNnkrq7yZAYlT9b+knZa2G8Jj/PjeOzSdui/Ca3K9MdxGXPDOPjPTOI43FuHO9MXnS1QYOn/7CTxePKhzNxfBDkD0tn4nFpI/FobMly+8nYU1P3WnXZk++3fJ/GZfcrpplNH+9pXkOblF1js+tgTe5Mcv2O2lZb9kyD213TlzZyDkfnSZa7WubDeK87F9fdHV9+fyk+f2vHh8h8WQ3j55UDYXyxLE9c/s6k7P/vW94Yxsu/xOHy7+NDj9if5B5K4qvp4DZePKUqpVfqRF2xdsiNu3kp24PYUpK7tTIelb/QYNlJ/i1J3ctb4/N3tROPPavBQcnGrdp4NG5m85Ka8Tob99bS3MnnilndTc6RMzXXgrN5Plc7twAAAAAAbs9TNwAAAAAAAAAAAKB1LIAEAAAAAAAAAAAAWscCSAAAAAAAAAAAAKB1LIAEAAAAAAAAAAAAWscCSAAAAAAAAAAAAKB1LIAEAAAAAAAAAAAAWscCSAAAAAAAAAAAAKB1ZqfdAGDzGTS4NnqYlD2TxDtlODa2ltQ9UwZhvJ8Mid2ghpkyN3HuyGwSj9qel92vattcWQ1y+43WHZW/1omP12wnKXsmbtvMcHxfmxmMj23ElrgrjjrjeIPKC3vW9KxtYdlZ4XX7jbPsP2VpsjsMGsytPYcGDZYdD2tx+b2K3JEGx7VG+1J2DnWSeDeJL1TEmyx7I+VHVpJ4zTE9Gof3vuyKMH7o0OTH9F+zc+hA5X4ZVvTFJvvD9sqys/ytQWypIncj8aXJc1eWtoTx1e58HA/uD1ZLlhvH15IOEeWvJbPFflJ2TX52L5iVnd2nDoMTPKs7i9fcI0ft2lj+TCvv/ae5XQAAAADAucXTRgAAAAAAAAAAAKB1LIAEAAAAAAAAAAAAWscCSAAAAAAAAAAAAKB1LIAEAAAAAAAAAAAAWscCSAAAAAAAAAAAAKB1LIAEAAAAAAAAAAAAWmd22g0Azi6DhtdVD4PyZ8qwqm2dJL+m7rXSDeNZfrf0x8Z6Se5sWZu47JHVMj9x7mwan7xtWdndrOxOkt8Znz/bTcoeJNvdz9o2PralF6aWZLfkou40qKx7UBGPu3l922q2O4uXKdZds9/6DZadxbOys/Mgy+832JdqzoNsu9YarLvJ83cjx6RJ0eV/LsmNL9+lLCTx8ZfQWy1V1B1cK6rbnvTFvb95RamytWK7VpJ4lr99wnaNXFTZH5Yq6o7avZH8irpviXJHc8WFLWF8ubs4Pjc5CaN5aG28l+T2k5NoLXmcEt17ZPcG0X3HRuJR3cPkJJlm3Zms7s18Hzut7QIAAAAAOBd4ygoAAAAAAAAAAAC0jgWQAAAAAAAAAAAAQOtYAAkAAAAAAAAAAAC0jgWQAAAAAAAAAAAAQOtYAAkAAAAAAAAAAAC0jgWQAAAAAAAAAAAAQOtYAAkAAAAAAAAAAAC0zuy0GwBwosEU12UPk7pngninDMPctaTumTII4/1guM7qni39MN4rc0nbxpc/m2xZN6k7KvvW8sfnd5O6s+3O2hZt23xZjcvuJHV3krYvjI93B0m7+8kxidPLll4QTHIbjUftGolPoTqDKW5303VH+3U4xbprcjcy6Nb0tSaPd5ab9Ie1JH8tyB9mZWf9oUGzydRgLr6MldluEFxIKt9apifZrr1vviL+B/NJ+dsr9svFlfttR0Vu7TGLtnupruy1JL68NL4zLpfFMHc1OaA18bUSnSSjePzYoF+RX5O7kfl7dG+RbXempu5h6TRa99l6PwYAAAAAAKfi6TIAAAAAAAAAAADQOhZAAgAAAAAAAAAAAK1jASQAAAAAAAAAAADQOhZAAgAAAAAAAAAAAK1jASQAAAAAAAAAAADQOhZAAgAAAAAAAAAAAK1jASQAAAAAAAAAAADQOrPTbgDA6TKY4pruYVL3TBlWtb0T5K8lbesnQ33WtqjuLLdb+lV1zwZbN1MGSd3xnqlp+2yyXVG7s7Kz8rudpOxOXHZ3YW3its/3V+PcXnI8+2lnnSy2kXivIn+lsu6aeE27NxLvVuQymWi4zy5j8SlWZrsVE/+k7FTW9qhtnSR3oaLsLH9rkruUxOfj8N73XBH/g+0TxkYuT+I7kvi2iu3OjkmyX1eWtoyNrXbjnbpa5pJ4nL9cFsfG+kln6iVlZ3OuKD+bC64lbVtL6o7KHyYnYTbPzeI1c/SsbXn+zFl5bwEAAAAAAPwHT9UBAAAAAAAAAACA1rEAEgAAAAAAAAAAAGgdCyABAAAAAAAAAACA1rEAEgAAAAAAAAAAAGgdCyABAAAAAAAAAACA1rEAEgAAAAAAAAAAAGid2Wk3AKAtBlNcMz4M6p4pw6p2d5L8tSA2UwZhbj+5zGR1R9uW1Z2VPRtuWV3d3aTs2dKfuO1ZbrZd3SQ/2u5uN87tduu2O9pvaW4/qbuX9Ieo+Ljq+ngviK00XHe/oXY3XfdgE9c9rMjPym5SJ4l3G4wvJLmV8b0fvGJ88Jak7Nr4o+Pw2vbxsSNL8YatlrkwvlwWw3g/OCirZT7MXUsOeNa2KD+a82TtvrXseO4RlZ/NmYbJiZK1vcm6M1nbzsY5MgAAAAAAcG7w1wIAAAAAAAAAAACgdSyABAAAAAAAAAAAAFrHAkgAAAAAAAAAAACgdSyABAAAAAAAAAAAAFrHAkgAAAAAAAAAAACgdSyABAAAAAAAAAAAAFrHAkgAAAAAAAAAAACgdWan3QCAc8FgE683HyZtmynDiberE+SOrCVtmymDidq1EVnbovKjdm2k7Nlky6db9/jyuxW5G6m7E+Rnud1uP25bN94v3dKfeLtr9ul6+f3x+bO9uN2d5DTY0ovjwWbHsZHsFOxV5NfkbqTtg4qy48PZrE4Szy413QljI3NJfCEO7/3zK8bG1pJ292biDV8dzMfx79k5PlaS3Mr4WrJjo/y15Fatn5Sd5UfX/+z6Pkw6Yza3qKk7k7Utzp1p7Xyvtu0AAAAAAABt5a8kAAAAAAAAAAAAQOtYAAkAAAAAAAAAAAC0jgWQAAAAAAAAAAAAQOtYAAkAAAAAAAAAAAC0jgWQAAAAAAAAAAAAQOtYAAkAAAAAAAAAAAC0jgWQAAAAAAAAAAAAQOvMTrsBANQZbOK17MPKts1U5HfKMIyvpXUPglhcdm3bovKjdtWWnded5TbXtqzubulPXHbt8a6uuzs+3u3Wld2p2O5ucpbU9KWs7s4gyR0m8SS/xkzczVPDzvjYWjeemg868ZjYK/Nh/A/3/sXYWL90w9y1JN5Pbit6F3zjxHVn15Ks7qjtWdl53XVtj+LZ9X1Ygs50Bq7Rm3Vu0uR2AQAAAAAAsPn46xAAAAAAAAAAAADQOhZAAgAAAAAAAAAAAK1jASQAAAAAAAAAAADQOhZAAgAAAAAAAAAAAK1jASQAAAAAAAAAAADQOhZAAgAAAAAAAAAAAK1jASQAAAAAAAAAAADQOrPTbgAAm9ugpWvlh0m7Z8qwse3uJGWvJfkzZTBx3dl21bQ9K7um3fV118VrtqvTYNuarjvOHUxtn5dOEu4kfa07edWDrPLKsSeKv33vn4e5a8nUvZ9s+Fr5+onatZExcZjst6j82rozWdvi3JnWXkNr2w4AAAAAAABt4K9iAAAAAAAAAAAAQOtYAAkAAAAAAAAAAAC0jgWQAAAAAAAAAAAAQOtYAAkAAAAAAAAAAAC0jgWQAAAAAAAAAAAAQOtYAAkAAAAAAAAAAAC0zuy0GwAA4wxauk5/WNnumQa3u1OGYXwtiM2UwWlvz8nlx22r2a6aumu3u6ZtNfukNr+27raeo+/c+/7KsjsT1z0sd2p0TIzaVjtubebxvOltAwAAAAAAAKbHXwMBAAAAAAAAAACA1rEAEgAAAAAAAAAAAGgdCyABAAAAAAAAAACA1rEAEgAAAAAAAAAAAGgdCyABAAAAAAAAAACA1rEAEgAAAAAAAAAAAGgdCyABAAAAAAAAAACA1pmddgMAYBoG5+h/AzCs2O6ZKe6zThmG8bXK8mfKoLKEqOy47dPcb5v1HHzP3vdWlT0snYrcHeVsHXtqzn8AAAAAAACAzchfQQEAAAAAAAAAAIDWsQASAAAAAAAAAAAAaB0LIAEAAAAAAAAAAIDWsQASAAAAAAAAAAAAaB0LIAEAAAAAAAAAAIDWsQASAAAAAAAAAAAAaB0LIAEAAAAAAAAAAIDWmZ12AwCAkw389wm3M2x4n8zY57fznr3vnWLt863uTwAAAAAAAACcGf76CwAAAAAAAAAAALSOBZAAAAAAAAAAAABA61gACQAAAAAAAAAAALSOBZAAAAAAAAAAAABA61gACQAAAAAAAAAAALSOBZAAAAAAAAAAAABA61gACQAAAAAAAAAAALTO7LQbAAC0w+As/u8mom3rlGHZrN6z970Nln72Hm8AAAAAAAAAzg7+sg0AAAAAAAAAAAC0jgWQAAAAAAAAAAAAQOtYAAkAAAAAAAAAAAC0jgWQAAAAAAAAAAAAQOtYAAkAAAAAAAAAAAC0zuy0G0B7fPGLXyx/9Vd/Vb7yla+UXq9Xdu3aVe5973uXyy67rCwsLJzx9vT7/fL5z3++fOYznynXXXddOXToUNm2bVs5//zzy33ve9/yjd/4jWVmxhpfAAAAAAAAAACAs5EFkKTe/e53l//+3/97+dSnPnXK+GjR4ZOf/OTyghe8oOzZs6fRtnzpS18q73jHO8oHPvCB8vGPf7wsLy+P/bfnnXdeeeITn1ie/exnl6/92q9ttF0AnL0GyQuzr9i794y1BQAAAAAAAAD4D16Px1irq6vrCwgf85jHjF38OHL48OHy6le/ulxyySXlox/9aGNtuf/971/uec97luc85znrCyCjxY8jN998c/mt3/qt9TdBvvzlLy+33HJLI20DAAAAAAAAAADgzLMAklMaDofl8Y9/fPn93//9kz7vdDrlq7/6q8ull166/obFE+3bt6889KEPLZ/4xCca+brrT37yk6eMjb5+e9Sm+93vfuuLMOfm5k6Kj76u++d+7ufKj//4j5/2dgEAAAAAAAAAADAdFkBySr/+679e/uRP/uSkz575zGeWq6++ulx11VXl05/+dNm/f3/54z/+43K3u93t+L85evRoedzjHrf+9sUmjRY8vvCFLyx/+Zd/WQ4ePLjepr/6q78qn/nMZ8qBAwfK7/3e75W73/3uJ+W85jWvWX9TJQAAAAAAAAAAAO1nASS3c+ONN5aXvOQlJ3320pe+tLz2ta8tF1988fHPZmZm1r8e+8orryz3uMc9jn/+la98pbziFa9opG0PeMADyp/92Z+VL37xi+UFL3hBueyyy0q32z3p3ywuLq5/dfdokeborZAn+qVf+qX1hZsAAAAAAAAAAAC0mwWQ3M7LXvaycujQoeO/f9d3fVd57nOfO/bf3+UudylveMMbTvrsla985fpCytNl9LXWe/fuLR//+MfLgx/84LJly5Y0Z9euXeXd7353WVpaOv7Z6O2Q73znO09buwAAAAAAAAAAAJgOCyA5yXA4LG9605tO+mz0VdPZgsPv+77vK9/5nd95/PfRAsq3ve1tp3UB5MMf/vA7nDd6Y+WTnvSkkz4bvUESAAAAAAAAAACAdrMAkpOMvs563759x3+/5z3vWS6//PIN5T7taU876ffR2xc3gxMXZo5cffXVU2sLAAAAAAAAAAAAp8fsaSqHs8QVV1xx0u8PetCDNvR108f+7Yk+/OEPlyNHjpz0FdTTMPoq7BPdfPPNU2sLAM24Yu/eaTcBAAAAAAAAADjDvAGSk/zd3/3dSb9fdtlld+jrpu9xj3sc/73X65XPfvazZdquueaak34///zzp9YWAAAAAAAAAAAATg8LIDnJ5z73uZN+v+SSS+5Q/m3//W3Lm4aPfexjJ/3+dV/3dVNrCwAAAAAAAAAAAKeHBZAct7y8XK6++uqTPrvrXe96h8q47b///Oc/X6bp4MGD5R3veMdJnz3sYQ+bWnsAAAAAAAAAAAA4PWZPUzmcBW644YZyyy23HP+92+2WCy+88A6VcZe73OWk36+//voyTb/yK79SDh8+fPz3PXv2lEc84hGnrfzR9u3bt+8O5XzhC184bfUDAAAAAAAAAACcqyyA5LgTFwqObN26tWzZsuUOlbG0tBSWeSZdeeWV5RWveMVJnz3/+c9f367T5TWveU150YtedNrKAwAAAAAAAAAAYGN8BTZjFysuLCzc4TIWFxfDMs+U0ZsZf+iHfqgMBoPjn93vfvcrP/7jPz6V9gAAAAAAAAAAAHB6WQDJcSsrKyf9Pjc3d4fLmJ+fP+n35eXlcqatrq6WxzzmMeVf//Vfj3+2ffv28gd/8Ael0+mc8fYAAAAAAAAAAABw+vkKbMa+8bHX6020+DAqs2nD4bA88YlPXP/662NGix5///d/v9zrXvc67fU961nPKo997GPvUM4XvvCF8uhHP/q0twVgs7ti795pNwEAAAAAAAAAOItYAMlx27ZtC98IuRG3fePjbcts2mhB4jve8Y7jv2/ZsqW8/vWvL4985CMbqe/CCy9c/wEAAAAAAAAAAODM8hXYjF2sePTo0XLLLbfcoTKOHDkSltmk5z3veeV3fud3TvrsN37jN8pTnvKUM9YGAAAAAAAAAAAAzgwLIDluz549629MPKbf75frr7/+DpVxzTXXnPT7mXo74q/+6q+u/5zol3/5l8tP//RPn5H6AQAAAAAAAAAAOLMsgOS4xcXFcre73e2kz66++uo7VMZt//29733v0rTf+q3fWn/744me/exnlxe96EWN1w0AAAAAAAAAAMB0WABJuGDxs5/97B3K/9znPheWd7q9+c1vLj/xEz9x0mdPfepTyytf+cpG6wUAAAAAAAAAAGC6LIDkJJdeeulJv1955ZUbzr322mvLl7/85eO/d7vdcskll5SmvPOd71xf7HjLLbcc/+xxj3tcef3rX3/SV3kDAAAAAAAAAABw9pmddgPYXB7xiEeUX/u1Xzv++wc/+MH1BYYbWVD4/ve//6Tfv+d7vqds27atkXa+733vK094whPKYDA4/tnDH/7w8pa3vKXMzFjXCzDOFXv3TrsJAAAAAAAAAACnhZVinOSyyy4re/bsOf77VVddVT784Q9vKPeNb3zjSb8/6lGPKk34yEc+Un7gB36g9Hq9kxZbvuMd71h/6yQAAAAAAAAAAABnPwsgOcno7YlPfvKTT/rsRS960UlfM30qH/rQh8rHPvax479v3759/euoT7e/+Zu/KY985CPL8vLy8c/uf//7l/e85z1lYWHhtNcHAAAAAAAAAADA5mQBJLfz3Oc+96Svrh69cfHEr8W+rWuuuaY8/elPP+mzZz/72Se9SfJURl+rfeJP9qbJz3zmM+UhD3lIOXTo0PHPLr300vWvw27qq7YBAAAAAAAAAADYnGan3QA2n9HCxV/4hV9Y/znmec97Xrn66qvL85///HLxxRevfzYcDtffvDha7DiKHTOK/+zP/uxpbdO1115bHvzgB5cbb7zx+GdLS0vlOc95zvpbIe+oBz7wgae1fQAAAAAAAAAAAJxZFkAy9i2QV155Zdm7d+/xz1772teW173udeXud797Oe+888qXvvSlcuDAgZPyFhcXy9ve9rayc+fO09qez3/+8+Xf/u3fTvrsyJEj5QlPeMJE5WVf6Q0AAAAAAAAAAMDm5iuwOaWZmZny9re/vfzQD/3QSZ8PBoNy1VVXlU9/+tO3W/x4/vnnl/e+973lAQ94wBluLQAAAAAAAAAAAOcaCyAZa2Fhobz1rW8t73jHO8qll1469t+Nvor6Wc96VvnsZz9bLr/88jPaRgAAAAAAAAAAAM5NvgKb1A/8wA+s/3zhC18on/zkJ8s111xTer3e+tdc3+c+91l/4+NosWSTX0M9Wljpa6uBs8UVe/dOuwkAAAAAAAAAAK1nASQbdq973Wv9BwAAAAAAAAAAAKbNV2ADAAAAAAAAAAAArWMBJAAAAAAAAAAAANA6FkACAAAAAAAAAAAArWMBJAAAAAAAAAAAANA6FkACAAAAAAAAAAAArWMBJAAAAAAAAAAAANA6s9NuAABMwxV79067CQAAAAAAAAAAVPAGSAAAAAAAAAAAAKB1LIAEAAAAAAAAAAAAWscCSAAAAAAAAAAAAKB1LIAEAAAAAAAAAAAAWscCSAAAAAAAAAAAAKB1LIAEAAAAAAAAAAAAWscCSAAAAAAAAAAAAKB1ZqfdAAAY54q9e6fdBAAAAAAAAAAANilvgAQAAAAAAAAAAABaxwJIAAAAAAAAAAAAoHUsgAQAAAAAAAAAAABaxwJIAAAAAAAAAAAAoHUsgAQAAAAAAAAAAABaxwJIAAAAAAAAAAAAoHVmp90AADa3K/bunXYTAAAAAAAAAADgdrwBEgAAAAAAAAAAAGgdCyABAAAAAAAAAACA1rEAEgAAAAAAAAAAAGgdCyABAAAAAAAAAACA1rEAEgAAAAAAAAAAAGgdCyABAAAAAAAAAACA1rEAEgAAAAAAAAAAAGid2Wk3AIDcFXv3TrsJAAAAAAAAAACwqXgDJAAAAAAAAAAAANA6FkACAAAAAAAAAAAArWMBJAAAAAAAAAAAANA6FkACAAAAAAAAAAAArWMBJAAAAAAAAAAAANA6FkACAAAAAAAAAAAArWMBJAAAAAAAAAAAANA6s9NuAEBbXLF377SbAAAAAAAAAAAA/P95AyQAAAAAAAAAAADQOhZAAgAAAAAAAAAAAK1jASQAAAAAAAAAAADQOhZAAgAAAAAAAAAAAK1jASQAAAAAAAAAAADQOhZAAgAAAAAAAAAAAK1jASQAAAAAAAAAAADQOrPTbgDA6XLF3r3TbgIAAAAAAAAAAHCGeAMkAAAAAAAAAAAA0DoWQAIAAAAAAAAAAACtYwEkAAAAAAAAAAAA0DoWQAIAAAAAAAAAAACtYwEkAAAAAAAAAAAA0DoWQAIAAAAAAAAAAACtMzvtBgBnlyv27p12EwAAAAAAAAAAgHOAN0ACAAAAAAAAAAAArWMBJAAAAAAAAAAAANA6FkACAAAAAAAAAAAArWMBJAAAAAAAAAAAANA6FkACAAAAAAAAAAAArWMBJAAAAAAAAAAAANA6FkACAAAAAAAAAAAArTM77QYAp98Ve/dOuwkAAAAAAAAAAACN8gZIAAAAAAAAAAAAoHUsgAQAAAAAAAAAAABaxwJIAAAAAAAAAAAAoHUsgAQAAAAAAAAAAABaxwJIAAAAAAAAAAAAoHUsgAT+f+zdB5xU1b048LM0QUBBEGJBFI0oNsRgwagYu4DRGNGnPmtMojH28uz6NNHYzUs0wR5L7D367KioT6MGGzwVkWoBsdFBmP/n3Pdh/zvLlpnd2Zm5s9/v5zMx986595yd5f72zLm/ew4AAAAAAAAAAEDqSIAEAAAAAAAAAAAAUqddqRsArd2Lo0eHlT9ZudTNAAAAAAAAAAAASBUzQAIAAAAAAAAAAACpIwESAAAAAAAAAAAASB0JkAAAAAAAAAAAAEDqSIAEAAAAAAAAAAAAUkcCJAAAAAAAAAAAAJA6EiABAAAAAAAAAACA1JEACQAAAAAAAAAAAKSOBEgAAAAAAAAAAAAgdSRAAgAAAAAAAAAAAKkjARIAAAAAAAAAAABIHQmQAAAAAAAAAAAAQOpIgAQAAAAAAAAAAABSRwIkAAAAAAAAAAAAkDoSIAEAAAAAAAAAAIDUkQAJAAAAAAAAAAAApI4ESAAAAAAAAAAAACB1JEACAAAAAAAAAAAAqSMBEgAAAAAAAAAAAEgdCZAAAAAAAAAAAABA6kiABAAAAAAAAAAAAFJHAiQAAAAAAAAAAACQOhIgAQAAAAAAAAAAgNSRAAkAAAAAAAAAAACkjgRIAAAAAAAAAAAAIHUkQAIAAAAAAAAAAACpIwESAAAAAAAAAAAASB0JkAAAAAAAAAAAAEDqSIAEAAAAAAAAAAAAUkcCJAAAAAAAAAAAAJA6EiABAAAAAAAAAACA1JEACQAAAAAAAAAAAKSOBEgAAAAAAAAAAAAgdSRAAgAAAAAAAAAAAKkjARIAAAAAAAAAAABIHQmQAAAAAAAAAAAAQOpIgAQAAAAAAAAAAABSRwIkAAAAAAAAAAAAkDoSIAEAAAAAAAAAAIDUkQAJAAAAAAAAAAAApI4ESAAAAAAAAAAAACB1JEACAAAAAAAAAAAAqSMBEgAAAAAAAAAAAEgdCZAAAAAAAAAAAABA6kiABAAAAAAAAAAAAFJHAiQAAAAAAAAAAACQOhIgAQAAAAAAAAAAgNSRAAkAAAAAAAAAAACkjgRIAAAAAAAAAAAAIHUkQAIAAAAAAAAAAACpIwESAAAAAAAAAAAASB0JkAAAAAAAAAAAAEDqSIAEAAAAAAAAAAAAUkcCJAAAAAAAAAAAAJA6EiABAAAAAAAAAACA1JEACQAAAAAAAAAAAKSOBEgAAAAAAAAAAAAgdSRAAgAAAAAAAAAAAKkjARIAAAAAAAAAAABIHQmQAAAAAAAAAAAAQOpIgAQAAAAAAAAAAABSRwIkAAAAAAAAAAAAkDoSIAEAAAAAAAAAAIDUkQAJAAAAAAAAAAAApI4ESAAAAAAAAAAAACB1JEACAAAAAAAAAAAAqSMBEgAAAAAAAAAAAEgdCZAAAAAAAAAAAABA6kiABAAAAAAAAAAAAFJHAiQAAAAAAAAAAACQOhIgAQAAAAAAAAAAgNSRAAkAAAAAAAAAAACkjgRIAAAAAAAAAAAAIHUkQAIAAAAAAAAAAACpIwESAAAAAAAAAAAASB0JkAAAAAAAAAAAAEDqSIAEAAAAAAAAAAAAUkcCJAAAAAAAAAAAAJA6EiABAAAAAAAAAACA1JEACQAAAAAAAAAAAKSOBEgAAAAAAAAAAAAgdSRAAgAAAAAAAAAAAKkjARIAAAAAAAAAAABIHQmQAAAAAAAAAAAAQOpIgAQAAAAAAAAAAABSRwIkAAAAAAAAAAAAkDoSIAEAAAAAAAAAAIDUkQAJAAAAAAAAAAAApI4ESAAAAAAAAAAAACB1JEACAAAAAAAAAAAAqSMBEgAAAAAAAAAAAEgdCZAAAAAAAAAAAABA6kiABAAAAAAAAAAAAFJHAiQAAAAAAAAAAACQOhIgAQAAAAAAAAAAgNSRAAkAAAAAAAAAAACkjgRIAAAAAAAAAAAAIHUkQAIAAAAAAAAAAACpIwESAAAAAAAAAAAASB0JkAAAAAAAAAAAAEDqSIAEAAAAAAAAAAAAUkcCJAAAAAAAAAAAAJA6EiABAAAAAAAAAACA1JEACQAAAAAAAAAAAKSOBEgAAAAAAAAAAAAgdSRAAgAAAAAAAAAAAKkjARIAAAAAAAAAAABIHQmQAAAAAAAAAAAAQOpIgAQAAAAAAAAAAABSRwIkAAAAAAAAAAAAkDoSIAEAAAAAAAAAAIDUkQAJAAAAAAAAAAAApI4ESAAAAAAAAAAAACB1JEACAAAAAAAAAAAAqSMBEgAAAAAAAAAAAEgdCZAAAAAAAAAAAABA6kiABAAAAAAAAAAAAFJHAiQAAAAAAAAAAACQOhIgAQAAAAAAAAAAgNSRAAkAAAAAAAAAAACkjgRIAAAAAAAAAAAAIHUkQAIAAAAAAAAAAACpIwESAAAAAAAAAAAASB0JkAAAAAAAAAAAAEDqSIAEAAAAAAAAAAAAUkcCJAAAAAAAAAAAAJA6EiABAAAAAAAAAACA1JEACQAAAAAAAAAAAKSOBEgAAAAAAAAAAAAgdSRAAgAAAAAAAAAAAKkjARIAAAAAAAAAAABIHQmQAAAAAAAAAAAAQOpIgAQAAAAAAAAAAABSRwIkAAAAAAAAAAAAkDoSIAEAAAAAAAAAAIDUkQAJAAAAAAAAAAAApI4ESAAAAAAAAAAAACB1JEACAAAAAAAAAAAAqSMBEgAAAAAAAAAAAEgdCZAAAAAAAAAAAABA6kiABAAAAAAAAAAAAFJHAiQAAAAAAAAAAACQOhIgAQAAAAAAAAAAgNSRAAkAAAAAAAAAAACkjgRIAAAAAAAAAAAAIHUkQAIAAAAAAAAAAACpIwESAAAAAAAAAAAASJ12pW4A6fHxxx+H119/PUybNi0sWrQodO/ePWywwQZhyJAhoWPHjiVrVyaTCW+99VYYO3ZsmDFjRrKvd+/eYbPNNguDBg0KVVVVJWsbAAAAAAAAAAAALUMCJI166KGHwoUXXpgkGdalS5cu4bDDDgvnnXde6NmzZ9HatXjx4nDNNdeEq6++OkyfPr3OMmuuuWY44YQTwnHHHRfat29ftLYBAAAAAAAAAADQsiyBTb0WLlwYDj744LDPPvvUm/wYzZkzJ/zpT38KAwYMCC+++GJR2jZ16tSw1VZbhVNPPbXe5McozlZ5yimnhG222abBcgAAAAAAAAAAAKSLBEjqtHTp0rD//vuHO+64I2t/27ZtwzrrrBMGDhwYVl555az3Zs6cGfbYY4/w6quvtmjb4jLXO+64Y/jXv/6Vtb9Tp05ho402ChtuuOFyS3K/+eabyTFffvlli7YNAAAAAAAAAACA4pAASZ0uu+yy8PDDD2ft+/Wvfx2mTJkSJk6cmCQffvXVV+GBBx4Ia621VnWZefPmhZEjR4Zvv/22xdoWl9v++OOPq7djsmNcBjsmN7733nth3Lhxyf+/8sorsxIhP/roo3DEEUe0WLsAAAAAAAAAAAAoHgmQLGfWrFnhd7/7Xda+iy++OFx33XVh9dVXr97Xpk2bZHnsV155Jay99tpZy07H5MOW8NRTT4Unnniiert9+/bhySefDMcff3xYccUVq/d37tw5nHjiieG///u/kzLLPProo+H5559vkbYBAAAAAAAAAABQPBIgWc6ll14aZs+eXb29/fbbh9NPP73e8mussUa44YYbsvZdddVVSSJloZ1zzjlZ2//xH/+RtK8+O+yww3JtP/vsswveLgAAAAAAAAAAAIpLAiRZli5dGm6++easfeeff36oqqpq8LiddtopbLfddtXbMYHynnvuKWjb3n333fD6669nzfJ46qmnNnrcaaedlpRdJs5YOX78+IK2DQAAAAAAAAAAgOKSAEmWmBw4c+bM6u1+/fqFoUOH5nTskUcembX90EMPFbRtDz/8cNb2yJEjQ9euXRs9LpbZb7/9WrRtAAAAAAAAAAAAFJcESLL84x//yNreZZddGp39sWbZmkaPHh3mzp3bYm3bddddcz62dtsee+yxgrULAAAAAAAAAACA4pMASZaxY8dmbQ8ZMiTnY1dfffWw9tprV28vWrQojBs3riDtymQy4Z133mly27bddtus7bfffjs5JwAAAAAAAAAAAOkkAZIs48ePz9oeMGBAXsfXLl/7fE01efLkMG/evOrtzp07h7XWWivn4/v27RtWXHHF6u04M+XUqVML0jYAAAAAAAAAAACKTwIk1ebPnx+mTJmSta9Pnz55naN2+Q8++KAgbat9nnzb1ZJtAwAAAAAAAAAAoPjalaBOytSXX36ZtSx0+/btQ69evfI6xxprrJG1PWPGjIK0rfZ51lxzzbzPEdtWM+mxEG2L55g5c2Zex9ReFnz2Z3Oa3Q4AAAAAAAAAACC9aucQLVy4sGRtSRMJkFSbMyf7IopLRldVVeV1jrg0dUPnLFTbatdTqrZde+214YILLmjWOV7+3avNbgcAAAAAAAAAAFA5pk6dGgYNGlTqZpQ9S2BTb0Jgx44d8z5Hp06dGjxnJbYNAAAAAAAAAACA4pMASbUFCxZkbXfo0CHvc6ywwgpZ2/Pnzw+V3jYAAAAAAAAAAACKzxLY1Dur4qJFi/I+R+2155syU2Oa2nbMMceE/fbbL69jxo4dGw4++ODq7XvuuScMGDCg2W0BKKUJEyaEvffeu3r7oYceCuutt15J2wRQCOIbUInENqASiW1AJRLbgEolvgGVSGyjEGJuU1z2epkddtihpO1JCwmQVOvSpUuDsy7movasirXPWWlt69WrV/Jqjpj8uNFGGzW7LQDlJHbmxTagEolvQCUS24BKJLYBlUhsAyqV+AZUIrGNpho0aFCpm5A6lsCm3oTAefPmhUwmk9c55s6d2+A5C9W22vWUsm0AAAAAAAAAAAAUnwRIqvXs2TNUVVVVby9evDjMmDEjr3NMnz49a7u5syPWd55p06blfY6WahsAAAAAAAAAAADFJwGSap06dQprrbVW1r4pU6bkdY7a5TfYYIOCtK1///5Z2zXXu89V7WMK1TYAAAAAAAAAAACKTwIkDSYFjhs3Lq/jx48f3+D5mqpv375JgmbN5awnT56c8/GxbFzSe5nOnTuHPn36FKRtAAAAAAAAAAAAFJ8ESLIMHDgwa/uVV17J+djPPvssTJo0qXq7ffv2YcCAAQVpV1yae9NNN21y215++eWs7Xiumst9AwAAAAAAAAAAkC4SIMkyfPjwrO1nnnkmZDKZnI596qmnsrZ33HHH0KVLlxZr29NPP53zsbXLjhgxomDtAgAAAAAAAAAAoPgkQJJlyJAhoWfPntXbEydODKNHj87p2BtvvDFr+6c//WlB27bXXntlbd97771hzpw5jR43e/bspGxLtg0AAAAAAAAAAIDikgBJljZt2oTDDjssa98FF1zQ6CyQzz77bHjppZeqt7t27RpGjhxZ0LbFZasHDx5cvR2THy+99NJGj4tl5s6dW7299dZbF2xpbgAAAAAAAAAAAEpDAiTLOf3007OWrn7hhRfCH/7wh3rLT58+PfziF7/I2nf88cdnzSRZl6qqqqxXLjNN/ud//mfW9iWXXBJefPHFesvX1faLLrqo0XoAAAAAAAAAAAAobxIgWU5MXDzzzDOz9p1xxhnhmGOOCZ9++mn1vqVLl4aHHnooWTZ70qRJ1ftXX331cPLJJ7dI23bfffew6667Vm8vXrw47LbbbuGaa64J8+bNq94fZ3y8+uqrk/KxzDJ77rln2GmnnVqkbQAAAAAAAAAAABSPBEjqnQVy+PDhWfuuu+66sNZaa4V11103DBo0KPTo0SPss88+YcqUKdVlOnXqFO65557QrVu3Fmvb3/72t7DOOutUby9YsCCccMIJSeLmxhtvHDbaaKPk/5944onJe8vEdt9yyy0t1i4AAAAAAAAAAACKp10R6yJF2rRpE+69995w+OGHh7vuuqt6/5IlS8LEiRPrPCYmRN53331h2223bdG29e7dOzz//PPhpz/9aXj77ber98+fPz+8//77dR4zcODA8Mgjj4RVV101lFpsw3nnnZe1DZB2YhtQqcQ3oBKJbUAlEtuASiS2AZVKfAMqkdgGpVOVyWQyJayfFLj//vvDRRddFMaOHVvn+507dw6HHnpoEsh79eqV83mrqqqytmNS49ChQ3M+ftGiRcky13H565pLc9cUl+OOs0Mef/zxoUOHDjmfGwAAAAAAAAAAgPImAZKcTZgwIbz22mth+vTpSfJhXOZ6ww03TGZ87NixY8natXTp0vDmm28ms0HOmDEj2RcTMeOsj3Gp7jibJQAAAAAAAAAAAJVFAiQAAAAAAAAAAACQOqbGAwAAAAAAAAAAAFJHAiQAAAAAAAAAAACQOhIgAQAAAAAAAAAAgNSRAAkAAAAAAAAAAACkjgRIAAAAAAAAAAAAIHUkQAIAAAAAAAAAAACpIwESAAAAAAAAAAAASB0JkAAAAAAAAAAAAEDqSIAEAAAAAAAAAAAAUkcCJAAAAAAAAAAAAJA6EiABAAAAAAAAAACA1GlX6gZAMX388cfh9ddfD9OmTQuLFi0K3bt3DxtssEEYMmRI6NixY8nalclkwltvvRXGjh0bZsyYkezr3bt32GyzzcKgQYNCVVVVweqaNWtWePnll5PPYu7cuaFz585h3XXXDdtuu23o0aNHweoBWm9sW7x4cfjggw/C+++/H7744oswe/bs0KVLlyTGbLrppmHjjTcObdp4BgNIV2wrBf02qDxiG0DxGG8DKo0xN4DC0HcDgAqUgVbgwQcfzAwaNCgT/8nX9erSpUvm2GOPzcycObOo7Vq0aFHmsssuy6yxxhr1tm3NNdfMXH755UnZ5hg7dmxmr732yrRp06bOetq2bZu8//bbbxfs5wNaT2ybOHFi5tJLL83ssssumU6dOtXbpvhaeeWVM7/5zW8yH374Yd713HzzzQ2eu7HXDjvs0CI/P1CZsS3GjObEnBizmkK/DSpPucS2vn37Niuu1XwdeuihDdal3waVbdq0aZkHHnggc/rpp2d23HHHTNeuXbOu4RhvSsV4G1BJ8c2YG1CJsc2YGwBQaBIgqWgLFizIHHTQQTl3mFddddXMCy+8UJS2TZkyJbP55pvn3LYtttgi+YLSFFdffXWmXbt2OdUTy/3xj38s+M8LVGZsi23ZaqutmjRI0aFDh+Sm1NKlS3Ouz2AsVK5yim2lHIzVb4PKUm6xrZAJkEcddVSDdem3QeUZM2ZMZp999smsvvrqjV7DpUqANN4GVEp8M+YGVGJsW8aYG1Bpyd0eOobSswQ2FWvp0qVh//33Dw8//HDW/rZt24a11lorrLzyyuGTTz4J3377bfV7M2fODHvssUd45plnwjbbbNNibYvL7uy4447J1Oo1derUKfTr1y9pe2zbggULqt978803k2NeeeWV0LNnz5zruvLKK8PJJ5+83P7VVlstrL766uHTTz8Nn332WfX+77//Phx33HHJMkHxv0B5KbfYFpfeee211+p8Ly7jGGNNjFlxGYkJEyYkSz0uE///qaeemrT3z3/+c0HbBaRLucW2UtFvg8pS6bFt+PDhpW4CUGT//Oc/w4MPPhjKlfE2oJLimzE3oBJjW6nou0HliMvXX3HFFUk/KV67lahDhw6lbgKkkgRIKtZll1223I2mX//61+Gcc85JOrNRHPiMZU444YQwZcqUZN+8efPCyJEjw3vvvZfckGoJhx12WNZgbBywuOSSS8JRRx0VVlxxxWRfHLgYNWpUOPPMM6sHZj/66KNwxBFHhEceeSSneuLg7WmnnZa1b+jQoUmnYNCgQdX73njjjXDKKaeEF154oXpf/CKw9dZbhy233LLZPy/QOmJbtM4664RDDz007LLLLmHw4MGhffv21e/Nnz8/3H///eHss88OkydPrt5/7bXXhg033DAce+yxedcXB3N33XXXnMt379497zqAllfusW2Zp59+Oq/yG220Uc5l9dug8pRjbLvjjjuSPlm+7rvvvvDXv/61ertXr15hzz33zOsc+m1Q2bp06RLmzJlT0jYYbwMqNb5FxtyASoxtyxhzA3LVGpK7PXQMTVTqKSihJXz55ZfLTXF88cUXNzg98tprr51V/txzz22Rtj355JNZ9bRv377BJc5Gjx6dlKl5zHPPPZdTXUOGDMk6bsSIEZmFCxfWWTbuHzZsWFb57bffvsk/J9A6Ytvs2bOT82677bZJfMtlaZ2vvvoqM3jw4Kx2devWLTNr1qxGj609rXtTlroAyks5xrb6luNpSfptUFnKObY1xTbbbJPVthNPPLHRY/TboPJcddVVyfUc49vQoUMzp556aubee+/NTJo0KfP888+XdBlF421ApcU3Y25AJca2ZYy5Ac2NbXW9unTpUrLYNmbMmMzTTz+d9+tXv/pVVpt79eqVWbx4cV79thjf86nzjTfeKNrnAsUkAZKKdNpppy3XOW1sgOCZZ57JOiZ+IYg3rQptyy23zKrnnHPOafSYs88+O+uY2FlvzOOPP551TI8ePTIzZsxo8JgvvvgiKVfzuKeeeiqvnw9oXbEtDgg89thjeR83ffr0TOfOnbPaNmrUqEaPMxgLlaccY1uxB2P126DylHNsy9cHH3yw3IDy22+/3ehx+m1QeSZMmJB5//33M0uWLFnuvVLfRDfeBlRafDPmBlRibFvGmBtQicndTeGhYyicNk2dORLKVVxC7Oabb87ad/7554eqqqoGj9tpp53CdtttV709e/bscM899xS0be+++254/fXXq7c7d+6cLCXRmDg1eyxbc7r28ePHN3jMDTfckLX9m9/8Jqy66qoNHhOXMTvmmGMaPA9QGuUa2zp06BCGDRuW93Fx2ce4bE9NTz75ZMHaBaRDuca2YtNvg8pSabHtlltuydrefPPNw6abblqy9gCls+6664YBAwaENm3Ka0jZeBtQifHNmBtQibGt2PTdoPKMGDEivP/+++Gbb74Jzz//fLj00kvDz3/+89C3b9+QNh9++GF49dVXs/YddthhJWsPpF3r7fFQseJg5cyZM6u3+/XrF4YOHZrTsUceeWTW9kMPPVTQtj388MNZ2yNHjgxdu3Zt9LhYZr/99su5bQsXLlxuUOOII47IqY21yz3xxBNh0aJFOR0LtM7Y1lQ1b/BHU6ZMKVlbgNKoxNiWL/02qDyVFNtiMudtt92Wtc9ALFBujLcBZDPmBqDvBpWqkpK7PXQMhZX+qAC1/OMf/8ja3mWXXRqdaaNm2ZpGjx4d5s6d22Jt23XXXXM+tnbbHnvssXrL1m53//79c37qYe211w4//OEPs2YdeeGFF3JuJ9D6YltTde/ePWv722+/LVlbgNKoxNiWL/02qDyVFNueffbZMG3atOrt9u3bhwMPPLBk7QGoi/E2gGzG3AD03YDy5qFjKDwJkFScsWPHZm0PGTIkr+UhYqd2mfg0z7hx4wrSrkwmE955550mt23bbbfN2n777beTcxb6M6irrtrnA4qvXGNbc0yfPj1ru0ePHiVrC1AalRjb8qXfBpWnkmLbrbfemrU9fPjw0LNnz5K1B6A2420AyzPmBqDvBpQ3Dx1D4bVrgXNCSY0fPz5rO06BnI9YftKkSVnnGzx4cLPbNXny5DBv3rzq7c6dO4e11lor5+PjU8tz7NsAAHHESURBVEkrrrhi9TniU0tTp06t8xyF+AwaOh9QfOUa25rjpZdeytpef/31m3SeJUuWhIkTJyZLTcbZleKg7mqrrZbTkmdAaaUxtsWZM2K/7ptvvgldunRJYs6aa64Z2rZt26Tz6bdB5UljbKvLd999Fx588MGCPomu3wYUmvE2gOUZcwPSyJgb0Jp46BgKTwIkFWX+/PlhypQpWfv69OmT1zlql//ggw8K0rba58m3XcuOqXme+P/rGpBtbl0t9RkAlRfbmnND/b777svat+eee+Z9nt///vfhuOOOS5agqKlNmzZhk002SZYzO/bYY3Ne2gIonjTGts033zyZYSguT1FTHJSNT4Xvu+++4ZBDDgkrrLBCzufUb4PKksbYVp977rknK6mod+/eTeqvLaPfBrQE420A2Yy5AWlkzA1oTTx0DC3DEthUlC+//DJrmZo4VXCvXr3yOscaa6yRtT1jxoyCtK32eeJTS/nKtW3NraulPgOg8mJbU1100UVhzpw51dvxqab4dFO+Pvroo+UGYqM4UBKXLrv88svDeuutF44++ugkIQEoH2mMbXGpm9oDsVGMZ08++WT45S9/mSxde++99+Z8Tv02qCxpjG25Pol+0EEHhXbtmv4crX4b0BKMtwFkM+YGpJExN6A1aYmHjrt3757M+h2TxocMGRL69+8funXrFgYOHBhOPfXUZIZdqHQSIKkoNb/YR3EJm5jhno+4VE5D5yxU22rXU8i2NbeulvoMgMqLbU3xyiuvhCuvvDJr39lnn538XC3h+++/D3/5y1/CVlttFT777LMWqQPIX6XFtmU+//zzMHLkyGRQIRf6bVBZKiW2ffzxx2HMmDEFfRI9F/ptQL6MtwH8f8bcgEpmzA2oFB46hpYhAZKKUrvz2bFjx7zP0alTpwbPmYa2NbeulvoMgMqLbfmKT0kecMAByVTsywwePDhZMicf8YmlOID7+OOPh0mTJiU/z6JFi5JBkKeffjqccsopYeWVV8465t133w0jRowIc+fOLdjPA1R+bIvtirHj2muvTW4mxTgW400cUIgJQrfffnsYNmzYcglOcVDhkksuafT8+m1QWdIS2xpzyy23ZG0PGjQoWeqwKfTbgJZkvA3g/xhzA9LGmBvQGnnoGFpO09OIoQwtWLAga7tDhw55n2OFFVbI2i5UFnwx29bculrqMwAqL7blY+HChWGfffYJU6dOrd7XtWvXcOedd4a2bdvmdI548/3NN99M/luXOE18fO28887hzDPPDEcccUR46KGHqt+Px5577rnhiiuuKMBPBFR6bDvppJOSJSN69Oix3HtxWdsuXbqEfv36JU9oxkGLeLNp+vTp1WViHNpjjz3CZpttVm8d+m1QWdIQ2xoTl/C+7bbbmj0Qq98GFIPxNgBjbkD6GHMDWqtCP3Q8fPjwZMnrAQMGhJ49eyax7quvvkoeUHnyySfD9ddfH7799tvlHlx54YUXmrSCApQzM0BSUWo/vROfFGrKYEFD50xD25pbV0t9BkDlxbZcxWnWDz744ORJzmXiAOwdd9yRTLueq0033bTegdjaunfvHu6///7ws5/9LGt/fKK05mAJUBppiG177bVXnQOxdfnxj38cRo8enQwy1EwiijNnNES/DSpLGmJbY55//vkwefLk6u04cHrggQfmfR79NqAYjLcBrZ0xNyCNjLkBrVGhHzr+17/+FS688MIkIbxv375JQmNMIl/20Mpll10WPvnkk7D33ntnHb/swRWoNBIgqSjxiaCGnu7JRe0neGqfMw1ta25dLfUZAJUX23J1zDHHhPvuu696Oy5bEZ86ik8ZtaQ2bdqEG264IXTr1i3r87v33ntbtF6gdcS22uLNpTioUFNcNiw+cVkf/TaoLJUQ22699das7fgkea43pppDvw1oCuNtQGtnzA1oDYy5AZXAQ8fQsiRAUlFqdz7nzZuXZNLnY+7cuQ2es1Btq11PIdvW3Lpa6jMAKi+25eKMM84If/3rX7P2xeVwDj/88KLUHzv3cVmemp566qmi1A1UbmyrzyGHHBJWXXXVrNk4nnnmmXrL67dBZUl7bJszZ04yKNrcJ9GbSr8NyJfxNqA1M+YGtCbG3IC089AxtCwJkFSUOP15fMJxmcWLF4cZM2bkdY7ame69evUqSNtqn2fatGl5nyPXtjW3rpb6DIDKi22NueSSS5JXTXFa9RNPPDEU00477ZS1/cEHHxS1fqCyYltjgwlDhw7NOebot0FlSXtsiwOfNW/yxCVz4jI6xaTfBuTDeBvQWhlzA1obY25AmnnoGFqeBEgqSqdOncJaa62VtW/KlCl5naN2+Q022KAgbevfv3/W9tSpU/M+R+1j6mtb7brK5TMAKi+2NeTPf/5z8iR6Tccff3y44IILQrH16dMna3vmzJlFbwNQGbGt0DFHvw0qS9pjW+0n0Q866KDQrl27UEz6bUA+jLcBrZExN6C1MuYGpJWHjqHlSYCk4tTugI4bNy6v48ePH9/g+Zqqb9++yc2wZeIfuMmTJ+d8fCwbl09bpnPnzst19Mv9MwCaLm3X9d/+9rfw29/+NmtffLLoqquuCqXQvn37rO04GxNQemmLbS0Rcyr1M4DWLK3X9SeffBJefPHFrH3FWj6xJv02IB/G24DWxpgb0JoZcwPSykPH0PIkQFJxBg4cmLX9yiuv5HzsZ599FiZNmpTVkR4wYEBB2hWXQdt0002b3LaXX345azueq+bSaoX6DOqqq/b5gOIr19hWlziFexx4zWQy1ftGjhwZrr/++nrjVkv7/PPPs7ZXXXXVkrQDSG9sa6mYo98GlSetsS0OxNbsv22xxRZh4403DsWm3wbkw3gb0JoYcwNaO2NuQBp56BiKQwIkFWf48OFZ288880zWgEBDnnrqqaztHXfcMXTp0qXF2vb000/nfGztsiNGjKi37NChQ5Mn1pf58MMPc376Pd5s++ijj6q3u3btmpwPKK1yjm01PfHEE+HAAw8MS5Ysqd43bNiwcPvtt4c2bUrX7RgzZkzWdn0zegDFlZbY1pIxR78NKk8aY1tsX5xNqKbDDjsslIJ+G5Av421Aa2DMDcCYG5BOHjqG4pAAScUZMmRI6NmzZ/X2xIkTw+jRo3M69sYbb8za/ulPf1rQtu21115Z2/fee2+YM2dOo8fNnj07KZtr2zp27Bh23XXXrH033XRTTm2sXW733XcPHTp0yOlYoHXGtmVeeOGFsO+++4ZFixZl3bS/7777lnuqqJi+//775aaW32mnnUrWHiBdsa0psfDjjz/OOebot0HlSWNsi0+hx6fRl4mxJN5gLzb9NqApjLcBlc6YG4AxNyCdPHQMxSMBkooTn3as/UfjggsuaHTGjWeffTa89NJLWU/zxOUjCikuozN48ODq7TgYe+mllzZ6XCwzd+7c6u2tt9660WXQjjzyyKztP//5z2HmzJkNHjNjxoxw7bXXNngeoDTKObZFb7zxRjJTxvz587Ni1SOPPJIMNJTSJZdcEiZMmFCWiVLQ2pV7bMtX7K8dd9xxWfs22WST0K9fvwaP02+DypLG2Fb7xnXs162yyiqh2PTbgKYw3gZUMmNuAMbcgPTy0DEUUQYq0MyZMzNdunSJd5eqXxdffHG95adNm5ZZe+21s8qfffbZjdZTs3x8Pf/8840e88QTT2Qd0759+8wLL7xQb/nRo0cnZWoe88wzz2RysfXWW2cdN2LEiMyiRYvqLLtw4cLM8OHDs8pvt912OdUDtO7Y9t5772V69OiRdczAgQMzX3/9daaQrr322syzzz6b1zFXXHFFpqqqKqtte+21V0HbBVRmbDvuuOMy06dPz+vn+MlPfrJcPQ888EBOx+u3QWUp19hWl7lz52a6du2adZ5HH3000xz6bdD6xPhT8/rt27dvk89lvA0oJ6WMb8bcgEqMbcbcgDTEtkI5/PDDs9q07777lqQdF1544XJx9I033ihJW6ClVMX/KWbCJRTLxRdfHM4888ysfUcffXQ4++yzw+qrr55sL126NHlS8vjjjw9TpkypLhfff//990O3bt0arKOqqipr+/nnnw9Dhw5ttG277bZbeOqpp6q345Oa8WnJo446Kqy44orVTzNdf/314YwzzggLFiyoLrvnnnuGf/zjHyHXaYx32GGH5OdcJrbviiuuCIMGDare9+abb4aTTz45mT5+mbZt2ybHx6dJgfJRbrHts88+Cz/60Y/Cp59+Wr2vc+fOSfxaddVV8/75dt5553rfizMpxaeTNttss2Q2pLjsxEYbbRRWWGGFrHLz5s1LZlC6/PLLkyeraurRo0d47bXXwrrrrpt324DWE9uWlY/xZY899gg///nPw7bbbhvWXnvt5cpNnTo13HXXXeHKK68Mn3/+edZ7e++9d3jwwQdDLvTboPKUY2yrS1yG59BDD63e/sEPfpDEtnbt2oWm0m+DyvXyyy9nzUK2zNtvvx1OOeWU6u3evXuH22+/vc5zxBjX0EyLxtuAUii3+GbMDajE2LasvDE3oCWMHj067LjjjtXbffv2DZMmTWrSuQox5hb7TnGcbfbs2dX7Hn300TB8+PDQVNddd13o379/+MlPfpLzMTGOxphfMzVsr732Cg8//HCT2wHlSAIkFSt2ZONyC4899ljW/thZjX/sVl555WS64W+++Sbr/U6dOoWnn3466XC31B++L774ImyzzTZZ0x0vqztO1x4vy4kTJ2YNxEZx8ODVV1/Na4AjLudz+umn1/mFZbXVVksGUOJgSm2x43/SSSflXA/QOmNb7S8TzdVQt2TZYGxN8cZ8nz59kp87Thv/9ddfJ19mFi9evNzxcRnJJ598Mom/QHkpt9hWV/lopZVWSvpPsT0xzsQ+Xc2bUTVtt912ScyJbcyVfhtUlnKMbXWJy90899xz1dvxhk+8qd0c+m1QueLN6cmTJzfrHDHp+pZbbqn3feNtQCmUW3wz5gZUYmyrq3xkzA1Ie3J3XTx0DMXV9CsLylybNm3CvffeGw4//PDkCaFllixZkgx21iUG+/vuuy+nG03NEf/Yxj+S8WZY/EO8TPxDHWf5qMvAgQOTmUHyfbrztNNOS26wxY59/NmXiZ35ur48xLLxD+EJJ5yQVz1AcZRzbCuF77//frmbW3XZaqutwh133KEzD2UqLbHtu+++S16N/SxxkOWiiy4K7du3z+v8+m1QWdIQ2+Ksk/G7ae2B1Jag3wa0NONtAIWj7wYUkzE3IB8HHXRQTsndMZl6l112aVJydyHUfsAktrs5yY81xe+88XXWWWfl/eBKnIVS341K1KbUDYCWFJe6+fvf/57cQIoDmvWJS0ccc8wxYdy4cXln7jdVnPHj9ddfD3/4wx+qlz+rS3wvPpkUs/DjH66miDN4vPHGG2HYsGHJF4S6xP1xuuU4xbsOPZS3co5tLSkuGRnjU1yWIpcBjvg5xSefYkc+zuahMw/lrdxi26hRo8IBBxyQc/8rPr0Zl7D94IMPkv5dvgOxy+i3QWUpt9hW15PoNWcD2mKLLcLGG2/c7PPqtwGlYrwNIH/6bkAxGXMDWoNSPHQ8duzY5PvwRx99VGfyY3xw5V//+pdZu6lYlsCmVZkwYUIysDl9+vSwaNGi0K1bt7Dhhhsms2vEL+2lXBotdqZjlv6MGTOSfb169UpukMVBh/o64k3x5ZdfhjFjxiQzjsydOze50RYHKOJn0LNnz4LVAxRPuca2lhR/zvHjxycd+viE5uzZs5POfFwqo3v37mH99dcPm2++efKkE5BO5RTbZs2alcSc+FTpzJkzkz5UfBI8xpvYf4rxJi6rWGj6bVB5yim2FYt+G1AqxtsA8qfvBhSTMTegKdZee+2cZoBsSGMzQDZ3Cew4W+0555yT9dBxTMJurjiuGFeaictav/vuu3UmOtYUxxtju3/zm98kCeC1fy6oJBIgAQAAAAAAAAAAUsCDK5BNAiQAAAAAAAAAAACQOoVb5wMAAAAAAAAAAACgSCRAAgAAAAAAAAAAAKkjARIAAAAAAAAAAABIHQmQAAAAAAAAAAAAQOpIgAQAAAAAAAAAAABSRwIkAAAAAAAAAAAAkDoSIAEAAAAAAAAAAIDUkQAJAAAAAAAAAAAApI4ESAAAAAAAAAAAACB1JEACAAAAAAAAAAAAqSMBEgAAAAAAAAAAAEgdCZAAAAAAAAAAAABA6kiABAAAAAAAAAAAAFJHAiQAAAAAAAAAAACQOhIgAQAAAAAAAAAAgNSRAAkAAAAAAAAAAACkjgRIAAAAAAAAAAAAIHUkQAIAAAAAAAAAAACpIwESAAAAAAAAAAAASB0JkAAAAAAAAAAAAEDqSIAEAAAAAAAAAAAAUkcCJAAAAAAAAAAAAJA6EiABAAAAAAAAAACA1JEACQAAAAAAAAAAAKSOBEgAAAAAgFqqqqqa/Ro9enSpf4xWL/4OCvG7BAAAAKA8SYAEAAAAAAAAAAAAUkcCJAAAAAAAAAAAAJA6EiABAAAAAAAAAACA1JEACQAAAAAAAAAAAKSOBEgAAAAAAAAAAAAgddqVugEAAAAAAGkyYsSIsNdeezVarn///kVpDw3/Dq6//vpGyz3yyCPh0UcfLUqbAAAAACgcCZAAAAAAAHkYNGhQ+MUvflHqZpCD1VZbLaff1bRp0yRAAgAAAKSQJbABAAAAAAAAAACA1JEACQAAAAAAAAAAAKSOBEgAAAAAAAAAAAAgdSRAAgAAAAAAAAAAAKkjARIAAAAAAAAAAABIHQmQAAAAAAAAAAAAQOpIgAQAAAAAAAAAAABSRwIkAAAAAAAAAAAAkDoSIAEAAAAAAAAAAIDUaVfqBgAAAAAAUHhvv/12ePzxx8PYsWPDuHHjwowZM8Ls2bPDkiVLQvfu3cOqq64aBg0aFLbZZpuw7777JtvNtWDBgvDEE0+EV155Jan3448/Dt98801Sb4cOHZJ611133bDFFluEXXfdNey8886hXTvD1AAAAAA0jRkgAQAAAKACZTKZsPvuu4eqqqp6X507dw7/+7//22JtuPLKKxusP76uv/76Fqs/7Rr63M4///w6j5k3b17405/+lCQZDhw4MJx55pnhnnvuCe+9916SADl//vywaNGi8MUXXyT7/va3v4Wjjz46rLHGGmH//fcPEyZMaFJbY6LjkUceGXr16hV+9rOfhcsvvzw888wz4ZNPPglff/11+P7775O2TZ8+Pbz44ovhqquuCnvssUfo06dPuOKKK8LChQub+WkBAAAA0BpJgAQAAACAChST5GJy22qrrVZvmZiQFpPe4qx9hfbPf/4z/Md//EeDZWLdRx11VMHrbq3ibI8bbLBB+O1vfxsmTpyY17GLFy9OEiU33njjcNFFFyUJtLmI/4aOPfbYpN6bbropmekxH59//nk45ZRTkpko44yRAAAAAJAPCZAAAAAAUKHibHy33357aNOm/mHAd955J5x44okFrfe7774LBxxwQJJUV59+/fqFUaNGFbTe1iomK8YkwmHDhoWpU6c261xxJsZzzjkn/Nu//VujszLGfztxKes///nPyQyPzRGX6P7xj38cnn766WadBwAAAIDWRQIkAAAAAFSwn/zkJ+Gss85qsMxf/vKXcP/99xeszjirY0MzELZv3z7cddddYaWVVipYna3V0qVLk2TFuIx0Id19993hkEMOqff9//mf/wnbb799QZdQnzt3bth7773D66+/XrBzAgAAAFDZJEACAAAAQIU777zzwnbbbddgmV/84hdh0qRJza4rzuoYl1JuyCWXXBIGDx7c7LoIyfLTMVmxJcTf4+9///vl9r/xxhth1113Dd9++23B64xLav/sZz8L33zzTcHPDQAAAEDlaVfqBgAAAAAALatt27bhzjvvDAMHDgyzZs2qs0xMOIszCb700kuhXbumDRu+99574YQTTmiwzJ577lnwJbdbq7/+9a/huuuuq/f9tddeO+ywww5htdVWC7179w5VVVXhiy++CBMmTAhPPvlkslR5Y/7zP/8zjBw5Mqy33nrJ9syZM8M+++wTZs+eXe/snjHZdsMNN0zq7NGjR5Io+fnnn4cXX3wxjB07ttE6p0+fnizpfcMNNzRaFgAAAIDWTQIkAAAAALQCa665ZrjlllvCiBEjGlzWOC6X/Yc//KFJM/ftv//+Yf78+fWWWX311cOtt96aJOLRPB999FG4/PLLl9sfk1d/9atfJa9NNtmk3uMXL16cLEN+6qmnJkmR9Vm4cGE4+eSTw8MPPxwymUySJDtt2rTlyvXv3z+ZaXTYsGENLm3+ySefhNNOOy3cd999Df58N998c5Iou9FGGzVYDgAAAIDWzRLYAAAAANBKDB8+vNHZFy+77LJkdsB8/fa3vw3jxo1rdBbKnj175n1ulhc/y7lz52bt22abbcLbb78d/vSnPzWY/LhspsZ///d/D//7v/8bfvSjHzVY9tFHH00SLm+66abw7LPPLneeq666Kpn9MyZHNpT8GK2zzjrh3nvvDTfeeGODibBLly4NV155ZYPnAgAAAAAJkAAAAADQilxyySUNJrzFWf4OOeSQ8Nlnn+V8zr///e9JclxDzj777GQ5ZlpGXFo8JicOGDAgr+O6desW/vu//zusu+66Df6buPDCC8Ppp5+etX/FFVdMkiPjsuf5Lpt+xBFHNDrTaPx3Vd9S2wAAAAAQSYAEAAAAgFakQ4cOydLHDc3UN2PGjGR2wDgLX2MmTJiQLLfckJj4eM455zSpvTRuxx13DA899FDo1KlTk47v0aNHnctp13TbbbeFWbNmVW+3adMmSX7cbbfdQlPFpbUbmqkyLqf++OOPN/n8AAAAAFQ+CZAAAAAA0MrE2f5GjRrVYJk4m+Dvf//7BsssWrQoHHDAAQ3O0heXvL7jjjuSJbApvJVXXjnceuutyVLUzbH33ns3uhR27eTFn/zkJ82qMyZRxpklGxJnpwQAAACA+kiABAAAAIBWaP/99w9HHXVUg2XOP//8MGbMmHrfP+2008Kbb75Z7/tVVVXhlltuCWussUaz2kr94jLSffr0Kdi/iVz069ev0cTFXO2xxx5JEmd9XnnllYLUAwAAAEBlkgAJAAAAAK3UNddcEzbeeON631+yZEk48MADw1dffbXce3H543h8Q0488cQwbNiwgrSVumfXPPTQQwt2vn322Sencscee2xYYYUVCrYke0P/Rj766KMwb968gtQFAAAAQOWRAAkAAAAArVSnTp3C3XffHVZcccV6y0ydOjUcfvjhy+077LDDGjz34MGDwyWXXFKwtrK8X/ziF6Fjx44FXRp9pZVWarBM/LdS+99Dcw0aNKje9zKZTPjwww8LWh8AAAAAlUMCJAAAAAC0YgMGDAj/9V//1WCZRx55pHq2x4ZmhVwmJtHdddddoX379gVvL//f3nvvXfBzbrjhhg2+v8MOO4Ru3boV/N9gQ6ZMmVLQ+gAAAACoHBIgAQAAAKCVO+KII5Kkxoacdtpp4a233grnnXdeGDNmTINlR40aFfr161fgVlJTnPlx8803L/h54yyQDdlmm20KXud6663X4PszZ84seJ0AAAAAVIZ2pW4AAAAAAFB6f/nLX8Lrr78eJkyYUOf7ixYtCiNGjAiff/55g+c56qijwv77799CrWSZmPzYoUOHgp+3a9euDb6/9dZbF73Ob7/9tuB1AgAAAFAZzAAJAAAAACRJaHfffXeDSXWffvppWLp0ab3vb7TRRtVLZdOy+vTp0yLn7dKlS4Pvr7nmmkWvc+HChQWvEwAAAIDKIAESAAAAAEgMGjQoXHbZZU06tlOnTkkCZfwvLa979+4tct7OnTsXvd7G6oyzjwIAAABAXSRAAgAAAADVjjvuuPDTn/407+P++Mc/JjNAku4EyKqqqqLX21idmUym4HUCAAAAUBkkQAIAAAAAWW666aa8lljef//9wy9+8YsWbRPZVlhhhVZVLwAAAADURQIkAAAAAJBllVVWCX//+99D27ZtGy3br1+/MGrUqKK0CwAAAACgJgmQAAAAAMByvvzyy7BkyZJGyx199NFhpZVWKkqbAAAAAABqkgAJAAAAAGSZOnVqOOKII3Iqe+GFF4aJEye2eJsAAAAAAGqTAAkAAAAAVIuzPh544IHhq6++yqn8d999Fw444ICwePHiFm8bAAAAAEBNEiABAAAAgGrnn39+GDNmTF7H/POf/wxnnHFGi7UJAAAAAKAuEiABAAAAgMRzzz0Xfv/73zfp2CuvvDI88cQTBW8TAAAAAEB9JEACAAAAAGHmzJnh4IMPDkuXLq23TFVVVb3vZTKZcOihh4bPPvushVoIAAAAAJBNAiQAAAAAtHIxefGQQw5pMHmxa9eu4amnngrdunVrVhIlAAAAAEChSIAEAAAAgFbu8ssvD//93//dYJnrrrsu7LzzzuH6669vsWW0AQAAAADyIQESAAAAAFqx119/PZx11lkNljnssMPCQQcdlPz/n//85+FXv/pVg+XPP//8MGbMmIK2EwAAAACgNgmQAAAAANBKffvtt+GAAw4IixcvrrfMBhtsEP70pz9l7bv66qvDxhtvXO8xS5YsCQceeGD46quvCtpeAAAAAICaJEACAAAAQCv1y1/+MnzyySf1vt+xY8dw1113hc6dOy+3/+677w6dOnWq99ipU6eGI444oqDtBQAAAACoSQIkAAAAALRCo0aNCvfcc0+DZa644oqw2Wab1fnegAEDwjXXXNPg8Q8//HD4r//6r2a1EwAAAACgPhIgAQAAAKCVef/998MJJ5zQYJmf/exn4ZhjjmmwzFFHHRVGjhzZYJlTTz01jB07tkntBAAAAABoiARIAAAAAGhF5s+fnyQtxv/Wp2/fvuGGG27IeSbJddZZp973Fy5cGPbff/8wd+7cJrUXAAAAAKA+EiABAAAAoBU57rjjwrhx4+p9v127duHOO+8M3bt3z+l8K6+8crjrrrtC+/bt6y3z4YcfNjqbJAAAAABAviRAAgAAAEArcffddzc6s+MFF1wQhgwZktd5t9xyy/C73/2uwTJ/+9vfwu23357XeQEAAAAAGiIBEgAAAABagYkTJ4Zf/vKXDZbZaaedwn/8x3806fynnHJK2H333Rssc/TRR4ePPvqoSecHAAAAAKhNAiQAAAAAVLjFixeHAw44IHz33Xf1lunVq1cyQ2ObNk0bMqyqqgq33npr+MEPflBvmTlz5iTtWLRoUZPqAAAAAACoSQIkAAAAAFS4M844I/zzn/9sMHkxLlHdUPJiLmIS5W233dZgEuVbb70VTj311GbVAwAAAAAQSYAEAAAAgAr2+OOPhyuvvLLR5at32223gtS38847h9NPP73BMn/84x/Do48+WpD6AAAAAIDWSwIkAAAAAFSozz77LBx22GEhk8nUW2arrbYKv/vd7wpa73/+53+GIUOGNFjm8MMPD9OmTStovQAAAABA6yIBEgAAAAAq0NKlS8NBBx0UZs6cWW+ZlVdeOfz9738P7du3L2jd7dq1C3feeWfo1q1bvWVmzZqVtG/JkiUFrRsAAAAAaD0kQAIAAABABbrooovC888/32CZUaNGhXXWWadF6u/bt2+48cYbGyzz4osvJrNFAgAAAAA0hQRIAAAAAKgwL730UqOJhUcddVQYOXJki7bjZz/7WTj66KMbTdQcPXp0i7YDAAAAAKhMVZlMJlPqRgAAAAAAlJOqqqp63zvvvPPC+eefX9T20LLi7/OCCy6o933D6AAAAADlyQyQAAAAAAAAAAAAQOpIgAQAAAAAAAAAAABSRwIkAAAAAAAAAAAAkDoSIAEAAAAAAAAAAIDUqcpkMplSNwIAAAAAoJxUVVU1+xzPP/98GDp0aEHaQ9OMHj067Ljjjs0+j2F0AAAAgPJkBkgAAAAAAAAAAAAgdSRAAgAAAAAAAAAAAKkjARIAAAAAAAAAAABIHQmQAAAAAAAAAAAAQOpIgAQAAAAAAAAAAABSp12pGwAAAAAAUG6uv/76Zp+jf//+BWkLzfsdFOJ3CQAAAEB5qspkMplSNwIAAAAAAAAAAAAgH5bABgAAAAAAAAAAAFJHAiQAAAAAAAAAAACQOhIgAQAAAAAAAAAAgNSRAAkAAAAAAAAAAACkjgRIAAAAAAAAAAAAIHUkQAIAAAAAAAAAAACpIwESAAAAAAAAAAAASB0JkAAAAAAAAAAAAEDqSIAEAAAAAAAAAAAAUkcCJAAAAAAAAAAAAJA6EiABAAAAAAAAAACA1JEACQAAAAAAAAAAAKSOBEgAAAAAAAAAAAAgdSRAAgAAAAAAAAAAAKkjARIAAAAAAAAAAABIHQmQAAAAAAAAAAAAQOpIgAQAAAAAAAAAAABSp12pGwCtzYIFC8LHH39c6mYAAAAAAAAAAABlat111w0dO3YsdTPKngRIKLKY/LjxxhuXuhkAAAAAAAAAAECZeu+998JGG21U6maUPUtgAwAAAAAAAAAAAKkjARIAAAAAAAAAAABIHUtgQ8kdEEJYpZ732hboMs71Us+lXDHbVMz2tC9iXYU6T67l/F6LU1cu58m1TWWm3P7ptymzf4q5tqlQ/xwLVcbvrPX+ztqm9E9eubU7jXUV81pM6+dYbv/2c2pzJoe6luRwoniupY0WqWrzfeOnad/4edq2bbxNbXJoT9scfrZc6mrbpvG62oQczhNyOU/jn2G7nM6T2++1UG3K5Txtc2hTm4KdZ0nRPsdi/l4L26ZczlPMusrr+ihUe3I9l+ujfNqT+7lcH81tT6Gujf+rz/VRnPYU6too4O91SQ6/1xzKtFvSeL+5TQ7NzqFrGapy+fFzKfN9gc6TS2jM7U9ebvUVs8z3Bfr5K7WuXM9Vbr/X1vxvKNdzVWqZ1n6dFSpe+71W5Ge9OIcyOXSJwvcFOk9O7SnQx5zrr7VQ5ypmu4vZnlzOs7iIdaX1cyxGe74KIdyVwznIJgESSi4mP/Zq4QSvXC/1Qp0rjedJY5sLea5KPU+5tTnXcxVRVYHKtCmz5JT2ZZjkU8w2aU/62qQ9ldnucitTzM8n13LlViaV/4YKmACZQ7mqto0P37Rpn8NN6lwSF3Mqk0PSQC7naVO8m/1tc0p0KFxiQbm1KY2fYzHbU45t8nttnM8xXe1Ja7tbc3vS2u7cyrQpUHvaFKg9VeX3nFsOiYttv19akATIHLq6OZWpStPd1XzOU+z6yu3nT2NdhawvjT9/Gutq7T9/a7/OfNbNP0+uEyQsKdB9r++Ldx8up8S0HIYJF+dQJoeuVcES5RYXqEwh63Oe4tRVyHNV6nnIjyWwAQAAAAAAAAAAgNSRAAkAAAAAAAAAAACkjgRIAAAAAAAAAAAAIHUkQAIAAAAAAAAAAACpIwESAAAAAAAAAAAASB0JkAAAAAAAAAAAAEDqSIAEAAAAAAAAAAAAUkcCJAAAAAAAAAAAAJA6EiABAAAAAAAAAACA1JEACQAAAAAAAAAAAKSOBEgAAAAAAAAAAAAgdSRAAgAAAAAAAAAAAKkjARIAAAAAAAAAAABIHQmQAAAAAAAAAAAAQOpIgAQAAAAAAAAAAABSRwIkAAAAAAAAAAAAkDoSIAEAAAAAAAAAAIDUkQAJAAAAAAAAAAAApI4ESAAAAAAAAAAAACB1JEACAAAAAAAAAAAAqSMBEgAAAAAAAAAAAEgdCZAAAAAAAAAAAABA6kiABAAAAAAAAAAAAFJHAiQAAAAAAAAAAACQOhIgAQAAAAAAAAAAgNSRAAkAAAAAAAAAAACkjgRIAAAAAAAAAAAAIHUkQAIAAAAAAAAAAACpIwESAAAAAAAAAAAASB0JkAAAAAAAAAAAAEDqSIAEAAAAAAAAAAAAUkcCJAAAAAAAAAAAAJA6EiABAAAAAAAAAACA1JEACQAAAAAAAAAAAKSOBEgAAAAAAAAAAAAgdSRAAgAAAAAAAAAAAKkjARIAAAAAAAAAAABIHQmQAAAAAAAAAAAAQOpIgAQAAAAAAAAAAABSRwIkAAAAAAAAAAAAkDrtSt0A4KsG3mtboMs410s9l3LFbFMx29O+iHUV6jy5lvN7LU5duZwn1zYVUaZAZZbmUGZJDmWqCtSeUMSfK9dHSnI51/cF+qeWS5nFRbw82pRZ+Mi1TYUKIYUq065C25Prn7xya3ca6yrmtZjWz7Hc/u3n1OYc/qC1y+WPcDxX43+sMm0a/2O1tH3j56lqu6Qg7cnpZ8uhrkybxutamkNnZmkOf/CX5PAHP5fztMmpcxX/GeVyru8Lcp62ObSpTcHO03iZdgX6HAv1GebSnsK2KZfzFLOu4n2OxWxPrudyfZRPe3I/l+ujue0p1LXxf/W5PorTnkJdGwX8vS7Jod1LMgXpNrYpTNcyVOXy4+dS5vsCnadQY1K51lfMMt8XcdwyjXXleq5y+7225n9DuZ6rUsu09uusUPHa77UiP+vFOZTJodsUvs+hTA5dq5xuMRXqV5brr7VQ5ypmu4vZnlzOs7iIdaX1cyxGexrKIKJ+EiCh5O4qdQMAivMFDgBIvUyRBy4BAAAAAAAaYglsKLJZs2aVugkAAAAAAAAAAEAZk2OUGwmQUGRff/11qZsAAAAAAAAAAACUMTlGubEENhRZnz59srYfeuihsN5665WsPUDrNGHChLD33ntXb4tFQLGJQ0A5EIuAciAWAaUmDgHlQCwCyoFYBJRbHKqdY0TdJEBCka2wwgpZ27HDtNFGG5WsPQCRWASUmjgElAOxCCgHYhFQauIQUA7EIqAciEVAueUYUTdLYAMAAAAAAAAAAACpIwESAAAAAAAAAAAASB0JkAAAAAAAAAAAAEDqSIAEAAAAAAAAAAAAUkcCJAAAAAAAAAAAAJA6EiABAAAAAAAAAACA1JEACQAAAAAAAAAAAKSOBEgAAAAAAAAAAAAgdSRAAgAAAAAAAAAAAKkjARIAAAAAAAAAAABIHQmQAAAAAAAAAAAAQOq0K3UDoLVZddVVw3nnnZe1DVBsYhFQauIQUA7EIqAciEVAqYlDQDkQi4ByIBYBpSYONU1VJpPJNPFYAAAAAAAAAAAAgJKwBDYAAAAAAAAAAACQOhIgAQAAAAAAAAAAgNSRAAkAAAAAAAAAAACkjgRIAAAAAAAAAAAAIHUkQAIAAAAAAAAAAACpIwESAAAAAAAAAAAASB0JkAAAAAAAAAAAAEDqSIAEAAAAAAAAAAAAUkcCJAAAAAAAAAAAAJA6EiABAAAAAAAAAACA1JEACQAAAAAAAAAAAKSOBEgAAAAAAAAAAAAgdSRAAgAAAAAAAAAAAKkjARIAAAAAAAAAAABInXalbgBQGN9//3147bXXwnvvvRdmzZoV2rZtG1ZbbbWwxRZbhI022qigdU2fPj28+uqrYfLkyWH+/PlhpZVWCuuvv3748Y9/HLp06VLQuoDlvf/+++HNN98Mn332WViyZEno0aNH2HjjjcNWW20V2rXzpx1oeeLQ/9EngtIqx1i0YMGCMH78+DBu3Lgwc+bMMHfu3LDyyisnbRs0aFDo379/SdoF1O3jjz8Or7/+epg2bVpYtGhR6N69e9hggw3CkCFDQseOHUvWrkwmE956660wduzYMGPGjGRf7969w2abbZbEkqqqqoLVFceQXn755eSziDGrc+fOYd111w3bbrttEruA1heLFi9eHD744IOkr/XFF1+E2bNnJ99vYkzYdNNNk/5Wmzbm1oBKUm5xqBT0iaD0xCKAuhknylEGaNDHH3+c+fvf/5454YQTMkOGDMl06tQpEy+dZa8ddtihpO2bPXt25qyzzsqsssoqWe2q+erfv3/mpptuyixdurRZdY0ePTozdOjQeuvp0KFD5t///d8zn3zyScF+PuD/xOv3xhtvzKy//vr1XoM9evTInH322Zk5c+a0eHvqa0NTXuedd16DdcX3m3P+Qw89tMU/D2gNyi0ORX379m1WfHj++eebVK8+EZROOcaid999N3PBBRdktttuu0z79u0bjDu9evXKnHHGGZnp06fnXY8+ERTOgw8+mBk0aFC910uXLl0yxx57bGbmzJlFbdeiRYsyl112WWaNNdaot21rrrlm5vLLL0/KNsfYsWMze+21V6ZNmzZ11tO2bdvk/bfffrtgPx9QvrFo4sSJmUsvvTSzyy67LDf+Xfu18sorZ37zm99kPvzww7zrufnmm5vVnyn1WDxUmnKKQ/H6bk58iPGlKfSJoPTKJRY1d6w5nzEYfSIoH9OmTcs88MADmdNPPz2z4447Zrp27Zp1vcXYUCrGifIjARLq8PDDD2f23HPPTM+ePcu6g/HOO+9k1llnnZw7Q7vttlvmm2++adJNxlNPPTXnejp37py57777WuRnhtbo66+/Tgagc70G+/Xrl3nvvfdatE2F+hIYX7/73e8arMvNfii9coxDpUiA1CeC0iq3WBQHxzbeeOMmxZ+VVlopc+utt+ZVnz4RNN+CBQsyBx10UM7Xzaqrrpp54YUXitK2KVOmZDbffPOc27bFFlskcagprr766ky7du1yqieW++Mf/1jwnxdas3KKRbEtW221VZP6FvHBr3gzLp+H7t3sh/JQTnGolAmQ+kRQWuUWiwqZAHnUUUc1WJc+EZTWmDFjMvvss09m9dVXb/R6K1UCpHGi/FmnAOrw3HPPhccffzx8+eWXoVzFZUh+8pOfhE8++SRrf1yOJC5F8sMf/jC0b98+670nn3wy7LHHHsmybPk47rjjwmWXXZa1L06j26dPn2RK3Z49e2a9F6fC3X///cODDz6Y988FZItLqu62227h6aefztrfoUOHZJnVTTbZJJl6uqaJEyeGHXfcMUyYMCGkwfDhw0vdBKCVx6Fc6RNB6ZRjLPr666/De++9V+d7sS3rrbde2HLLLZNlr9u2bZv1/nfffRcOPfTQ5WIK0HKWLl2a/F2+4447svbH63OdddYJAwcOTJasrykuZR/HUV599dUWbVtcvijGq3/9619Z+zt16hQ22mijsOGGGy635Nubb76ZHJPv2NWVV14ZTjjhhPD9999n7V9ttdXCFltskfy3plgu9oH++Mc/5v1zAeUfi+Jy16+99lqd78W4E9s0ePDgMGDAgKTfVVNcmvLUU08Nxx57bMHbBbSeOFQq+kRQWpUei9z3gvL2z3/+M7lv8+mnn4ZyZJyoado18ThoteKNrHgzu5RiUNlvv/2ygtcqq6wSrrrqqvBv//Zv1YmPX331VRKwLr744qQjGcVO4WmnnZZzQLrnnnvCn/70p6x9++67b3LOmGS5zLPPPhtOOumk8M477yTbS5YsSW7obb755mHttdcuyM8NrVG8rl5//fXq7TZt2oSzzjornHjiiaF79+7VA8533nlnUjbeiF/2RXDkyJFJB672DfdCqJ18kKsYTx5++OHq7RgjYtJ2Pi6//PKw2Wab5Vx+9dVXz+v8QDriUG29e/cOt99+e17H5BNL9ImgtNIQizbeeONwyCGHhJ122ikZqI9trJnweNttt4XzzjsvzJo1q3p//G4WB6yaMjCuTwT5iQnHNb+LRL/+9a/DOeecU319xLGTWCYO/E6ZMiXZN2/evCSOxITn2jfgCuWwww4LH3/8cfV2HMS+5JJLwlFHHRVWXHHFZF8cixo1alQ488wzqx9s/eijj8IRRxwRHnnkkZzqeeWVV5K4U9PQoUPDFVdckTzMscwbb7wRTjnllPDCCy9U7zv55JPD1ltvnSR2A5UZi6KYcBC/v+yyyy5J4mPNB+zjAyn3339/OPvss8PkyZOr91977bVJf6YpiZAxgXLXXXfNufyyfh9QuXGoqePPMRkgV/pEUHrlGItiMmbs7+TrvvvuC3/961+rt3v16hX23HPPvM6hTwTlI044NmfOnJK2wThREzVh1kioeMcff3wyfesqq6ySLBt99tlnJ8tif/bZZ8tNSV2KKab/+te/ZrWhe/fumffff7/e8nfcccdy09J++OGHjdazcOHCzNprr5117K9//et6lzWJy2v/6Ec/yip/yCGHNOtnhdZs/PjxmbZt22ZdU3feeWe95eMSj926dcsqf9NNN2XKxZIlSzJrrrlmVvuuueaavJd7zHfJWqBy41DNZUlachkCfSIorXKNRe+++25y7mHDhmVeffXVnJcuWWeddbLatu6662YWLVrU6LH6RNB0X375ZaZr165Z19DFF19cb/m4ZFDtv/3nnntui7TtySefzKqnffv2DS7rNnr06KRMzWOee+65nOoaMmRI1nEjRoxI+jl1iftjfKtZfvvtt2/yzwmUZyyaPXt2ct5tt902iUe5LGf91VdfZQYPHpzVrtj3mjVrVqPH1h5bb8qStUBlxaH6lsBuSfpEUFrlHIuaYptttslq24knntjoMfpEUFpXXXVVcu3FWDR06NDMqaeemrn33nszkyZNSsZcS7kEtnGippMACfXcMJswYUKd75U6ATIGlj59+mS14cYbb2z0uIMPPjjrmAMPPLDRY6699tqsY374wx9m5s+f3+AxMRGzQ4cO1cfEG5XxhiWQv5EjR2Zdg//+7//e6DE33HDDcp2yXG6ol6rDNnPmzEaPc7MfSqfc41CxEiD1iaC0yjUWff7555mXX3457+P+9a9/Zdq0aZPVvqeeeqrR4/SJoOlOO+205QZoG0vyeeaZZ7KOiYPi8UZdoW255ZZZ9ZxzzjmNHhMf1K15TBywbszjjz+edUyPHj0yM2bMaPCYL774IimXb7wC0hOL4ljzY489lvdx06dPz3Tu3DmrbaNGjWr0ODf7obTKMQ4VOwFSnwhKr5xjUb4++OCDrHbF19tvv93ocfpEUFoxFyjew4mT99RW6gRI40RN9//XYwKypspfd911Qzl68sknw9SpU6u341KKhx9+eKPHnX/++aGqqqp6+9577w3ffvttg8fccMMNWdtnnHFGMr1uQwYMGBD233//6u247OPNN9/caPuAbHHZxgceeKB6O16/8TpuTIwHffv2rd6OSxI988wzoRzccsstWdtxqceePXuWrD1A64tDTaVPBKVTzrGod+/eYciQIXkfF5fH3n333Zf7nge0jLhsWu2/wbXHSOoSl7Pfbrvtqrdnz54d7rnnnoK27d133w2vv/569Xbnzp2Tpc8aE5cnimVrLlk0fvz4vPozv/nNb8Kqq67a4DFx6bZjjjmmwfMA6Y5FHTp0CMOGDcv7uLg0ZVwquyb9GShv5RqHik2fCEqr0mJR7ftem2++edh0001L1h4gNzEXKN7DadOmvFLmjBM1T3n9NoFGPfzww8vd2GusU7gsiO+www7V24sXLw6PP/54veWnTZsW3nrrrertLl26hJEjR+bUxiOPPLLBNgON+8c//hG+//776u2hQ4eGfv36NXpc7KjVTop+6KGHQql99913y7XjsMMOK1l7gNYXh5pKnwhKq1JjUc1B+2jKlCklawtUujjoO3PmzOrtGENiLGnK3/JCx5HafYPYx+jatWujx8Uy++23X85tW7hw4XKJSUcccURObaxd7oknngiLFi3K6VggHbGoqfRnIF0qMQ7lS58ISq+SYlFM5rztttuy9rnvBTSHcaLmkQAJKbwBWNOuu+6a87G77LJL1vZjjz2Wcz3bbrttVtZ4Q2LZFVdcsXr7gw8+CB999FHO7QSKd60Xy9133x3mz5+f9YTInnvuWdI2Aa0rDjWVPhGUVqXGou7du2dtNzY7P1C4OBJjQy4Pki4rW9Po0aPD3LlzUxfjare7f//+WbPkNiSuPPLDH/4wa6aVF154Ied2AuUfi5pKfwbSpRLjUL70iaD0KikWPfvss8nD88u0b98+HHjggSVrD5B+xomaRwIkpMgXX3wRPv/88+rtFVZYIQwaNCjn4+NN+JrGjh1bb9na7+WztFu7du3ClltumXNdQGGvwS222CKJD8t8+umnWU/UlcKtt96atX3QQQclsQIoX5UWh5pKnwhKq1Jj0fTp07O2e/ToUbK2QKVrThyJS7zGgd1l4hPt48aNK0i7MplMeOedd5rcttpjPG+//XZyzkJ/BnXVpT8DlROLmkN/BtKlEuNQvvSJoPQqKRbVvu81fPjw0LNnz5K1B0g340TNJwESUmT8+PFZ2+utt17o0KFDzscPGDAga3vChAlZy8k1VFftY/Otq/b5gPrFJerj9dnUazDe6I/L3pfLNRh/lpdffrmgywDEqbnjzzRmzJjw2muvJXXMmzevmS0FKiEOffnll8mXrRdffDH579SpU+v9kpcLfSIonTTHosa89NJLWdvrr79+k86jTwTp/Vs+efLkrOs1zjC91lpr5Xx8fDK/5kzT8cn92O9J02cArUklXoeF6s8sWbIkmSk/Lon56quvhg8//DCZRQQorDTGoTizbEwEiGM8b731VtJ/ijGjNX0GUGkq5Tr87rvvwoMPPljQ+176RNC6GSdqPlMvQYrEZRNr6tOnT17Hr7rqqqFjx45hwYIF1U/GfPLJJ1lT1Baqrtrla58PqN/EiROzkpM7deqU91Nj8Rqs+eRbvAa33377UAq33HJL1nacuXbTTTdt8vl+85vfJJ/RslhWc6a1ONPTHnvsEY455pgk5gGtJw7NmDEj+dJV1xetVVZZJWy33XbJEiT77rtvaNu2bc7n1SeC0kljLMrFxx9/vNyyIHvuuWfe59EngsbNnz8/TJkypSz/lje3j7HsmJrnif+/rsFx/RkorXKORc256X/fffc1uz/z+9//Phx33HHL3dxv06ZN2GSTTZJl3I499ticl2MDKicObb755kny49KlS7P2d+nSJZl1KI7vHHLIIVmz/jdGnwhKK42xqD733HNPVqJS7969m9QXWkafCDBO1HxmgIQUiTf2a1pzzTXzPkecHryhcy5Te2m4fOtaY401cqoHWF7t66X29ZSmazDOunbbbbcV9Cm4mMRQ+0Z/FBMk4sxH559/fvIl8Nxzz23WE8HQmqUxDsUBtPqeMvvqq6/Cww8/HPbff//Qv3//5RKPGqJPBKWTxliUizPOOCNrZtqYvD148OC8z6NPBLnNDF3zemvfvn3o1atXWcSRQozx5Nq25tZVjrEU0qScY1FTXXTRRWHOnDnV2/EhlbjsY77iLEd1zWwUE57ikm2XX355sgrS0UcfnXznA1pPHIqretROfoxi7HnyySfDL3/5y2Qp3HvvvTfnc+oTQWmlMRbluvz1QQcdlDyQ2lT6RIBxouaTAAkpUnNQadm0t/mqfUztc0ax41T7Blm+deVSD1Daa70Ynnvuuawn+jp06JDMwNbSYhy78MILw8477yz+QCuPQ3XNvLbTTjuFa665ptGy+kRQWpUYi+IMAbVv0MWn/KuqqlqkPn0iWrva/+7jUkD5Xm8tFUeKGeOaW1e5xVJIm3KORU0Rl2W88sors/adffbZWcutFVJ8uOMvf/lL2GqrrcJnn33WInVApau0OLTM559/HkaOHBlOPfXUnMrrE0FpVUosiuPLY8aMKejEH7nQJ4LKZpyo+SRAQorUDhxxOet8xWXjGjpnffvyrSuXeoDSXuulWP46zgbQo0ePvM8TvwQPGTIk/O53vwtPP/10mDZtWrK8QJz1aPr06eHRRx8Nv/rVr5b7rEaPHh0OOOAAsx5BBcehlVZaKRnsvvHGG8Mbb7wRZs2aFRYvXhy+/fbbZEbIuP/HP/5x1jExJpx44onhrrvuavDc+kRQWmmKRbmIS4EcddRRWft+9rOfhZ/+9Kc5n0OfCConjhSzbc2tq5xiKaRROceifMWZPWr3KeJM1nFJxnwMHDgwSZp8/PHHw6RJk5KfZ9GiRUkyU+zjnHLKKWHllVfOOubdd98NI0aMCHPnzi3YzwOtRVriUGxXvM6vvfbaJNk6xpwYG+KsaDHh6Pbbbw/Dhg1bLmEqzox2ySWXNHp+fSIorbTEonzvew0aNChZprop9ImAZYwTNV/T5+EFiq728mZxJrV8rbDCClnbdU2TXdcyavnWlUs9QGmv9ZYWB6YeeOCBZj8Ft+uuuyazRq6//vp1vr/66qsnr5hcGb8oxoH4l19+ufr9f/zjH8mg2W9/+9sm/BTQOqUlDl122WVhjz32CF26dKkzMTK+Nthgg3DEEUeEBx98MPnvN998k7wfl1s58sgjw9ChQ8MPfvCDOs+vTwSllZZYlIuvvvoqGZz+7rvvspYWGTVqVM7n0CeCyoojxWxbc+sql1gKaVXOsSgfCxcuDPvss0+YOnVq9b6uXbuGO++8M7Rt2zanc8QEgTfffDP5b1169+6dvOLs1WeeeWbyHe6hhx6qfj8ee+6554YrrriiAD8RtB5piEMnnXRS2Hbbbet8eD4ukxvHfvr165csMxtnXovfd+JDYMvEmBHHiDbbbLN669AngtJKQyxqTBxTvu2225p930ufCKjNOFHzmQGSsnLCCSckT2619Ov8888PaVQ78zo+AdKUgaqGzlnfvnzryqUeKFeljkXFutZbWlzeMc5ItEz8shYHofIVZzmq70Z/bTGR4JlnngnbbLNN1v6LLrooqy1Q7sSh3Oy33351Jj/WJd6oe+KJJ7KeTItxIc6iVh99Ilo7sagw4gDQXnvtFT766KOsZULigyL5zIytTwT5K+c4Usy2NbeucoilkGblHItytXTp0nDwwQcnM7ItE5Me77jjjrDeeuvlfJ5NN9203hv9tXXv3j3cf//9yYzZNcUHOmomPQGVEYfid6Zcvx/FlT7iLPc9e/bMSkqKD4I1RJ8ISisNsagxzz//fJg8eXJW0lB8WDVf+kRAbcaJmk8CJKRI7Rv8dc1K1Jja2dd1JQ3UtS/funKpByjttd7Sbr311qzt+HRuu3YtP/l07GT97W9/y6orLpfy1FNPtXjdUCkqJQ7VtvXWW4fTTjsta1+crSTezKuLPhGUViXEou+//z6MHDkyaybGODgekx/jcpEtSZ8IyjuOFLNtza2r1LEU0q6cY1GujjnmmHDfffdVb8eHWK6//vpkhuuW1KZNm3DDDTeEbt26ZX1+8aFboHXFodpi8nVcGaSmuIRsnH2/PvpEUFqVEItq3/eKq3Dk83BrU+kTQeUzTtR8EiAhRWoHjrlz5+Z9jtrH1BWM4sxItZctybeuXOoBSnutt6SJEyeGl156qdnLADRnACw+NVyTm/3QuuJQfY4//visfk4cGH/jjTfqLKtPBKWV9lgUZyA59NBDw2OPPbbcTElxOeti0Ceitat9zccZUOO1WQ5xpJgxrrl16c9A5caiXJxxxhnhr3/9a9a+uNzi4YcfXpT646xHcdnHmvRnoHXFofoccsghYdVVV63ejg+4xpnw66NPBKWV9lg0Z86cZCbGUt330ieCymacqPlafhomyMOwYcOypqxvKdtvv31Io169emVtT5s2Le9zfPrppw2ec5n4pfHzzz/PqmuNNdbIuZ7aU27XVw+Uo1LHotrXS1OmsC/1NRifgqv5xTVO5b/JJpsUtQ077bRTMrvSMh988EFR64fmEIdadqAoxqR//vOfWfFhyy23rLO8PhGtmVjU/JmS4iyzNWdKGjVqVPj5z38eikmfiNYsxrB47S37brJ48eJkJtTevXuXPI4UYown17bF/fEhtabWpT8DlRuLGnPJJZckr5rOPffccOKJJ4Zi92euvPLK6m39GWg9caixGdGGDh2aNQNaQ/FBnwhKK+2xKMaamkk/sd177LFHKCZ9IqhcxomaTwIkZWWXXXZJXtStf//+WdtTpkzJ6/jYiaw5fW1ceq1fv3711lXzZn+sa6uttsq5rtpt22CDDfJqK7TmWBSvy7hUYVwycdk00jNnzsx6mrWcr8H45TUut1iqp+CW6dOnT9Z2/AwhLcShlo8PNRMgG4oP+kS0ZmJR05122mnhL3/5S9a+OEBd+0n9YtAnojWLszmvtdZaYfLkyVlxIZ8bbC0VR2qP8UydOjXvc9Q+pr62xbr+53/+p8njSfozULmxqCF//vOfk9kfa8+of8EFF4Ri05+B1hmHCh0f9ImgtNIei2ovf33QQQcl41bFpE8Elcs4UfNZAhtSpHbg+Pjjj8OiRYtyPn78+PFZ2+uuu269HbPadY0bNy6vttauq1yCHqRB+/btk+uzqdfgwoULs57aKPY1+MILL4RJkyZlJVsfeOCBoRSfY03xaUKgdcShQsYHfSIonbTGogsvvDBcdtllWftiosAJJ5wQSkGfiNauXP+W9+3bN7kBuEycSaTmjcDGxLJxybhlOnfuvNzNsHL/DKA1Sdt1GB9s/e1vf5u1Lz7IcdVVV4VS0J+B1heHcmWMB9IlrdfhJ598El588cWsfYcffngoNn0iqFzGiZpPAiSkyA9+8IPkVfOG3ptvvpnz8S+//HLW9sCBA+stW/u9V155Jed64gwtr7/+es51AYW9BmNciPFhmdVWW62oU0/fcsstWdsjRowIPXr0CMVWc8a2KJ/ZooB0x6FCxgd9IiittMWiq6++OlkWsqaTTz55uX3FpE9Ea9ecOPLZZ59lPdwVbzYNGDCgIO2KS79tuummTW5b7TGeeK54zkJ/BnXVpT8DlROL6nL//fcnyY7LlqeMRo4cGa6//vp640xL05+B1hWHynGMJ9IngtYbi+LsjzX7RltssUXYeOONQ7HpE0HlMk7UfBIgIWWGDRuWtf3000/nfGztsjEpKdd6YtCLWea5Brya2eXrr79+8gJyN3z48KJc64UW40QcKC/18tfRmDFjsrbre8oFqKw41JiYDFVz+evG4oM+EZRWmmLRDTfcEE466aSsfb/85S/D5ZdfHkpJn4jWrnYceeaZZ7JuXDXkqaeeytrecccdQ5cuXVIX44YOHZo8+b/Mhx9+mPMsAvEG40cffVS93bVr1+R8QOXEopqeeOKJZBWPJUuWZH0nuv3220ObNqW7naQ/A60nDrVkfNAngtJLYyyK7YuzY9fkvhfQEowTNY8ESEiZvfbaK2v75ptvzqljGJfLjsvS1nwqZs8996y3fOwwbb755tXbc+bMCffcc09Obbzxxhuztn/605/mdBzw/8Xrs+YS9aNHj15uCce6xHhQewbGYl6D9913XxIvlomz1u6+++6h2L755pvlEjF32mmnorcD0iytcagxd911V1ZS4gorrBC23XbbesvrE0FppSUWxdjyq1/9Kuu72UEHHRSuu+66UEr6RBDCkCFDQs+ePau3YwyJsaQc/pbXHuO59957s75P1Wf27NlJ2Vzb1rFjx7Drrrtm7bvppptyamPtcvH7XYcOHXI6FkhHLFomjh3vu+++YdGiRVmJBXGsp/Zyi8UUZ9aPsy7VpD8DlRmHmhK34r2vXOODPhGUXhpjUVz6Oi6BvUy89uMDI8WmTwSVzzhR80iAhJTZbbfdwpprrpmVYR2TIBtz/vnnZ92Mi4NZK6+8coPHHHnkkVnbl1xySViwYEGDx4wfPz7cfffd1dvxyeBSPQUDabbKKquEvffeu3o7Xr/xOs6l01FzCYC+ffuGnXfeORRL7S9f8cZ/zaSFYjnllFOSG/7LxI7XHnvsUfR2QJqlNQ41tkTIWWedlbUvfslbccUVGzxOnwhKJw2x6LHHHguHHHJIWLp0afW+2OaYgFnKmZIifSKo+2/wBRdc0OjDpM8++2x46aWXsp5oj0vAFlJcjmjw4MHV23FQ+9JLL230uFim5ozUW2+9daNLv9Xuz/z5z38OM2fObPCYGTNmhGuvvbbB8wDpj0XRG2+8kcwQMn/+/KzY8sgjjyQ3x0opfv+aMGFCWSZfQZqUexzKV+wLHXfccVn7Ntlkk9CvX78Gj9MngtJKYyyqfd8r9pnieFWx6RNB5TNO1EwZIC8333xz7IFVv3bYYYcmn+uTTz7JOld8xX2Nue6667KO6d69e+b999+vt/wdd9yRVb5t27aZDz74oNF6Fi5cmFlrrbWyjv31r3+dWbp0aZ3lv/3228yPfvSjrPIHH3xwo/UAdYvXdZs2bbKuqTvvvLPB8t26dcsqf8MNN7RYLKpt0qRJmaqqqqzzvPvuu5nmuPjiizNvvPFGzuUXL16cOemkk5b7eY477rhmtQNaq3KNQ59++mnm3HPPzXz11Vc5/yzxfJtttllWHTFmvfnmm40eq08EpVWusSh6/vnnMx07dsw6Ztddd03iRiHpE0HzzJw5M9OlS5es6yFeV/WZNm1aZu21184qf/bZZzdaT+1rLsaIxjzxxBNZx7Rv3z7zwgsv1Ft+9OjRSZmaxzzzzDOZXGy99dZZx40YMSKzaNGiOsvGODZ8+PCs8tttt11O9QDpikXvvfdepkePHlnHDBw4MPP1119nCunaa6/NPPvss3kdc8UVVyw31rTXXnsVtF3QmpRrHIrfU6ZPn57Xz/GTn/xkuXoeeOCBnI7XJ4LSKtdYVJe5c+dmunbtmnWeRx99NNMc+kRQ3mKsqHmt9e3bt8nnMk5UXBIgoR5PP/10na9TTz0166LedNNN6y378ccft0jSUQw6G220UdZxq6yySubWW29NbnQtM2vWrKQDWPtm4THHHJPz5xBvLNZu489//vPMhx9+mFUudtTiZ1GzXOy8Tpw4Mee6gOX98pe/zLqu4vV8zjnnZCX9xJgQk7NjMnTt+FQzJrR0AuQFF1yQdY4tttgi01wxyTyea8iQIZmrr746Sais62f65ptvkngVB+hr/yzrrrtu5ssvv2x2W6C1Ksc4tKx87GsceOCBmfvvv7/egfKPPvooc9ZZZ2VWXnnl5eo44YQTcv4c9ImgtMoxFsV+Se1B8B/84AeZhx9+uN7viPW9xowZ02Db9Img+X7/+98vd10cffTRWX2IJUuWZB588MHlHnxYffXVc0oEauoNtpg4XfO4mFgdr/V4s22ZOXPmZK666qrlkq733HPPnD+Dl156abkxoqFDhy73QEhMuF4Wd2o+TPvqq6/mXBeQjlgUHy6L561ZvnPnzkl/It/+THw15NBDD03OHx9M+93vfpfEngULFixXLsa+Rx55JLP99tsv97PERM0JEyY0+hkA6YlDy8qvsMIKmb333jtz++231/s9bMqUKZlLL700+d5Vu454bK70iaD0yjEW1SXee6897pPLGFND9ImgPMTx2Lq+01x++eVZ11vv3r3r/f7T0CRlkXGi4pIACTkGo6a8zjvvvBZLOho3blyS9Fj7+HiDPXaY1l9//eUyveNryy23zMybNy+vzyJ2OGufJz5lEjucMcGpZ8+ey70fA+W9996bVz3A8mJHpvYsYvHVoUOHTP/+/ZMb+rWflIuveF3mMtNrIRMg4031muf4r//6r0xz1e5MLRsMi3UNGjQoM3jw4Ey/fv2W65zV/DJaOzkJSH8cqqv8soGfDTfcMLPVVlsl7Vp11VXr7aftt99+ySBaPvSJoHTKMRbVXh2gOa/GniTWJ4Lmi3/3az+pvmzANl4/m2+++XKzx8ZXp06dGk1SXqapA9uff/55Zp111qmz7vgA7IABA5Yb0I6vGANmzJiR1+fwhz/8oc44EW8ixv7MaqutVuf7ccYRoPJiUe3ZTZr7yuVmf81Xu3btkvgXH96I49Y//OEP6xzTjq/44Mkrr7yS92cOlHccqqt8fK200krJd70YG2Kbaidr1559KN/7XvpEUFrlGIvqUnu22ZNPPjnTXPpEUB7ieGxzv//E67kl4pBxoqaRAAn1KPcEyGjs2LF5Beadd965SUuXxE7oiSeemHM9K664Yubuu+/Oux6gbnE217qW9KjvFZcCeOedd3I+fyESIF988cXlkhFiu5urrpv9ub7iEy5ffPFFs9sAlF8cqi8BMpdXTBiKX8zqW766IfpEUFrlFotKnQCpTwT5mz9/fuaAAw7I+fqJD1fkc5Os9vH5HDtp0qTkgdZc2xZvjMVZkJoizmYQbyzmUk8sF2cUACozFpU6ATLXV3zIzSxHUJlxqK7yub7iA2CnnXZavUs1NkafCEqr3GJRbZMnT15u2em4Ikdz6RNBeSjnBMjIOFH+2gQgtTbbbLPw7rvvhjPOOCN079693nI//OEPw/XXXx+eeuqp0K1bt7zradOmTbjyyivDc889F7bbbrt6y3Xo0CEcdNBB4b333gsjR47Mux6gbqusskp4+umnw6hRo8J6663XYLkzzzwziQubbLJJUdt46623Zm2PGDEiaU9znXXWWeHXv/512GijjULbtm0bLd+lS5ew3377hRdeeCH84x//CL169Wp2G4Dyi0O9e/cO11xzTdh7772T/5+Lvn37hrPPPjtMnDgxnHTSSaGqqirvevWJoLTKLRYVkz4RFEbHjh3D3//+93DfffeFgQMH1luuc+fO4Zhjjgnjxo0LQ4cOLUrbYl/l9ddfD3/4wx/C6quvXm+5+N6ll14aXnvttdCnT58m1XXyySeHN954IwwbNizp39Ql7h8+fHh48803wwknnNCkeoD0xaKWdPTRRyfxZNCgQaF9+/Y5fU677757ePTRR8Orr74a1l133aK0E1qDcotD8TveAQcckHPf5gc/+EE4/vjjwwcffJD0nXKJKXXRJ4LSKrdYVNvf/va3+HRH9fYWW2wRNt5442afV58IyIVxovxVxSzIJhwHlJnFixcnQS3eaJ81a1ZyU2y11VZLOk+Fvuk3bdq08Morr4QpU6aEBQsWhK5duyZJlj/+8Y/DSiutVNC6gOXFm/lvvfVW+Oyzz8KSJUtCjx49ki9dW221VZMHe9Jg3rx5yRfcSZMmJT/7nDlzwtKlS5PE7pgEPmDAgCTe5ZIUAFRWHIrtiIPesW/y5ZdfJvEiJiHG2BCTfgYPHtzgF8Sm0ieC0iq3WFQs+kRQOBMmTEjGUqZPnx4WLVqUXEcbbrhh2HbbbZObTKUSr+k4oPz222+HGTNmJPtinybeFIzjPPUNRjdF7DuNGTMmeUhk7ty5yc3FeEMtfgY9e/YsWD1A+mJRS4o/5/jx48Mnn3wSPv300zB79uxkfDt+j4r9mfXXXz9svvnmyfc6oHXFoXh/K8aHyZMnh5kzZyb9k/jdJsaG2DeJsaFfv34Fr1efCEqvnGJRsegTAbkwTpQbCZAAAAAAAAAAAABA6lgCGwAAAAAAAAAAAEgdCZAAAAAAAAAAAABA6kiABAAAAAAAAAAAAFJHAiQAAAAAAAAAAACQOhIgAQAAAAAAAAAAgNSRAAkAAAAAAAAAAACkjgRIAAAAAAAAAAAAIHUkQAIAAAAAAAAAAACpIwESAAAAAAAAAAAASB0JkAAAAAAAAAAAAEDqSIAEAAAAAAAAAAAAUkcCJAAAAAAAAAAAAJA6EiABAAAAAAAAAACA1JEACQAAAAAAAAAAAKSOBEgAAAAAAAAAAAAgdSRAAgAAAAAAAAAAAKkjARIAAAAAAAAAAABIHQmQAAAAAAAAAAAAQOpIgAQAAAAAAAAAAABSRwIkAAAAAAAAAAAAkDoSIAEAAAD4f+3de5DVdfkH8A+wXOQm5HpBQCBBEQTxAkpAICgKCAteUByNSzpallaWUU5ZU1akptWkY17AgUWdxskFuaUgimGmsAiaghp4Q0VBuQz3ZX/zPVO/CTgXlj3fPXv2vF4zO8J5Pvt9PmfZ/Wfn7fMEAAAAAADINwKQAAAAAAAAAAAAQN4RgAQAAAAAAAAAAADyjgAkAAAAAAAAAAAAkHcEIAEAAACAvNaxY8dQr169an1MmzYt128Dss7PBgAAAFDXCUACAAAAAAAAAAAAeUcAEgAAAAAAAAAAAMg7ApAAAAAAkMLu3btDo0aNqr1CNo6P++67L9dfnoLy5ptvZvw3+f3vfx9qowcffDDj3VevXp31vrt27QotWrRI2q+4uDhUVFRkvScAAAAAhUUAEgAAAABSWLVqVdizZ0+ojfr06ZPrKxSUrl27hr59+6Y9M23atFAbTZ06NW39K1/5Sjj55JOz3nfhwoVh27ZtSWsjRowIDRo0yHpPAAAAAAqLACQAAAAApLB8+fJQGzVp0iT07Nkz19coOBMnTkxbX7FiRVi5cmWoTd56662wdOnSar2vw1VWVpayNmrUqFh6AgAAAFBYinJ9AQAAAACorWprALJXr16hYcOGub5GXoimGx5KwK9fv34Zz1x++eXhO9/5Tti+fXvaaYt33313qC0yTaVs2rRpGDt2bNb7VlZWhtmzZyetNW7cOFxwwQVZ78nBpkyZErZu3Zr2zMaNG8PkyZNr7E4AAAAA2SQACQAAAAAplJeXh9rI+utD16VLl3DNNddk5VktW7YMl1xySZg+fXrKMzNnzgx33HFHKCrK/a9e9+3bl/aukej9RO8r215++eXw0UcfJa0NHjw4NG/ePOs9SR7azWTdunUCkAAAAEDesgIbAAAAAJKoqKiodeuM/0sAMncyTZPcsGFDmDNnTqgNFi5cGN5///2crL+eNWtWylpJSUksPQEAAAAoPLn/35ABAAAAoBZ64403wo4dO1LWjz766PCrX/0q5MLQoUNz0pcQBg0aFDp16hTWrl2bdu10bQj5Reu404neR/R+4lBWVpb09Xr16oWRI0fG0hMAAACAwiMACQAAAABJLF++PG39rLPOytpqZfJHFOCbMGFCuO2221KeiSZAfvbZZ6G4uDjkyubNm8OTTz6Z9kz0PqL3k21ROPS1115L+XNz/PHHZ70nAAAAAIXJCmwAAAAASKK8vDxtvVevXjV2F2qXKDhYv37qX63u2bMnlJaWhlx6/PHH004wjYKP48ePr9Hpj5FRo0bF0hMAAACAwiQACQAAAACHMQFSALJwnXDCCWHw4MFpz0RrsHMpU//o/h06dIil96xZs1LWasNqcAAAAADqDgFIAAAAADhAZWVlWLFiRdozApCFbeLEiWnr0ffPypUrQy6sWbMmvPjii9W6/+H6/PPPw5IlS5LWOnXqFHr06BFLXwAAAAAKkwAkAAAAABzg7bffDlu2bElZb968eejcuXON3ona5eKLLw6tWrVKe2bq1Kk1dp+q9D3yyCMT94/DnDlzwt69e5PWrL8GAAAAINsEIAEAAACgiuuve/bsGerX96u1QtakSZNwxRVXpD0zc+bMlGHAuOzbty9Mnz497Zno3kcccUQs/a2/BgAAAKAm+S0tAAAAABygvLw8bd36aw5ljfSGDRsSExFr0tNPPx0+/PDDnKy/3r17d5g/f37SWuvWrcOAAQNi6QsAAABA4SrK9QUAAAAAIN8mQApAEunTp0/o3r17eP3111OemTZtWo1OPoz6pXPKKaeEs88+O5bezz77bNi6dWvS2vDhw0NRUc39OnrHjh1h4cKFYdGiRYl/nzVr1oTNmzcn7hdN74wCmR06dEh8LQYNGhSGDRsWGjRoUO2+77//fpg9e3ZYtmxZePXVV8PHH3+c6Bvdp1mzZqFNmzbh5JNPDv379w8jR44MXbt2zcr7BQAAAChUApAAAAAAcAATIDlU0TTF73//+ynr0QTIzz77LBQXF8d+lyho9+STT+Zk+mOkrKwsZW3UqFFVDnKmu+vatWtDx44dD3r9rbfeCnfddVdiDfj27duTfu62bdsSH1FY8YUXXkicP/7448MNN9wQbr755tC4ceNQVdHX/c477wxLly4NlZWVSc9s2bIl8bF69erEqvBbbrklMRXzF7/4RRg4cGCVewIAAABgBTYAAAAA7Oe9995LBNZSiabE9ejRo0bvRO119dVXp51suGfPnlBaWlojd3nsscfCzp07U9aje0b3jUs0+TCZRo0ahQsvvDDEKXrfkydPTky4vP/++1OGH1NZv359uPXWW8Opp54a/v73vx/y50VTHnv37h3GjBmT+LxU4cdUlixZkphAee2111b5zgAAAAAIQAIAAABAlaY/RutroxW6EDnmmGPCiBEjqrWWOlumTp2ath6teT7uuONi6R2tfP7ggw+S1qKAX8uWLUNcor7RKuspU6aEioqKaj3r7bffDkOGDAmPP/54xrN//OMfE31feeWVUF0PPvhgou+mTZuq/SwAAACAQiIACQAAAAD/Y/ny5Wnrp59+eo3dhfyQaa30ihUrwsqVK2O9w5tvvhleeumlnK2/jlY6p1JSUhJb3zVr1oRzzjknq1/fXbt2hSuvvDI89dRTKc9E0yZvvPHGxNls+cc//pFYFZ7NZwIAAADUdQKQAAAAAFCFAGSvXr1q7C7kh2gC5LHHHlut6YzVlWnKZHFxcbjoooti619WVpayFoX64vDJJ58kVmt/+OGHWX/2vn37EiHI1atXH1T70Y9+lJg2GYdojfbNN98cy7MBAAAA6qKiXF8AAAAAAGoTAUiqqqioKFx11VXhrrvuSnlm5syZ4Y477kiczbZo7fP06dPTnonu17BhwxCHd999N7z66qtJa2eccUZo165dLO/5kksuCWvXrk1ab9CgQejbt2/o2bNnIpwaBUC3bNkSNmzYkJi0GE3LjEKO6WzdujV885vfDAsXLvz/1x599NHwm9/8Ju1K9MGDByfec9T3iCOOSAQ1161bF+bPnx8+/fTTjO/t3nvvDZdffnkYMGBAxrMAAAAAhU4AEgAAAAD+IwpHrV+/Pu0ZAUhSrZdOF4CMvrfmzp0byzTEp59+OuP3bV1bfx1NYIymJR6obdu24bbbbgsXX3xxOOqoo1J+fhRK/PnPfx7uv//+tEHIRYsWhb/+9a9hzJgxiTXj11xzTdJzV1xxRbjppptCnz59Qv36yRcvRX2i74Ho3L///e+UPSsrK8MPfvCDRFATAAAAgPSswAYAAACAQ5z+GIWroklycKDu3bsnwm/VWVN9uDKt146mMEaTEOvS+usHHnhgv7/Xq1cvTJ48OaxZsyZce+21acOPkWg6YzRpccGCBaFJkyZpz0bB1iiUeN1114Xt27fvVzvllFPCiy++mJgMec4556QMP0aiWrSG/LXXXkus7k4nmlC5ZMmStGcAAAAAEIAEAAAAgP9n/TXVkWnK4pw5c8LGjRuz2vOLL75IG0CMTJo0KcRl8+bN4fnnn09aO+GEE2rkZyZad/3QQw+FX//616Fp06ZV+tzzzjsvEV5MJ5o0+b3vfe+g9xkFXqOQYhR8rIpoLfYTTzwRzjrrrLTn/vznP1fpuQAAAACFSAASAAAAAP5DAJLqGDduXCLclsru3btDaWlpVntG4b1du3alrDdu3DhceeWVIS7RSuc9e/bU6PTHA0VrrKuz4nv06NEZV3Xfc889B038XLhwYcZJk6lEQc0//elPicmVqcyePTvxPQMAAABAagKQAAAAAHCIAcjbb789EViqyY9M0+moPY488sgwZsyYGl2Dnel5UbCvdevWIS6zZs1K2ztuF198cfj6179e7edEP9uHqmHDhmHGjBmhefPm1eoZTZBM9zWKpmtG67UBAAAASE0AEgAAAAD+s0p47dq1obaJQlLkj0yTCMvLy8OqVauy0uuNN94I//znP6t1n+qIJj/OmzcvZRh04MCBIU4tWrRITH/MhmiiY/RxKG655ZasTYO94oor0taXLl2alT4AAAAAdZUAJAAAAAD8J5hW20TrdU888cRcX4MqGDJkSOjQoUPaM1OnTq2R6Y9t27YNQ4cODXF57rnnElMKkxk2bFhiUmKcxo8fH4qLi7P2vEzTOyONGjUK3/72t7PWc8SIEYlnprJixYqs9QIAAACoiwQgAQAAAOAQ1l/nQu/evXN9BaooWlseBfPSKS0tDXv37q1Wn4qKijB9+vS0Z6J71K8f36+Ay8rKUtZGjRoV4nbDDTdk9XlnnHFGxjOXXnppOPbYY7PWM1qjfdJJJ6Wsr169Omu9AAAAAOoiAUgAAAAAqKUBSOuv89OECRMSQchUNmzYEObOnVutHgsWLAgfffRRxnvEafbs2UlfjyY/Dh8+PNbeXbt2TXxk0ymnnJLxTElJSci2bt26pay99957We8HAAAAUJcIQAIAAABALV2BLQCZnzp16hQGDRpUrfXVmWT6/P79+4cuXbqEuESrmd99992ktYEDB4YjjzwyxKlv375Zf+ahrJuPo2/nzp1T1r744otqTwsFAAAAqMuKcn0BAAAAAMi17du3Z1w1e99994Wiopr9dVoUYiM/TZw4MTz77LMp63PmzAkbN24MRx11VJWf/fnnn4dZs2Zl7B+nXK+/Puecc7L+zGhyZePGjcOuXbuS1o8//vjQvn37rPdt0aJFylplZWXYsmVL+NKXvpT1vgAAAAB1gQAkAAAAAAUvmma3b9++lPWOHTuG66+/vkbvRH675JJLwre+9a1EeC2Z3bt3h9LS0nDjjTdW+dmPPvpoypBepFmzZmHs2LEhTukCmDURgIwjiBhp3rx5yq9tu3btYuuZTrp/awAAAIBCZwU2AAAAAAVv+fLlaes9e/assbtQNzRt2jRcfvnlsazBnjp1atr6pZdemjFUVx0ffPBByp+Z0047LXTo0CHErXXr1rE8NwqP1qae/w3LAgAAAJCcACQAAAAABa+8vDxtPQp1QVVlWkMdfd+tWrWqSs98/fXXwyuvvJL2zKRJk0Kupj+WlJSEmhBXGLFevXq1qud/12ADAAAAkJwAJAAAAAAFL9MESAFIDkffvn1D165dqzXNsapTI0888cQwYMCAEKeysrKcrr+ONG7cuEb65LonAAAAAOkJQAIAAABQ0KL1stFUvXSswCauKZClpaVh7969h/SsioqKMGPGjLRnJkyYkHGiYHVs3bo1LF68OGmtXbt24cwzz4ytNwAAAAAcSAASAAAAgIIWrSDes2dPynqzZs0SU/XgcFx99dWhQYMGKesbNmwIc+fOPaRnzZ8/P3z88ccp6/Xr1w/jx48PcZo3b14iNJzMyJEjY+0NAAAAAAcSgAQAAACgoGVaf92jR49EsAwOR5s2bcKwYcOqtdb6UNdlDxkyJLRv3z7EadasWSlrJSUlsfYGAAAAgAP5zS0AAAAABa28vDxt3fpr4l6DPWfOnLBx48a0ZzZt2hRmz56d9sykSZNCnKJV3ammVbZo0SKce+65sfYHAAAAgAMJQAIAAABQ0DJNgDzttNNq7C7UTdFq6OLi4pT1aKV0aWlp2mfMnDkz5erpSKtWrcLo0aNDnJ5//vnw+eefJ61deOGFoVGjRrH2BwAAAIADFR30CgAAAAAUiIqKirBy5co6FYBct25dmDFjRqw9unfvHsaMGRNrj7qkYcOG4aqrrgr33HNPyjOPPPJIuPHGGw97Tfa4ceNCkyZNQpysvwYAAACgthGABAAAAKBgvfHGG2HHjh0p6/Xq1Qs9evQI+WTBggXhJz/5Saw9fvrTnwpAHsYa7HQByGgS6apVq5J+v7322mth2bJlGZ8ft1QByKKiojB8+PDY+wMAAADAgazABgAAAKBglZeXp6137NgxtGzZMuSTV199NfYeZ5xxRuw96pqePXuGM888M+2ZVFMeM01/jCZy9u7dO8QpCmeuXbs2aW3AgAGhdevWsfYHAAAAgGQEIAEAAAAoWNHUvbq0/rqmApCZgnwc3pTG0tLSsHfv3v1ei/6eaaV5TUx/LCsrS1kbNWpU7P0BAAAAIBkBSAAAAAAKVl0LQFZWViYm9cXpmGOOCe3atYu1R1115ZVXhsaNG6esf/LJJ2HevHn7vRb9PXo9lWj99NVXXx1ytf46UlJSEnt/AAAAAEhGABIAAACAghSFBVesWJFxbXE+qVevXtiyZUvivVXnY+fOnSmn+k2YMKHG31ddEa2JHj16dNozB667zrT+esSIEYlQapzWr18fXnnllaS1U089NXTq1CnW/gAAAACQigAkAAAAAAXpnXfeSYQF69IEyGzYsWNHYqJfsol/N998c5gyZUpO7lVXZFpX/dRTT4WNGzcm/hz9N/p7dZ6XDbNnz04EY5Mx/REAAACAXBKABAAAAKAgZVp/3bx58/DlL385FJJt27aF4cOHhwULFhxUu/XWW8Odd96Zk3vVJeeff37aFeK7d+8OM2fOTPw5+m/091SiyY/RBMi4lZWVpaylmhQKAAAAADVBABIAAACAgpQpANmjR4/ESulCsXnz5nDBBReExYsXH1S7/fbbwy9/+cuc3KuuqV+/fhg/fnzaM/9dez116tS056666qpQVFQU4g7FLlq0KGmtTZs2oXfv3rH2BwAAAIB0BCABAAAAKEiZApCFtP5606ZNYciQIWHp0qUH1X73u9+FH//4xzm5V101YcKEjN+b0fTH8vLytOcmTZoU4hZNA921a1fK6Y+FFBIGAAAAoPYRgAQAAACgIGUKlxVKAHLDhg3h3HPPDcuWLdvv9SjYdu+994bvfve7ObtbXdW5c+fw1a9+Ne2Z6667Lm09mrzYvXv3EDfrrwEAAACozQQgAQAAACg477//fvjss8/SnunZs2eo69avXx8GDhwYVq5cedCa5oceeih84xvfyNnd6rqJEydmXD1dnc/PhoqKijB37tyktebNmyemhgIAAABALglAAgAAAFBwMq2/jqYf9ujRI9Rl7733XmIK4Ztvvrnf60VFRWHGjBk1ErArZJdddlkiRHg4mjRpEsaNGxfi9sILL4SNGzcmrQ0dOjQ0btw49jsAAAAAQDpFaasAAAAAUIAByJYtW4bHH3885ELbtm3DsGHDYu3xzjvvhMGDBydCkP+rUaNG4bHHHgtjxoyJtT8hNGvWLIwdOzY8/PDDVf7c0aNHh1atWoW4zZo1K2WtpKQk9v4AAAAAkIkAJAAAAAAFJ1MAcvPmzeHaa68NuXD99dfHGoCMJj5Gq4uj9dcHThV84oknwvDhw2Przf6iKZuHE4CsqemcqQKQDRo0CCNGjKiROwAAAABAOlZgAwAAAFBwysvLQ23Vu3fv2J69cuXKMHDgwIPCj02bNg1PPfWU8GMN69+/f+jSpUuVPqd9+/bhvPPOC3H717/+Fd5+++2ktX79+oWjjjoq9jsAAAAAQCYCkAAAAAAUlA0bNoQPP/ww1FZ9+vSJ5bnLli0L5557buL9/68WLVqE+fPnJ6ZCUvOqOs1x/PjxoX79+H+tW1ZWlrI2atSo2PsDAAAAwKEQgAQAAACgoGRaf51LzZs3D926dcv6c5cuXZoIOG7atGm/11u1ahWefvrpMGDAgKz35NB87WtfS6yUPlQTJkwIuVx/HSkpKamROwAAAABAJgKQAAAAABSU2hyAPPPMM7M+3W/x4sXhggsuCJs3b97v9eLi4rBo0aJw9tlnZ7UfVdO2bdswdOjQQzr71a9+NZx44omx3+njjz8OL730UtJaFNDt3Llz7HcAAAAAgEMhAAkAAABAQSkvLw+Fsv56wYIFYfjw4WHbtm37vX7cccclgpGnn356VvsR7xrsqq7LPlyzZ88OlZWVSWvWXwMAAABQmxTl+gIAAAAAUJP+8pe/hEIQrTAeO3Zs2LVr10ETB6PJjyeddFLO7sb+LrvsspSBw1yoDeuvo1XfNbXu+3+tW7euxnvm6r0CAAAA1AUmQAIAAABAHQx5XnrppQeFHzt27BiWLFki/EhK27dvD88880zS2rHHHmtlOgAAAAC1igAkAAAAANQh06dPD+PGjQt79uzZ7/UuXbqE559/PnTq1Clnd6P2+9vf/hZ27tyZtDZy5MhQr169Gr8TAAAAAKQiAAkAAAAAdcQDDzyQWKVbUVGx3+vdunULzz33XGjfvn3O7kZ+KCsrS1kbNWpUjd4FAAAAADIRgAQAAACAOuAPf/hDuO6668K+ffv2e/20004LixcvDm3atMnZ3cgP0ffOnDlzktaaNm0azjvvvBq/EwAAAACkIwAJAAAAAHluypQp4aabbgqVlZX7vd67d+/w7LPPhqOPPjoUqkceeSSxtjnTx7Rp00KhW7p0afj000+T1s4///xwxBFH1PidqJ6OHTtm/N7v1KlTrq8JAAAAcNgEIAEAAAAgj/3sZz8LkydPPuj1fv36hWeeeSa0bt06J/ci/8yaNStlraSkpEbvAgAAAACHouiQTgEAAAAAtc4Pf/jD8Nvf/vag1wcPHpwIszVr1iwn9yI/lZWVJX29fv364aKLLqrx+wAAAABAJgKQAAAAAJCH5s2blzT82KRJk9C3b99w9913Z6VP//79w6BBg7LyLGq31atX5/oKAAAAAFAlApAAAAAAkIdefvnlpK/v3Lkz3H777Vnr8/DDDwtAAgAAAAC1Uv1cXwAAAAAAqLrly5fXSJ9evXrVSB8AAAAAgKoyARIAAAAA8lBNBCCLiopCt27dQm03ZcqUsHXr1mo9o1+/flm7D9QWfjYAAACAuq5eZWVlZa4vAQAAAAAcuo0bN4bi4uLY+5x66qlh1apVsfcBAAAAADgcApAAAAAAAAAAAABA3qmf6wsAAAAAAAAAAAAAVJUAJAAAAAAAAAAAAJB3BCABAAAAAAAAAACAvCMACQAAAAAAAAAAAOQdAUgAAAAAAAAAAAAg7whAAgAAAAAAAAAAAHlHABIAAAAAAAAAAADIOwKQAAAAAAAAAAAAQN4RgAQAAAAAAAAAAADyjgAkAAAAAAAAAAAAkHcEIAEAAAAAAAAAAIC8IwAJAAAAAAAAAAAA5B0BSAAAAAAAAAAAACDvCEACAAAAAAAAAAAAeUcAEgAAAAAAAAAAAMg7ApAAAAAAAAAAAABA3hGABAAAAAAAAAAAAPKOACQAAAAAAAAAAACQdwQgAQAAAAAAAAAAgLwjAAkAAAAAAAAAAADkHQFIAAAAAAAAAAAAIO8IQAIAAAAAAAAAAAB5RwASAAAAAAAAAAAAyDsCkAAAAAAAAAAAAEDeEYAEAAAAAAAAAAAA8o4AJAAAAAAAAAAAAJB3BCABAAAAAAAAAACAvCMACQAAAAAAAAAAAOQdAUgAAAAAAAAAAAAg7whAAgAAAAAAAAAAAHlHABIAAAAAAAAAAADIOwKQAAAAAAAAAAAAQN4RgAQAAAAAAAAAAABCvvk/WoFCVi+kr40AAAAASUVORK5CYII=;movable=0;resizable=0;rotatable=0;deletable=0;editable=0;locked=1;connectable=0;" vertex="1" parent="1">
          <mxGeometry x="-510" y="880" width="2624" height="1619" as="geometry" />
        </mxCell>
        <mxCell id="aIKme_46oC3QXbZHdEw_-3" value="" style="endArrow=none;dashed=1;html=1;rounded=0;strokeWidth=6;movable=0;resizable=0;rotatable=0;deletable=0;editable=0;locked=1;connectable=0;" edge="1" parent="1">
          <mxGeometry width="50" height="50" relative="1" as="geometry">
            <mxPoint x="910" y="1890" as="sourcePoint" />
            <mxPoint x="750" y="1320" as="targetPoint" />
          </mxGeometry>
        </mxCell>
        <mxCell id="aIKme_46oC3QXbZHdEw_-4" value="" style="endArrow=none;html=1;rounded=0;strokeWidth=13;" edge="1" parent="1">
          <mxGeometry width="50" height="50" relative="1" as="geometry">
            <mxPoint x="-290" y="1910" as="sourcePoint" />
            <mxPoint x="2040" y="1290" as="targetPoint" />
          </mxGeometry>
        </mxCell>
        <mxCell id="aIKme_46oC3QXbZHdEw_-5" value="" style="endArrow=classic;html=1;rounded=0;strokeWidth=5;movable=0;resizable=0;rotatable=0;deletable=0;editable=0;locked=1;connectable=0;" edge="1" parent="1">
          <mxGeometry width="50" height="50" relative="1" as="geometry">
            <mxPoint x="830" y="1610" as="sourcePoint" />
            <mxPoint x="650" y="1290" as="targetPoint" />
          </mxGeometry>
        </mxCell>
        <mxCell id="aIKme_46oC3QXbZHdEw_-9" value="" style="endArrow=classic;html=1;rounded=0;strokeWidth=5;strokeColor=default;movable=0;resizable=0;rotatable=0;deletable=0;editable=0;locked=1;connectable=0;" edge="1" parent="1">
          <mxGeometry width="50" height="50" relative="1" as="geometry">
            <mxPoint x="830" y="1260" as="sourcePoint" />
            <mxPoint x="830" y="1610" as="targetPoint" />
            <Array as="points" />
          </mxGeometry>
        </mxCell>
        <mxCell id="aIKme_46oC3QXbZHdEw_-12" value="" style="endArrow=classic;html=1;rounded=0;strokeWidth=5;movable=0;resizable=0;rotatable=0;deletable=0;editable=0;locked=1;connectable=0;" edge="1" parent="1">
          <mxGeometry width="50" height="50" relative="1" as="geometry">
            <mxPoint x="830" y="1610" as="sourcePoint" />
            <mxPoint x="880" y="1940" as="targetPoint" />
          </mxGeometry>
        </mxCell>
        <mxCell id="aIKme_46oC3QXbZHdEw_-17" value="&lt;font style=&quot;font-size: 40px;&quot;&gt;$$ \theta_i $$&lt;/font&gt;" style="text;html=1;align=center;verticalAlign=middle;resizable=0;points=[];autosize=1;strokeColor=none;fillColor=none;strokeWidth=2;" vertex="1" parent="1">
          <mxGeometry x="667" y="1340" width="270" height="60" as="geometry" />
        </mxCell>
        <mxCell id="aIKme_46oC3QXbZHdEw_-18" value="&lt;font style=&quot;font-size: 40px;&quot;&gt;$$ \theta_i $$&lt;/font&gt;" style="text;html=1;align=center;verticalAlign=middle;resizable=0;points=[];autosize=1;strokeColor=none;fillColor=none;strokeWidth=2;movable=0;rotatable=0;deletable=0;editable=0;locked=1;connectable=0;" vertex="1" parent="1">
          <mxGeometry x="667" y="1340" width="270" height="60" as="geometry" />
        </mxCell>
        <mxCell id="aIKme_46oC3QXbZHdEw_-19" value="&lt;font style=&quot;font-size: 40px;&quot;&gt;$$ \theta_t $$&lt;/font&gt;" style="text;html=1;align=center;verticalAlign=middle;resizable=0;points=[];autosize=1;strokeColor=none;fillColor=none;strokeWidth=2;" vertex="1" parent="1">
          <mxGeometry x="760" y="1870" width="270" height="60" as="geometry" />
        </mxCell>
        <mxCell id="aIKme_46oC3QXbZHdEw_-20" value="&lt;font style=&quot;font-size: 40px;&quot;&gt;$$ \theta_r $$&lt;/font&gt;" style="text;html=1;align=center;verticalAlign=middle;resizable=0;points=[];autosize=1;strokeColor=none;fillColor=none;strokeWidth=2;" vertex="1" parent="1">
          <mxGeometry x="610" y="1380" width="270" height="60" as="geometry" />
        </mxCell>
        <mxCell id="aIKme_46oC3QXbZHdEw_-22" value="&lt;font style=&quot;font-size: 80px;&quot;&gt;$$ \varepsilon_r =1 $$&lt;/font&gt;" style="text;html=1;align=center;verticalAlign=middle;whiteSpace=wrap;rounded=0;" vertex="1" parent="1">
          <mxGeometry x="-210" y="1560" width="290" height="30" as="geometry" />
        </mxCell>
        <mxCell id="aIKme_46oC3QXbZHdEw_-24" value="&lt;font style=&quot;font-size: 80px;&quot;&gt;$$ \varepsilon_r =4 $$&lt;/font&gt;" style="text;html=1;align=center;verticalAlign=middle;whiteSpace=wrap;rounded=0;" vertex="1" parent="1">
          <mxGeometry x="-220" y="1930" width="290" height="30" as="geometry" />
        </mxCell>
      </root>
    </mxGraphModel>
  </diagram>
</mxfile>
